<?xml version="1.0" encoding="UTF-8"?>
<!DOCTYPE svg PUBLIC "-//W3C//DTD SVG 1.1//EN" "http://www.w3.org/Graphics/SVG/1.1/DTD/svg11.dtd">
<svg xmlns="http://www.w3.org/2000/svg" version="1.1" width="636px" height="280px" style="shape-rendering:geometricPrecision; text-rendering:geometricPrecision; image-rendering:optimizeQuality; fill-rule:evenodd; clip-rule:evenodd" xmlns:xlink="http://www.w3.org/1999/xlink">
<g><path style="opacity:0.991" fill="#fcfcfc" d="M 121.5,36.5 C 126.179,36.3342 130.845,36.5008 135.5,37C 136.931,37.4652 138.097,38.2986 139,39.5C 139.954,65.8744 139.621,92.2077 138,118.5C 130.874,139.15 116.374,148.983 94.5,148C 88.3626,137.262 79.0292,132.262 66.5,133C 56.2817,119.145 54.7817,104.312 62,88.5C 74.9074,67.9756 92.7407,61.809 115.5,70C 116,69.5 116.5,69 117,68.5C 117.333,58.8333 117.667,49.1667 118,39.5C 119.145,38.3636 120.312,37.3636 121.5,36.5 Z M 94.5,88.5 C 111.805,88.775 118.972,97.4417 116,114.5C 110.834,124.66 102.667,128.16 91.5,125C 83.9192,121.685 79.9192,115.852 79.5,107.5C 80.4719,97.8734 85.4719,91.5401 94.5,88.5 Z"/></g>
<g><path style="opacity:0.999" fill="#fcfcfb" d="M 322.5,36.5 C 326.846,36.3343 331.179,36.501 335.5,37C 337.081,37.7065 338.581,38.5399 340,39.5C 340.333,65.1667 340.667,90.8333 341,116.5C 341.412,120.491 343.246,123.658 346.5,126C 352.164,127.704 357.831,129.204 363.5,130.5C 364.621,136.114 364.788,141.78 364,147.5C 340.535,152.925 325.535,143.925 319,120.5C 318.333,93.5 318.333,66.5 319,39.5C 320.145,38.3636 321.312,37.3636 322.5,36.5 Z"/></g>
<g><path style="opacity:0.2" fill="#d5a56e" d="M 384.5,87.5 C 384.167,87.5 383.833,87.5 383.5,87.5C 381.836,80.2122 380.169,72.8789 378.5,65.5C 377.778,61.494 376.945,57.494 376,53.5C 375.215,51.714 374.049,50.214 372.5,49C 365.167,48.3333 357.833,48.3333 350.5,49C 349.167,50.6667 349.167,52.3333 350.5,54C 356.5,54.3333 362.5,54.6667 368.5,55C 370.704,59.0169 372.371,63.1836 373.5,67.5C 374.182,73.5582 375.182,79.5582 376.5,85.5C 376.5,87.1667 376.5,88.8333 376.5,90.5C 373.215,79.4261 370.548,68.0927 368.5,56.5C 362.491,56.6662 356.491,56.4995 350.5,56C 346.517,52.5922 346.85,49.5922 351.5,47C 359.232,46.1439 366.898,46.4772 374.5,48C 375.893,49.1711 376.727,50.6711 377,52.5C 379.696,64.1493 382.196,75.816 384.5,87.5 Z"/></g>
<g><path style="opacity:1" fill="#f3a847" d="M 378.5,65.5 C 377.18,66.9418 375.514,67.6085 373.5,67.5C 372.371,63.1836 370.704,59.0169 368.5,55C 362.5,54.6667 356.5,54.3333 350.5,54C 349.167,52.3333 349.167,50.6667 350.5,49C 357.833,48.3333 365.167,48.3333 372.5,49C 374.049,50.214 375.215,51.714 376,53.5C 376.945,57.494 377.778,61.494 378.5,65.5 Z"/></g>
<g><path style="opacity:0.881" fill="#68b99f" d="M 450.5,86.5 C 450.5,85.8333 450.167,85.5 449.5,85.5C 449.5,84.8333 449.5,84.1667 449.5,83.5C 452.448,76.2572 453.948,68.5905 454,60.5C 445.251,59.5161 436.418,59.1828 427.5,59.5C 421.833,59.5 416.167,59.5 410.5,59.5C 403.599,58.1901 396.599,58.1901 389.5,59.5C 389.5,59.1667 389.5,58.8333 389.5,58.5C 410.663,57.3373 431.996,57.1706 453.5,58C 455.776,58.8743 457.11,60.5409 457.5,63C 455.686,71.1115 453.353,78.9448 450.5,86.5 Z"/></g>
<g><path style="opacity:1" fill="#52bb81" d="M 427.5,59.5 C 436.418,59.1828 445.251,59.5161 454,60.5C 453.948,68.5905 452.448,76.2572 449.5,83.5C 447.602,81.6174 445.769,79.6174 444,77.5C 442.951,78.5171 441.784,78.6838 440.5,78C 439.343,74.4442 437.343,71.4442 434.5,69C 432.559,68.2571 430.726,68.4238 429,69.5C 428.682,67.9391 427.849,66.7724 426.5,66C 426.833,65.6667 427.167,65.3333 427.5,65C 425.579,64.6397 423.912,63.8064 422.5,62.5C 424.36,61.6751 426.026,60.6751 427.5,59.5 Z"/></g>
<g><path style="opacity:0.994" fill="#fbfbfb" d="M 186.5,65.5 C 206.83,67.4991 218.83,78.4991 222.5,98.5C 222.888,101.861 221.888,104.694 219.5,107C 208.095,110.58 196.595,113.747 185,116.5C 177.812,116.312 174.478,112.646 175,105.5C 176.214,103.951 177.714,102.785 179.5,102C 186.164,100.223 192.664,98.0564 199,95.5C 198.32,92.1506 196.153,89.9839 192.5,89C 174.17,86.9982 166.336,95.1649 169,113.5C 172.874,123.191 180.041,127.358 190.5,126C 196.069,124.883 200.736,122.216 204.5,118C 206.167,117.333 207.833,117.333 209.5,118C 213.725,121.722 217.392,125.888 220.5,130.5C 207.308,146.95 190.641,151.783 170.5,145C 148.903,132.558 142.07,114.391 150,90.5C 157.568,75.31 169.734,66.9767 186.5,65.5 Z"/></g>
<g><path style="opacity:0.996" fill="#fcfcfc" d="M 260.5,66.5 C 287.555,64.2561 304.055,76.2561 310,102.5C 310.667,116.167 310.667,129.833 310,143.5C 309.535,144.931 308.701,146.097 307.5,147C 301.833,147.667 296.167,147.667 290.5,147C 289.299,146.097 288.465,144.931 288,143.5C 266.898,152.821 249.231,148.488 235,130.5C 224.103,109.838 226.936,91.3384 243.5,75C 248.712,71.0607 254.379,68.2273 260.5,66.5 Z M 264.5,88.5 C 285.658,89.4702 292.158,99.8035 284,119.5C 273.683,129.064 263.683,128.73 254,118.5C 247.748,104.857 251.248,94.8572 264.5,88.5 Z"/></g>
<g><path style="opacity:1" fill="#359989" d="M 410.5,59.5 C 406.02,59.2681 401.687,59.9348 397.5,61.5C 398.875,64.5471 401.208,65.8804 404.5,65.5C 404.5,66.5 404.5,67.5 404.5,68.5C 406.564,68.687 408.564,69.187 410.5,70C 413.84,78.9072 419.174,79.7405 426.5,72.5C 427.107,72.6236 427.44,72.9569 427.5,73.5C 425.431,76.5725 422.764,78.9059 419.5,80.5C 419.44,79.9569 419.107,79.6236 418.5,79.5C 416.36,80.4733 414.693,81.9733 413.5,84C 410.89,84.1472 408.556,84.9806 406.5,86.5C 404.705,84.2975 402.371,83.1308 399.5,83C 397.499,80.019 395.332,77.8523 393,76.5C 391.93,71.1282 390.763,65.7949 389.5,60.5C 389.5,60.1667 389.5,59.8333 389.5,59.5C 396.599,58.1901 403.599,58.1901 410.5,59.5 Z"/></g>
<g><path style="opacity:1" fill="#40a985" d="M 410.5,59.5 C 416.167,59.5 421.833,59.5 427.5,59.5C 426.026,60.6751 424.36,61.6751 422.5,62.5C 423.912,63.8064 425.579,64.6397 427.5,65C 427.167,65.3333 426.833,65.6667 426.5,66C 427.849,66.7724 428.682,67.9391 429,69.5C 430.726,68.4238 432.559,68.2571 434.5,69C 437.343,71.4442 439.343,74.4442 440.5,78C 441.784,78.6838 442.951,78.5171 444,77.5C 445.769,79.6174 447.602,81.6174 449.5,83.5C 449.5,84.1667 449.5,84.8333 449.5,85.5C 448.833,85.5 448.5,85.8333 448.5,86.5C 442.648,88.0776 438.315,86.0776 435.5,80.5C 436.754,78.3569 436.754,76.3569 435.5,74.5C 435.288,72.6159 434.288,71.2826 432.5,70.5C 430.971,71.7629 429.305,72.7629 427.5,73.5C 427.44,72.9569 427.107,72.6236 426.5,72.5C 419.174,79.7405 413.84,78.9072 410.5,70C 408.564,69.187 406.564,68.687 404.5,68.5C 404.5,67.5 404.5,66.5 404.5,65.5C 401.208,65.8804 398.875,64.5471 397.5,61.5C 401.687,59.9348 406.02,59.2681 410.5,59.5 Z"/></g>
<g><path style="opacity:1" fill="#f29649" d="M 378.5,65.5 C 380.169,72.8789 381.836,80.2122 383.5,87.5C 383.915,91.3751 383.415,95.0418 382,98.5C 380.491,95.0535 378.991,91.7202 377.5,88.5C 377.737,87.209 377.404,86.209 376.5,85.5C 375.182,79.5582 374.182,73.5582 373.5,67.5C 375.514,67.6085 377.18,66.9418 378.5,65.5 Z"/></g>
<g><path style="opacity:1" fill="#359b87" d="M 435.5,74.5 C 436.754,76.3569 436.754,78.3569 435.5,80.5C 438.315,86.0776 442.648,88.0776 448.5,86.5C 448.559,89.9618 447.559,92.9618 445.5,95.5C 440.688,95.0494 436.355,93.5494 432.5,91C 431.663,89.9887 431.33,88.8221 431.5,87.5C 430.178,87.33 429.011,87.6634 428,88.5C 427.855,84.2997 429.689,81.133 433.5,79C 432.906,78.5357 432.239,78.369 431.5,78.5C 432.5,76.8333 433.833,75.5 435.5,74.5 Z"/></g>
<g><path style="opacity:1" fill="#2e868c" d="M 389.5,60.5 C 390.763,65.7949 391.93,71.1282 393,76.5C 395.332,77.8523 397.499,80.019 399.5,83C 402.371,83.1308 404.705,84.2975 406.5,86.5C 408.556,84.9806 410.89,84.1472 413.5,84C 414.693,81.9733 416.36,80.4733 418.5,79.5C 419.107,79.6236 419.44,79.9569 419.5,80.5C 416.834,83.9988 413.667,86.9988 410,89.5C 409.978,92.4697 411.478,93.6363 414.5,93C 417.162,90.0153 420.162,87.5153 423.5,85.5C 424.239,85.369 424.906,85.5357 425.5,86C 421.963,89.0396 418.629,92.2062 415.5,95.5C 416.242,96.2868 417.075,96.9535 418,97.5C 419.813,97.4066 421.646,97.0733 423.5,96.5C 425,96.4528 426,97.1195 426.5,98.5C 422.541,99.3265 418.541,99.8265 414.5,100C 414.043,100.414 413.709,100.914 413.5,101.5C 422.816,102.665 432.149,102.832 441.5,102C 444.629,99.7388 445.629,100.239 444.5,103.5C 429.865,104.617 415.199,104.783 400.5,104C 399.975,103.308 399.308,102.808 398.5,102.5C 394.32,89.797 390.654,76.9636 387.5,64C 387.011,62.4477 387.678,61.281 389.5,60.5 Z"/></g>
<g><path style="opacity:1" fill="#2e8d8a" d="M 431.5,78.5 C 432.239,78.369 432.906,78.5357 433.5,79C 429.689,81.133 427.855,84.2997 428,88.5C 429.011,87.6634 430.178,87.33 431.5,87.5C 431.33,88.8221 431.663,89.9887 432.5,91C 436.355,93.5494 440.688,95.0494 445.5,95.5C 447.559,92.9618 448.559,89.9618 448.5,86.5C 448.5,85.8333 448.833,85.5 449.5,85.5C 450.167,85.5 450.5,85.8333 450.5,86.5C 449.65,91.2321 448.484,95.8988 447,100.5C 446.623,101.942 445.79,102.942 444.5,103.5C 445.629,100.239 444.629,99.7388 441.5,102C 432.149,102.832 422.816,102.665 413.5,101.5C 413.709,100.914 414.043,100.414 414.5,100C 418.541,99.8265 422.541,99.3265 426.5,98.5C 426,97.1195 425,96.4528 423.5,96.5C 421.646,97.0733 419.813,97.4066 418,97.5C 417.075,96.9535 416.242,96.2868 415.5,95.5C 418.629,92.2062 421.963,89.0396 425.5,86C 424.906,85.5357 424.239,85.369 423.5,85.5C 425.751,82.7052 428.418,80.3719 431.5,78.5 Z"/></g>
<g><path style="opacity:0.311" fill="#59897e" d="M 389.5,58.5 C 389.5,58.8333 389.5,59.1667 389.5,59.5C 389.5,59.8333 389.5,60.1667 389.5,60.5C 387.678,61.281 387.011,62.4477 387.5,64C 390.654,76.9636 394.32,89.797 398.5,102.5C 399.308,102.808 399.975,103.308 400.5,104C 415.199,104.783 429.865,104.617 444.5,103.5C 444.082,104.222 443.416,104.722 442.5,105C 427.455,105.817 412.455,105.65 397.5,104.5C 392.99,90.9646 389.323,77.1313 386.5,63C 386.522,60.8171 387.522,59.3171 389.5,58.5 Z"/></g>
<g><path style="opacity:0.22" fill="#bc8466" d="M 384.5,87.5 C 386.741,95.2829 389.074,103.116 391.5,111C 406.833,111.333 422.167,111.667 437.5,112C 438.056,112.383 438.389,112.883 438.5,113.5C 438.167,113.5 437.833,113.5 437.5,113.5C 421.83,113.667 406.163,113.5 390.5,113C 389.107,111.829 388.273,110.329 388,108.5C 386.348,101.565 385.182,94.5654 384.5,87.5 Z"/></g>
<g><path style="opacity:1" fill="#ee834e" d="M 383.5,87.5 C 383.833,87.5 384.167,87.5 384.5,87.5C 385.182,94.5654 386.348,101.565 388,108.5C 388.273,110.329 389.107,111.829 390.5,113C 406.163,113.5 421.83,113.667 437.5,113.5C 441.833,118.659 441.5,123.493 436.5,128C 428.739,130.078 423.739,127.244 421.5,119.5C 416.198,118.337 410.864,118.171 405.5,119C 403.639,122.401 401.305,125.401 398.5,128C 391.839,130.015 387.339,127.848 385,121.5C 382.721,110.512 380.221,99.5121 377.5,88.5C 378.991,91.7202 380.491,95.0535 382,98.5C 383.415,95.0418 383.915,91.3751 383.5,87.5 Z"/></g>
<g><path style="opacity:0.078" fill="#de9070" d="M 376.5,85.5 C 377.404,86.209 377.737,87.209 377.5,88.5C 380.221,99.5121 382.721,110.512 385,121.5C 387.339,127.848 391.839,130.015 398.5,128C 401.305,125.401 403.639,122.401 405.5,119C 410.864,118.171 416.198,118.337 421.5,119.5C 423.739,127.244 428.739,130.078 436.5,128C 441.5,123.493 441.833,118.659 437.5,113.5C 437.833,113.5 438.167,113.5 438.5,113.5C 441.441,114.803 442.774,117.136 442.5,120.5C 441.956,126.879 438.456,130.546 432,131.5C 426,130.665 422.5,127.331 421.5,121.5C 416.125,121.172 410.792,121.505 405.5,122.5C 401.132,130.846 394.799,132.679 386.5,128C 384.932,125.696 383.765,123.196 383,120.5C 380.513,110.554 378.346,100.554 376.5,90.5C 376.5,88.8333 376.5,87.1667 376.5,85.5 Z"/></g>
<g><path style="opacity:0.995" fill="#fcfcfc" d="M 389.5,136.5 C 394.844,136.334 400.177,136.501 405.5,137C 406.667,137.5 407.5,138.333 408,139.5C 408.667,163.167 408.667,186.833 408,210.5C 402.928,232.239 389.262,243.905 367,245.5C 341.463,243.13 327.963,229.13 326.5,203.5C 328.298,178.869 341.465,165.202 366,162.5C 372.812,162.994 379.312,164.661 385.5,167.5C 386.332,157.851 386.832,148.184 387,138.5C 387.995,137.934 388.828,137.267 389.5,136.5 Z M 361.5,185.5 C 381.114,184.287 388.614,193.287 384,212.5C 378.26,221.859 370.094,224.693 359.5,221C 354.6,219.098 351.433,215.598 350,210.5C 347.057,198.757 350.891,190.423 361.5,185.5 Z"/></g>
<g><path style="opacity:0.997" fill="#fcfcfc" d="M 424.5,135.5 C 428.75,136.272 433.083,136.772 437.5,137C 438,137.5 438.5,138 439,138.5C 440.738,148.016 440.904,157.516 439.5,167C 457.714,160.184 472.88,164.35 485,179.5C 487.219,183.271 488.885,187.271 490,191.5C 490.667,207.833 490.667,224.167 490,240.5C 489.626,241.416 489.126,242.25 488.5,243C 482.5,243.667 476.5,243.667 470.5,243C 469.667,242.167 468.833,241.333 468,240.5C 467.667,225.167 467.333,209.833 467,194.5C 461.577,186.352 454.411,184.519 445.5,189C 443.383,190.731 441.883,192.898 441,195.5C 440.667,210.5 440.333,225.5 440,240.5C 439.167,241.333 438.333,242.167 437.5,243C 431.5,243.667 425.5,243.667 419.5,243C 419,242.5 418.5,242 418,241.5C 417.333,207.5 417.333,173.5 418,139.5C 419.748,137.372 421.915,136.039 424.5,135.5 Z"/></g>
<g><path style="opacity:0.995" fill="#fcfcfc" d="M 62.5,140.5 C 70.5437,140.72 76.377,144.387 80,151.5C 80.1705,156.864 80.6705,162.198 81.5,167.5C 103.318,158.16 121.151,163.16 135,182.5C 143.268,199.88 141.602,216.214 130,231.5C 111.472,248.736 91.9717,249.903 71.5,235C 64.8437,228.522 60.677,220.689 59,211.5C 57.5187,188.503 57.6853,165.503 59.5,142.5C 60.7387,142.058 61.7387,141.391 62.5,140.5 Z M 92.5,185.5 C 110.467,183.634 118.633,191.634 117,209.5C 112.694,220.061 104.86,224.228 93.5,222C 80.7143,215.378 77.5476,205.544 84,192.5C 86.4412,189.546 89.2745,187.213 92.5,185.5 Z"/></g>
<g><path style="opacity:0.99" fill="#fbfbfb" d="M 275.5,163.5 C 293.709,161.686 307.209,168.686 316,184.5C 318.941,195.964 320.108,207.631 319.5,219.5C 325.551,240.275 318.385,247.941 298,242.5C 296.698,227.259 296.031,211.926 296,196.5C 291.304,186.218 283.804,183.718 273.5,189C 271.106,190.952 269.606,193.452 269,196.5C 268.818,211.545 268.318,226.545 267.5,241.5C 266.975,242.192 266.308,242.692 265.5,243C 259.833,243.667 254.167,243.667 248.5,243C 247.667,242.167 246.833,241.333 246,240.5C 245.333,226.833 245.333,213.167 246,199.5C 248.079,180.939 257.913,168.939 275.5,163.5 Z"/></g>
<g><path style="opacity:0.995" fill="#fcfcfc" d="M 501.5,164.5 C 506.844,164.334 512.177,164.501 517.5,165C 518.416,165.374 519.25,165.874 520,166.5C 521.286,181.766 521.953,197.099 522,212.5C 523.623,218.952 527.79,222.285 534.5,222.5C 541.153,222.007 545.653,218.674 548,212.5C 548.333,197.5 548.667,182.5 549,167.5C 549.833,166.667 550.667,165.833 551.5,165C 557.5,164.333 563.5,164.333 569.5,165C 570,165.5 570.5,166 571,166.5C 571.667,182.5 571.667,198.5 571,214.5C 565.269,235.775 551.435,245.942 529.5,245C 512.667,241.5 502.5,231.333 499,214.5C 498.333,198.833 498.333,183.167 499,167.5C 500.045,166.627 500.878,165.627 501.5,164.5 Z"/></g>
<g><path style="opacity:0.518" fill="#edaf75" d="M 236.5,216.5 C 236.5,214.833 236.5,213.167 236.5,211.5C 236.822,205.642 236.489,199.975 235.5,194.5C 234.656,187.034 231.656,180.701 226.5,175.5C 220.743,167.106 212.743,161.94 202.5,160C 193.228,158.744 184.228,159.577 175.5,162.5C 171.119,164.684 167.119,167.35 163.5,170.5C 159.613,173.272 156.946,176.939 155.5,181.5C 153.613,183.789 152.279,186.455 151.5,189.5C 150.715,191.374 150.048,193.374 149.5,195.5C 149.167,195.5 148.833,195.5 148.5,195.5C 152.459,173.043 165.792,160.21 188.5,157C 214.375,156.551 230.875,168.718 238,193.5C 238.667,199.833 238.667,206.167 238,212.5C 237.79,214.058 237.29,215.391 236.5,216.5 Z"/></g>
<g><path style="opacity:1" fill="#f7a645" d="M 226.5,175.5 C 227.536,177.391 227.536,179.224 226.5,181C 226.167,181.167 225.833,181.333 225.5,181.5C 224.719,180.271 224.219,178.938 224,177.5C 223.395,179.481 222.395,179.815 221,178.5C 219.915,179.293 218.748,179.96 217.5,180.5C 214.371,173.602 209.038,170.935 201.5,172.5C 199.253,171.594 197.253,170.261 195.5,168.5C 194.707,168.931 193.873,169.265 193,169.5C 191.604,168.606 190.104,167.939 188.5,167.5C 183.091,170.252 177.757,170.085 172.5,167C 173.748,165.6 174.748,164.1 175.5,162.5C 184.228,159.577 193.228,158.744 202.5,160C 212.743,161.94 220.743,167.106 226.5,175.5 Z"/></g>
<g><path style="opacity:1" fill="#f69d47" d="M 175.5,162.5 C 174.748,164.1 173.748,165.6 172.5,167C 177.757,170.085 183.091,170.252 188.5,167.5C 190.104,167.939 191.604,168.606 193,169.5C 193.873,169.265 194.707,168.931 195.5,168.5C 197.253,170.261 199.253,171.594 201.5,172.5C 209.038,170.935 214.371,173.602 217.5,180.5C 218.748,179.96 219.915,179.293 221,178.5C 222.395,179.815 223.395,179.481 224,177.5C 224.219,178.938 224.719,180.271 225.5,181.5C 225.833,181.333 226.167,181.167 226.5,181C 227.536,179.224 227.536,177.391 226.5,175.5C 231.656,180.701 234.656,187.034 235.5,194.5C 235.565,194.938 235.399,195.272 235,195.5C 231.657,195.352 229.657,193.685 229,190.5C 228.667,190.833 228.333,191.167 228,191.5C 225.444,188.47 222.278,186.303 218.5,185C 216.279,181.06 212.946,178.893 208.5,178.5C 208.256,181.263 206.923,183.429 204.5,185C 201.74,185.674 199.073,186.507 196.5,187.5C 196.012,181.497 194.512,181.164 192,186.5C 189.886,181.383 186.219,178.05 181,176.5C 179.93,176.528 179.097,176.861 178.5,177.5C 178.167,177.5 177.833,177.5 177.5,177.5C 176.081,176.549 174.415,176.216 172.5,176.5C 170.738,176.643 169.071,176.309 167.5,175.5C 166.38,176.833 165.047,177.333 163.5,177C 162.395,174.88 162.395,172.713 163.5,170.5C 167.119,167.35 171.119,164.684 175.5,162.5 Z"/></g>
<g><path style="opacity:1" fill="#f18f52" d="M 163.5,170.5 C 162.395,172.713 162.395,174.88 163.5,177C 165.047,177.333 166.38,176.833 167.5,175.5C 169.071,176.309 170.738,176.643 172.5,176.5C 168.494,180.839 164.494,185.172 160.5,189.5C 160.06,188.302 159.727,187.135 159.5,186C 157.865,185.46 156.532,185.96 155.5,187.5C 154.481,185.54 154.481,183.54 155.5,181.5C 156.946,176.939 159.613,173.272 163.5,170.5 Z"/></g>
<g><path style="opacity:1" fill="#e1926e" d="M 172.5,190.5 C 178.917,195.443 181.917,193.776 181.5,185.5C 179.143,185.337 176.81,185.503 174.5,186C 174.026,187.729 173.026,188.895 171.5,189.5C 172.857,182.967 176.524,181.134 182.5,184C 185.739,191.186 183.406,194.852 175.5,195C 173.859,193.871 172.859,192.371 172.5,190.5 Z"/></g>
<g><path style="opacity:1" fill="#f19354" d="M 178.5,177.5 C 179.097,176.861 179.93,176.528 181,176.5C 186.219,178.05 189.886,181.383 192,186.5C 194.512,181.164 196.012,181.497 196.5,187.5C 199.073,186.507 201.74,185.674 204.5,185C 206.923,183.429 208.256,181.263 208.5,178.5C 212.946,178.893 216.279,181.06 218.5,185C 222.278,186.303 225.444,188.47 228,191.5C 228.333,191.167 228.667,190.833 229,190.5C 229.657,193.685 231.657,195.352 235,195.5C 235.399,195.272 235.565,194.938 235.5,194.5C 236.489,199.975 236.822,205.642 236.5,211.5C 235.662,211.842 235.328,212.508 235.5,213.5C 234.08,214.866 232.58,216.2 231,217.5C 228.351,216.197 225.684,214.864 223,213.5C 222.667,214.167 222.333,214.833 222,215.5C 220.985,209.331 217.485,205.165 211.5,203C 209.613,202.22 207.946,202.387 206.5,203.5C 203.579,203.146 201.246,204.146 199.5,206.5C 198.167,205.167 198.167,203.833 199.5,202.5C 201.5,200.5 203.5,198.5 205.5,196.5C 205.333,196.167 205.167,195.833 205,195.5C 204,196.5 203,197.5 202,198.5C 201.601,198.272 201.435,197.938 201.5,197.5C 205.63,192.869 209.963,188.369 214.5,184C 213.601,182.764 212.434,181.93 211,181.5C 205.28,186.609 199.78,191.942 194.5,197.5C 194.565,197.062 194.399,196.728 194,196.5C 193.292,197.381 192.458,198.047 191.5,198.5C 186.846,198.605 186.346,197.271 190,194.5C 190.765,192.934 190.598,191.601 189.5,190.5C 189.108,183.439 185.442,179.105 178.5,177.5 Z"/></g>
<g><path style="opacity:1" fill="#f18557" d="M 172.5,190.5 C 171.833,190.5 171.5,190.167 171.5,189.5C 173.026,188.895 174.026,187.729 174.5,186C 176.81,185.503 179.143,185.337 181.5,185.5C 181.917,193.776 178.917,195.443 172.5,190.5 Z"/></g>
<g><path style="opacity:1" fill="#ed895d" d="M 172.5,176.5 C 174.415,176.216 176.081,176.549 177.5,177.5C 170.386,178.945 167.052,183.279 167.5,190.5C 165.899,189.357 165.233,190.024 165.5,192.5C 165.39,194.374 166.056,195.874 167.5,197C 165.671,197.273 164.171,198.107 163,199.5C 161.898,197.619 160.565,195.952 159,194.5C 157.607,195.615 156.107,196.115 154.5,196C 153.62,193.741 152.62,191.575 151.5,189.5C 152.279,186.455 153.613,183.789 155.5,181.5C 154.481,183.54 154.481,185.54 155.5,187.5C 156.532,185.96 157.865,185.46 159.5,186C 159.727,187.135 160.06,188.302 160.5,189.5C 164.494,185.172 168.494,180.839 172.5,176.5 Z"/></g>
<g><path style="opacity:1" fill="#ed8066" d="M 151.5,189.5 C 152.62,191.575 153.62,193.741 154.5,196C 156.107,196.115 157.607,195.615 159,194.5C 160.565,195.952 161.898,197.619 163,199.5C 164.171,198.107 165.671,197.273 167.5,197C 166.056,195.874 165.39,194.374 165.5,192.5C 165.233,190.024 165.899,189.357 167.5,190.5C 168.444,196.111 171.777,199.444 177.5,200.5C 183.214,199.008 187.214,195.675 189.5,190.5C 190.598,191.601 190.765,192.934 190,194.5C 186.346,197.271 186.846,198.605 191.5,198.5C 187.704,202.798 183.704,206.964 179.5,211C 177.19,211.497 174.857,211.663 172.5,211.5C 172.5,210.167 172.5,208.833 172.5,207.5C 170.088,207.244 168.421,208.244 167.5,210.5C 165.892,207.409 163.559,206.743 160.5,208.5C 157.439,207.317 154.439,205.984 151.5,204.5C 150.818,205.243 150.151,205.909 149.5,206.5C 149.5,202.833 149.5,199.167 149.5,195.5C 150.048,193.374 150.715,191.374 151.5,189.5 Z"/></g>
<g><path style="opacity:0.65" fill="#e27d76" d="M 206.5,203.5 C 204.924,204.143 203.59,205.143 202.5,206.5C 197.363,211.164 196.197,216.831 199,223.5C 203.398,227.826 208.231,228.826 213.5,226.5C 213.842,227.338 214.508,227.672 215.5,227.5C 203.964,232.726 196.964,228.892 194.5,216C 195.077,213.863 195.41,211.696 195.5,209.5C 194.448,209.351 193.448,209.517 192.5,210C 189.707,213.105 187.04,216.272 184.5,219.5C 182.983,219.511 181.816,220.177 181,221.5C 180.601,221.272 180.435,220.938 180.5,220.5C 187.159,212.508 194.159,204.841 201.5,197.5C 201.435,197.938 201.601,198.272 202,198.5C 203,197.5 204,196.5 205,195.5C 205.167,195.833 205.333,196.167 205.5,196.5C 203.5,198.5 201.5,200.5 199.5,202.5C 198.167,203.833 198.167,205.167 199.5,206.5C 201.246,204.146 203.579,203.146 206.5,203.5 Z"/></g>
<g><path style="opacity:1" fill="#ee7973" d="M 194.5,197.5 C 187.843,204.931 181.01,212.264 174,219.5C 173.51,220.793 173.343,222.127 173.5,223.5C 171.623,222.429 170.956,221.095 171.5,219.5C 170.833,219.833 170.167,220.167 169.5,220.5C 166.075,219.909 163.075,218.575 160.5,216.5C 158.626,216.39 157.126,217.056 156,218.5C 155.092,216.561 153.592,215.561 151.5,215.5C 150.656,212.655 149.99,209.655 149.5,206.5C 150.151,205.909 150.818,205.243 151.5,204.5C 154.439,205.984 157.439,207.317 160.5,208.5C 163.559,206.743 165.892,207.409 167.5,210.5C 168.421,208.244 170.088,207.244 172.5,207.5C 172.5,208.833 172.5,210.167 172.5,211.5C 174.857,211.663 177.19,211.497 179.5,211C 183.704,206.964 187.704,202.798 191.5,198.5C 192.458,198.047 193.292,197.381 194,196.5C 194.399,196.728 194.565,197.062 194.5,197.5 Z"/></g>
<g><path style="opacity:1" fill="#ef8560" d="M 235.5,213.5 C 234.446,218.689 232.446,223.356 229.5,227.5C 227.5,228.167 225.5,228.833 223.5,229.5C 222.683,226.521 221.849,223.521 221,220.5C 220.093,223.572 218.26,225.905 215.5,227.5C 214.508,227.672 213.842,227.338 213.5,226.5C 219.507,222.517 221.007,217.183 218,210.5C 213.813,205.575 208.646,204.242 202.5,206.5C 203.59,205.143 204.924,204.143 206.5,203.5C 207.946,202.387 209.613,202.22 211.5,203C 217.485,205.165 220.985,209.331 222,215.5C 222.333,214.833 222.667,214.167 223,213.5C 225.684,214.864 228.351,216.197 231,217.5C 232.58,216.2 234.08,214.866 235.5,213.5 Z"/></g>
<g><path style="opacity:0.812" fill="#e4806f" d="M 206.5,209.5 C 212.02,209.355 215.02,212.021 215.5,217.5C 213.57,223.38 209.903,224.88 204.5,222C 200.627,217.204 201.294,213.038 206.5,209.5 Z"/></g>
<g><path style="opacity:1" fill="#ef6d7d" d="M 151.5,215.5 C 153.592,215.561 155.092,216.561 156,218.5C 157.126,217.056 158.626,216.39 160.5,216.5C 163.075,218.575 166.075,219.909 169.5,220.5C 170.167,220.167 170.833,219.833 171.5,219.5C 170.956,221.095 171.623,222.429 173.5,223.5C 176.438,223.727 178.771,222.727 180.5,220.5C 180.435,220.938 180.601,221.272 181,221.5C 181.816,220.177 182.983,219.511 184.5,219.5C 183.438,220.575 183.438,221.575 184.5,222.5C 186.839,221.276 189.172,221.276 191.5,222.5C 189.861,223.916 189.027,225.583 189,227.5C 191.128,227.073 193.295,227.573 195.5,229C 196.795,231.758 198.461,234.258 200.5,236.5C 202.135,237.681 203.802,237.681 205.5,236.5C 206.197,238.385 207.197,238.718 208.5,237.5C 209.452,239.045 209.785,240.712 209.5,242.5C 210.5,242.5 211.5,242.5 212.5,242.5C 211.71,243.401 210.71,244.068 209.5,244.5C 196,248.061 183,246.894 170.5,241C 168.254,239.743 166.921,237.91 166.5,235.5C 165.127,235.657 163.793,235.49 162.5,235C 159.873,232.22 157.373,229.386 155,226.5C 153.895,222.797 152.728,219.131 151.5,215.5 Z"/></g>
<g><path style="opacity:1" fill="#f07070" d="M 215.5,227.5 C 218.26,225.905 220.093,223.572 221,220.5C 221.849,223.521 222.683,226.521 223.5,229.5C 225.5,228.833 227.5,228.167 229.5,227.5C 225.374,234.296 219.707,239.296 212.5,242.5C 211.5,242.5 210.5,242.5 209.5,242.5C 209.785,240.712 209.452,239.045 208.5,237.5C 207.197,238.718 206.197,238.385 205.5,236.5C 203.802,237.681 202.135,237.681 200.5,236.5C 198.461,234.258 196.795,231.758 195.5,229C 193.295,227.573 191.128,227.073 189,227.5C 189.027,225.583 189.861,223.916 191.5,222.5C 189.172,221.276 186.839,221.276 184.5,222.5C 183.438,221.575 183.438,220.575 184.5,219.5C 187.04,216.272 189.707,213.105 192.5,210C 193.448,209.517 194.448,209.351 195.5,209.5C 195.41,211.696 195.077,213.863 194.5,216C 196.964,228.892 203.964,232.726 215.5,227.5 Z"/></g>
<g><path style="opacity:0.661" fill="#ea8e8d" d="M 236.5,211.5 C 236.5,213.167 236.5,214.833 236.5,216.5C 231.617,233.384 220.617,243.717 203.5,247.5C 205.5,246.5 207.5,245.5 209.5,244.5C 210.71,244.068 211.71,243.401 212.5,242.5C 219.707,239.296 225.374,234.296 229.5,227.5C 232.446,223.356 234.446,218.689 235.5,213.5C 235.328,212.508 235.662,211.842 236.5,211.5 Z"/></g>
<g><path style="opacity:1" fill="#e47d8e" d="M 148.5,195.5 C 148.833,195.5 149.167,195.5 149.5,195.5C 149.5,199.167 149.5,202.833 149.5,206.5C 149.99,209.655 150.656,212.655 151.5,215.5C 152.728,219.131 153.895,222.797 155,226.5C 157.373,229.386 159.873,232.22 162.5,235C 163.793,235.49 165.127,235.657 166.5,235.5C 166.921,237.91 168.254,239.743 170.5,241C 183,246.894 196,248.061 209.5,244.5C 207.5,245.5 205.5,246.5 203.5,247.5C 179.83,251.734 162.33,243.067 151,221.5C 147.665,212.916 146.832,204.25 148.5,195.5 Z"/></g>
</svg>
