<?xml version="1.0" encoding="UTF-8"?>
<!DOCTYPE svg PUBLIC "-//W3C//DTD SVG 1.1//EN" "http://www.w3.org/Graphics/SVG/1.1/DTD/svg11.dtd">
<svg xmlns="http://www.w3.org/2000/svg" version="1.1" width="768px" height="768px" style="shape-rendering:geometricPrecision; text-rendering:geometricPrecision; image-rendering:optimizeQuality; fill-rule:evenodd; clip-rule:evenodd" xmlns:xlink="http://www.w3.org/1999/xlink">
<g><path style="opacity:0.981" fill="#fcfcfc" d="M 190.5,276.5 C 195.179,276.334 199.845,276.501 204.5,277C 205.931,277.465 207.097,278.299 208,279.5C 208.954,305.874 208.621,332.208 207,358.5C 199.874,379.15 185.374,388.983 163.5,388C 157.363,377.262 148.029,372.262 135.5,373C 125.282,359.145 123.782,344.312 131,328.5C 143.907,307.976 161.741,301.809 184.5,310C 185,309.5 185.5,309 186,308.5C 186.333,298.833 186.667,289.167 187,279.5C 188.145,278.364 189.312,277.364 190.5,276.5 Z M 163.5,328.5 C 180.805,328.775 187.972,337.442 185,354.5C 179.834,364.66 171.667,368.16 160.5,365C 152.919,361.685 148.919,355.852 148.5,347.5C 149.472,337.873 154.472,331.54 163.5,328.5 Z"/></g>
<g><path style="opacity:0.999" fill="#fcfcfc" d="M 407.5,278.5 C 408.316,304.791 408.816,331.124 409,357.5C 409.232,358.737 409.732,359.737 410.5,360.5C 415.284,367.384 421.951,370.217 430.5,369C 431.667,369.5 432.5,370.333 433,371.5C 433.667,376.833 433.667,382.167 433,387.5C 409.535,392.925 394.535,383.925 388,360.5C 387.333,333.5 387.333,306.5 388,279.5C 390.827,277.039 394.16,276.039 398,276.5C 401.401,276.331 404.568,276.998 407.5,278.5 Z"/></g>
<g><path style="opacity:0.859" fill="#d9ac71" d="M 449.5,310.5 C 449.5,312.167 449.5,313.833 449.5,315.5C 448.712,312.113 447.712,308.78 446.5,305.5C 446.283,301.295 445.617,297.295 444.5,293.5C 444.141,291.629 443.141,290.129 441.5,289C 434.508,288.5 427.508,288.334 420.5,288.5C 420.5,288.167 420.5,287.833 420.5,287.5C 428.055,286.13 435.721,286.297 443.5,288C 446.97,295.041 448.97,302.541 449.5,310.5 Z"/></g>
<g><path style="opacity:1" fill="#efab4b" d="M 420.5,288.5 C 427.508,288.334 434.508,288.5 441.5,289C 443.141,290.129 444.141,291.629 444.5,293.5C 442.076,293.808 439.743,293.474 437.5,292.5C 438.376,291.749 439.376,291.249 440.5,291C 433.842,290.5 427.175,290.334 420.5,290.5C 420.5,291.5 420.5,292.5 420.5,293.5C 425.695,293.179 430.695,293.513 435.5,294.5C 430.833,294.5 426.167,294.5 421.5,294.5C 419.516,294.516 418.516,293.516 418.5,291.5C 418.453,289.962 419.12,288.962 420.5,288.5 Z"/></g>
<g><path style="opacity:1" fill="#f4a644" d="M 444.5,293.5 C 445.617,297.295 446.283,301.295 446.5,305.5C 445.713,307.104 444.38,307.771 442.5,307.5C 441.662,307.158 441.328,306.492 441.5,305.5C 440.826,302.474 439.993,299.474 439,296.5C 438.184,295.177 437.017,294.511 435.5,294.5C 430.695,293.513 425.695,293.179 420.5,293.5C 420.5,292.5 420.5,291.5 420.5,290.5C 427.175,290.334 433.842,290.5 440.5,291C 439.376,291.249 438.376,291.749 437.5,292.5C 439.743,293.474 442.076,293.808 444.5,293.5 Z"/></g>
<g><path style="opacity:0.165" fill="#e5c091" d="M 420.5,287.5 C 420.5,287.833 420.5,288.167 420.5,288.5C 419.12,288.962 418.453,289.962 418.5,291.5C 418.516,293.516 419.516,294.516 421.5,294.5C 421.5,295.167 421.5,295.833 421.5,296.5C 415.299,293.945 414.965,290.945 420.5,287.5 Z"/></g>
<g><path style="opacity:0.45" fill="#e1a864" d="M 421.5,294.5 C 426.167,294.5 430.833,294.5 435.5,294.5C 437.017,294.511 438.184,295.177 439,296.5C 439.993,299.474 440.826,302.474 441.5,305.5C 440.596,306.209 440.263,307.209 440.5,308.5C 438.898,304.761 437.898,300.761 437.5,296.5C 432.167,296.5 426.833,296.5 421.5,296.5C 421.5,295.833 421.5,295.167 421.5,294.5 Z"/></g>
<g><path style="opacity:0.144" fill="#5cb09c" d="M 460.5,298.5 C 460.5,298.167 460.5,297.833 460.5,297.5C 468.5,297.5 476.5,297.5 484.5,297.5C 488.5,298.167 492.5,298.833 496.5,299.5C 490.833,299.5 485.167,299.5 479.5,299.5C 473.355,298.51 467.022,298.177 460.5,298.5 Z"/></g>
<g><path style="opacity:0.159" fill="#6abc9f" d="M 484.5,297.5 C 497.932,297.037 511.265,297.537 524.5,299C 525.43,300.194 526.097,301.527 526.5,303C 524.686,311.111 522.353,318.945 519.5,326.5C 519.5,325.833 519.167,325.5 518.5,325.5C 518.5,324.833 518.5,324.167 518.5,323.5C 519.183,320.453 520.183,317.453 521.5,314.5C 522.369,311.22 523.036,307.887 523.5,304.5C 523.489,302.955 523.156,301.622 522.5,300.5C 514.016,299.507 505.349,299.174 496.5,299.5C 492.5,298.833 488.5,298.167 484.5,297.5 Z"/></g>
<g><path style="opacity:1" fill="#4cb780" d="M 496.5,299.5 C 505.349,299.174 514.016,299.507 522.5,300.5C 515.492,300.334 508.492,300.5 501.5,301C 502.939,301.991 503.939,303.324 504.5,305C 507.449,307.307 510.782,308.807 514.5,309.5C 515.035,311.271 515.869,311.604 517,310.5C 517.748,312.751 519.248,314.084 521.5,314.5C 520.183,317.453 519.183,320.453 518.5,323.5C 516.602,321.617 514.769,319.617 513,317.5C 511.951,318.517 510.784,318.684 509.5,318C 508.343,314.444 506.343,311.444 503.5,309C 501.402,308.322 499.402,308.489 497.5,309.5C 497.64,307.876 496.973,306.71 495.5,306C 495.833,305.667 496.167,305.333 496.5,305C 491.427,304.242 490.761,302.742 494.5,300.5C 495.492,300.672 496.158,300.338 496.5,299.5 Z"/></g>
<g><path style="opacity:1" fill="#56be81" d="M 522.5,300.5 C 523.156,301.622 523.489,302.955 523.5,304.5C 523.036,307.887 522.369,311.22 521.5,314.5C 519.248,314.084 517.748,312.751 517,310.5C 515.869,311.604 515.035,311.271 514.5,309.5C 510.782,308.807 507.449,307.307 504.5,305C 503.939,303.324 502.939,301.991 501.5,301C 508.492,300.5 515.492,300.334 522.5,300.5 Z"/></g>
<g><path style="opacity:1" fill="#43b182" d="M 494.5,300.5 C 490.761,302.742 491.427,304.242 496.5,305C 496.167,305.333 495.833,305.667 495.5,306C 496.973,306.71 497.64,307.876 497.5,309.5C 495.088,310.345 492.922,310.345 491,309.5C 487.951,306.289 484.451,303.623 480.5,301.5C 485.12,300.507 489.786,300.173 494.5,300.5 Z"/></g>
<g><path style="opacity:1" fill="#369f88" d="M 471.5,299.5 C 466.199,299.989 465.532,301.822 469.5,305C 470.793,305.49 472.127,305.657 473.5,305.5C 473.5,306.5 473.5,307.5 473.5,308.5C 475.564,308.687 477.564,309.187 479.5,310C 480.991,312.494 482.491,314.994 484,317.5C 485.822,317.032 487.989,316.699 490.5,316.5C 488.919,318.086 486.919,319.086 484.5,319.5C 481.263,317.256 478.096,314.922 475,312.5C 474.667,312.833 474.333,313.167 474,313.5C 472.934,311.901 471.434,310.901 469.5,310.5C 468.643,309.264 467.977,307.931 467.5,306.5C 466.675,305.614 465.675,305.281 464.5,305.5C 463.862,303.54 463.862,301.707 464.5,300C 466.81,299.503 469.143,299.337 471.5,299.5 Z"/></g>
<g><path style="opacity:0.985" fill="#fbfbfb" d="M 268.5,385.5 C 261.082,387.021 253.749,387.355 246.5,386.5C 229.069,382.361 218.903,371.361 216,353.5C 214.814,325.355 228.148,309.355 256,305.5C 273.774,307.218 285.44,316.551 291,333.5C 291.667,336.833 291.667,340.167 291,343.5C 290.535,344.931 289.701,346.097 288.5,347C 278.5,350 268.5,353 258.5,356C 249.11,358.412 244.277,354.912 244,345.5C 245.214,343.951 246.714,342.785 248.5,342C 254.905,340.198 261.239,338.198 267.5,336C 268.5,333.909 267.833,332.243 265.5,331C 245.28,324.882 236.113,332.382 238,353.5C 241.874,363.191 249.041,367.358 259.5,366C 265.069,364.883 269.736,362.216 273.5,358C 275.167,357.333 276.833,357.333 278.5,358C 282.725,361.722 286.392,365.888 289.5,370.5C 284.446,378.196 277.446,383.196 268.5,385.5 Z"/></g>
<g><path style="opacity:0.995" fill="#fcfcfc" d="M 329.5,306.5 C 356.555,304.256 373.055,316.256 379,342.5C 379.667,356.167 379.667,369.833 379,383.5C 378.535,384.931 377.701,386.097 376.5,387C 370.833,387.667 365.167,387.667 359.5,387C 358.299,386.097 357.465,384.931 357,383.5C 335.898,392.821 318.231,388.488 304,370.5C 293.103,349.838 295.936,331.338 312.5,315C 317.712,311.061 323.379,308.227 329.5,306.5 Z M 333.5,328.5 C 354.658,329.47 361.158,339.804 353,359.5C 342.683,369.064 332.683,368.73 323,358.5C 316.748,344.857 320.248,334.857 333.5,328.5 Z"/></g>
<g><path style="opacity:0.61" fill="#5f9a86" d="M 460.5,297.5 C 460.5,297.833 460.5,298.167 460.5,298.5C 459.5,298.833 458.833,299.5 458.5,300.5C 456.678,301.281 456.011,302.448 456.5,304C 458.19,307.621 459.19,311.454 459.5,315.5C 459.5,316.5 459.5,317.5 459.5,318.5C 457.385,312.757 456.218,306.757 456,300.5C 457.129,298.859 458.629,297.859 460.5,297.5 Z"/></g>
<g><path style="opacity:1" fill="#389a8b" d="M 460.5,298.5 C 467.022,298.177 473.355,298.51 479.5,299.5C 476.833,299.5 474.167,299.5 471.5,299.5C 469.143,299.337 466.81,299.503 464.5,300C 463.862,301.707 463.862,303.54 464.5,305.5C 465.675,305.281 466.675,305.614 467.5,306.5C 467.977,307.931 468.643,309.264 469.5,310.5C 471.434,310.901 472.934,311.901 474,313.5C 474.333,313.167 474.667,312.833 475,312.5C 478.096,314.922 481.263,317.256 484.5,319.5C 486.919,319.086 488.919,318.086 490.5,316.5C 492.279,315.426 493.946,314.093 495.5,312.5C 496.107,312.624 496.44,312.957 496.5,313.5C 494.431,316.573 491.764,318.906 488.5,320.5C 487.038,319.529 485.705,319.862 484.5,321.5C 480.418,322.389 476.418,321.722 472.5,319.5C 470.999,318.248 469.332,317.248 467.5,316.5C 466.668,313.765 465.668,311.765 464.5,310.5C 463.5,310.5 462.5,310.5 461.5,310.5C 459.723,307.495 458.723,304.162 458.5,300.5C 458.833,299.5 459.5,298.833 460.5,298.5 Z"/></g>
<g><path style="opacity:1" fill="#3fa885" d="M 471.5,299.5 C 474.167,299.5 476.833,299.5 479.5,299.5C 485.167,299.5 490.833,299.5 496.5,299.5C 496.158,300.338 495.492,300.672 494.5,300.5C 489.786,300.173 485.12,300.507 480.5,301.5C 484.451,303.623 487.951,306.289 491,309.5C 492.922,310.345 495.088,310.345 497.5,309.5C 499.402,308.489 501.402,308.322 503.5,309C 506.343,311.444 508.343,314.444 509.5,318C 510.784,318.684 511.951,318.517 513,317.5C 514.769,319.617 516.602,321.617 518.5,323.5C 518.5,324.167 518.5,324.833 518.5,325.5C 517.833,325.5 517.5,325.833 517.5,326.5C 511.648,328.078 507.315,326.078 504.5,320.5C 505.754,318.357 505.754,316.357 504.5,314.5C 504.288,312.616 503.288,311.283 501.5,310.5C 499.971,311.763 498.305,312.763 496.5,313.5C 496.44,312.957 496.107,312.624 495.5,312.5C 493.946,314.093 492.279,315.426 490.5,316.5C 487.989,316.699 485.822,317.032 484,317.5C 482.491,314.994 480.991,312.494 479.5,310C 477.564,309.187 475.564,308.687 473.5,308.5C 473.5,307.5 473.5,306.5 473.5,305.5C 472.127,305.657 470.793,305.49 469.5,305C 465.532,301.822 466.199,299.989 471.5,299.5 Z"/></g>
<g><path style="opacity:0.47" fill="#da9e6a" d="M 441.5,305.5 C 441.328,306.492 441.662,307.158 442.5,307.5C 443.182,313.558 444.182,319.558 445.5,325.5C 445.5,327.167 445.5,328.833 445.5,330.5C 442.916,323.487 441.249,316.154 440.5,308.5C 440.263,307.209 440.596,306.209 441.5,305.5 Z"/></g>
<g><path style="opacity:1" fill="#2f9287" d="M 461.5,310.5 C 462.5,310.5 463.5,310.5 464.5,310.5C 465.668,311.765 466.668,313.765 467.5,316.5C 469.332,317.248 470.999,318.248 472.5,319.5C 476.418,321.722 480.418,322.389 484.5,321.5C 484.047,322.458 483.381,323.292 482.5,324C 479.89,324.147 477.556,324.981 475.5,326.5C 472.746,324.394 469.746,322.728 466.5,321.5C 465.757,320.092 464.923,318.759 464,317.5C 463.667,317.833 463.333,318.167 463,318.5C 461.748,315.986 461.248,313.32 461.5,310.5 Z"/></g>
<g><path style="opacity:0.598" fill="#f7f3ed" d="M 407.5,278.5 C 408.117,278.611 408.617,278.944 409,279.5C 409.202,306.523 409.702,333.523 410.5,360.5C 409.732,359.737 409.232,358.737 409,357.5C 408.816,331.124 408.316,304.791 407.5,278.5 Z"/></g>
<g><path style="opacity:0.685" fill="#c0986a" d="M 449.5,310.5 C 451.834,315.817 453.167,321.484 453.5,327.5C 453.167,327.5 452.833,327.5 452.5,327.5C 451.136,323.675 450.136,319.675 449.5,315.5C 449.5,313.833 449.5,312.167 449.5,310.5 Z"/></g>
<g><path style="opacity:1" fill="#f29649" d="M 446.5,305.5 C 447.712,308.78 448.712,312.113 449.5,315.5C 450.136,319.675 451.136,323.675 452.5,327.5C 452.5,330.167 452.5,332.833 452.5,335.5C 452.539,336.756 452.039,337.756 451,338.5C 449.491,335.054 447.991,331.72 446.5,328.5C 446.737,327.209 446.404,326.209 445.5,325.5C 444.182,319.558 443.182,313.558 442.5,307.5C 444.38,307.771 445.713,307.104 446.5,305.5 Z"/></g>
<g><path style="opacity:1" fill="#38a087" d="M 504.5,314.5 C 505.754,316.357 505.754,318.357 504.5,320.5C 507.315,326.078 511.648,328.078 517.5,326.5C 517.768,328.099 517.434,329.432 516.5,330.5C 512.777,332.256 509.777,331.422 507.5,328C 503.855,327.856 501.521,326.023 500.5,322.5C 501.263,321.281 502.263,320.281 503.5,319.5C 504.747,316.292 504.413,315.958 502.5,318.5C 501.833,318.5 501.167,318.5 500.5,318.5C 501.5,316.833 502.833,315.5 504.5,314.5 Z"/></g>
<g><path style="opacity:1" fill="#2f8d8b" d="M 458.5,300.5 C 458.723,304.162 459.723,307.495 461.5,310.5C 461.248,313.32 461.748,315.986 463,318.5C 463.333,318.167 463.667,317.833 464,317.5C 464.923,318.759 465.757,320.092 466.5,321.5C 469.746,322.728 472.746,324.394 475.5,326.5C 477.556,324.981 479.89,324.147 482.5,324C 483.381,323.292 484.047,322.458 484.5,321.5C 485.705,319.862 487.038,319.529 488.5,320.5C 486.1,323.903 483.1,326.57 479.5,328.5C 479.953,327.542 480.619,326.708 481.5,326C 480.833,325.833 480.167,325.667 479.5,325.5C 477.093,327.571 474.427,329.238 471.5,330.5C 466.603,330.605 464.603,328.272 465.5,323.5C 464.5,323.5 463.5,323.5 462.5,323.5C 462.88,321.302 462.213,319.635 460.5,318.5C 460.737,317.209 460.404,316.209 459.5,315.5C 459.19,311.454 458.19,307.621 456.5,304C 456.011,302.448 456.678,301.281 458.5,300.5 Z"/></g>
<g><path style="opacity:1" fill="#2d9187" d="M 496.5,325.5 C 496.351,326.552 496.517,327.552 497,328.5C 498.011,327.663 499.178,327.33 500.5,327.5C 500.33,328.822 500.663,329.989 501.5,331C 505.386,333.55 509.719,335.05 514.5,335.5C 514.5,337.167 514.5,338.833 514.5,340.5C 513.041,340.433 511.708,340.766 510.5,341.5C 506.865,341.344 506.532,340.178 509.5,338C 505.546,336.846 501.546,336.013 497.5,335.5C 498.157,332.159 496.824,330.159 493.5,329.5C 494.694,328.201 495.694,326.868 496.5,325.5 Z"/></g>
<g><path style="opacity:1" fill="#349987" d="M 516.5,330.5 C 516.88,332.698 516.213,334.365 514.5,335.5C 509.719,335.05 505.386,333.55 501.5,331C 500.663,329.989 500.33,328.822 500.5,327.5C 499.178,327.33 498.011,327.663 497,328.5C 496.517,327.552 496.351,326.552 496.5,325.5C 497.81,322.527 499.81,320.193 502.5,318.5C 504.413,315.958 504.747,316.292 503.5,319.5C 502.263,320.281 501.263,321.281 500.5,322.5C 501.521,326.023 503.855,327.856 507.5,328C 509.777,331.422 512.777,332.256 516.5,330.5 Z"/></g>
<g><path style="opacity:1" fill="#2b818b" d="M 464.5,332.5 C 466.638,332.703 468.305,333.703 469.5,335.5C 471.375,334.164 472.708,334.664 473.5,337C 475.384,337.216 477.051,337.883 478.5,339C 476.382,339.26 474.716,340.26 473.5,342C 476.482,342.498 479.482,342.665 482.5,342.5C 491.5,342.5 500.5,342.5 509.5,342.5C 496.344,343.496 483.01,343.829 469.5,343.5C 466.128,340.762 464.462,337.095 464.5,332.5 Z"/></g>
<g><path style="opacity:0.56" fill="#d79268" d="M 445.5,325.5 C 446.404,326.209 446.737,327.209 446.5,328.5C 447.5,333.167 448.5,337.833 449.5,342.5C 449.5,344.167 449.5,345.833 449.5,347.5C 447.421,342.122 446.087,336.456 445.5,330.5C 445.5,328.833 445.5,327.167 445.5,325.5 Z"/></g>
<g><path style="opacity:0.484" fill="#bd8d66" d="M 453.5,327.5 C 455.123,331.978 456.456,336.644 457.5,341.5C 456.833,341.167 456.167,340.833 455.5,340.5C 455.672,339.508 455.338,338.842 454.5,338.5C 453.886,334.865 453.552,331.198 453.5,327.5 Z"/></g>
<g><path style="opacity:1" fill="#2d878c" d="M 460.5,318.5 C 462.213,319.635 462.88,321.302 462.5,323.5C 463.5,323.5 464.5,323.5 465.5,323.5C 464.603,328.272 466.603,330.605 471.5,330.5C 474.427,329.238 477.093,327.571 479.5,325.5C 480.167,325.667 480.833,325.833 481.5,326C 480.619,326.708 479.953,327.542 479.5,328.5C 478.166,331.047 478.999,332.714 482,333.5C 485.366,330.632 488.866,327.965 492.5,325.5C 493.239,325.369 493.906,325.536 494.5,326C 490.963,329.04 487.629,332.206 484.5,335.5C 485.242,336.287 486.075,336.953 487,337.5C 488.813,337.407 490.646,337.073 492.5,336.5C 494,336.453 495,337.119 495.5,338.5C 491.541,339.327 487.541,339.827 483.5,340C 482.748,340.671 482.414,341.504 482.5,342.5C 479.482,342.665 476.482,342.498 473.5,342C 474.716,340.26 476.382,339.26 478.5,339C 477.051,337.883 475.384,337.216 473.5,337C 472.708,334.664 471.375,334.164 469.5,335.5C 468.305,333.703 466.638,332.703 464.5,332.5C 462.792,327.973 461.459,323.306 460.5,318.5 Z"/></g>
<g><path style="opacity:1" fill="#e79562" d="M 452.5,327.5 C 452.833,327.5 453.167,327.5 453.5,327.5C 453.552,331.198 453.886,334.865 454.5,338.5C 453.833,337.5 453.167,336.5 452.5,335.5C 452.5,332.833 452.5,330.167 452.5,327.5 Z"/></g>
<g><path style="opacity:0.635" fill="#4d9c97" d="M 518.5,325.5 C 519.167,325.5 519.5,325.833 519.5,326.5C 518.65,331.232 517.484,335.899 516,340.5C 515.623,341.942 514.79,342.942 513.5,343.5C 513.557,342.391 513.89,341.391 514.5,340.5C 514.5,338.833 514.5,337.167 514.5,335.5C 516.213,334.365 516.88,332.698 516.5,330.5C 517.434,329.432 517.768,328.099 517.5,326.5C 517.5,325.833 517.833,325.5 518.5,325.5 Z"/></g>
<g><path style="opacity:1" fill="#2b8989" d="M 500.5,318.5 C 501.167,318.5 501.833,318.5 502.5,318.5C 499.81,320.193 497.81,322.527 496.5,325.5C 495.694,326.868 494.694,328.201 493.5,329.5C 496.824,330.159 498.157,332.159 497.5,335.5C 501.546,336.013 505.546,336.846 509.5,338C 506.532,340.178 506.865,341.344 510.5,341.5C 510.5,342.167 510.167,342.5 509.5,342.5C 500.5,342.5 491.5,342.5 482.5,342.5C 482.414,341.504 482.748,340.671 483.5,340C 487.541,339.827 491.541,339.327 495.5,338.5C 495,337.119 494,336.453 492.5,336.5C 490.646,337.073 488.813,337.407 487,337.5C 486.075,336.953 485.242,336.287 484.5,335.5C 487.629,332.206 490.963,329.04 494.5,326C 493.906,325.536 493.239,325.369 492.5,325.5C 494.751,322.705 497.418,320.372 500.5,318.5 Z"/></g>
<g><path style="opacity:1" fill="#eb8a4e" d="M 446.5,328.5 C 447.991,331.72 449.491,335.054 451,338.5C 452.039,337.756 452.539,336.756 452.5,335.5C 453.167,336.5 453.833,337.5 454.5,338.5C 455.338,338.842 455.672,339.508 455.5,340.5C 456.265,343.096 456.599,345.763 456.5,348.5C 454.376,347.969 452.876,346.635 452,344.5C 452.152,347.447 452.319,350.447 452.5,353.5C 451.393,349.858 450.393,346.191 449.5,342.5C 448.5,337.833 447.5,333.167 446.5,328.5 Z"/></g>
<g><path style="opacity:1" fill="#3e8296" d="M 514.5,340.5 C 513.89,341.391 513.557,342.391 513.5,343.5C 498.693,344.791 484.027,344.791 469.5,343.5C 483.01,343.829 496.344,343.496 509.5,342.5C 510.167,342.5 510.5,342.167 510.5,341.5C 511.708,340.766 513.041,340.433 514.5,340.5 Z"/></g>
<g><path style="opacity:0.303" fill="#58877f" d="M 459.5,315.5 C 460.404,316.209 460.737,317.209 460.5,318.5C 461.459,323.306 462.792,327.973 464.5,332.5C 464.462,337.095 466.128,340.762 469.5,343.5C 484.027,344.791 498.693,344.791 513.5,343.5C 513.082,344.222 512.416,344.722 511.5,345C 496.833,345.667 482.167,345.667 467.5,345C 466.333,344.5 465.5,343.667 465,342.5C 462.852,334.56 461.019,326.56 459.5,318.5C 459.5,317.5 459.5,316.5 459.5,315.5 Z"/></g>
<g><path style="opacity:0.996" fill="#d68761" d="M 455.5,340.5 C 456.167,340.833 456.833,341.167 457.5,341.5C 457.865,344.625 458.698,347.625 460,350.5C 462.381,351.435 464.881,351.768 467.5,351.5C 468.263,352.268 469.263,352.768 470.5,353C 482.674,353.169 494.674,353.669 506.5,354.5C 491.496,354.667 476.496,354.5 461.5,354C 458.887,352.893 457.22,351.06 456.5,348.5C 456.599,345.763 456.265,343.096 455.5,340.5 Z"/></g>
<g><path style="opacity:0.222" fill="#b8846b" d="M 467.5,351.5 C 480.504,351.333 493.504,351.5 506.5,352C 508.384,353.049 509.718,354.549 510.5,356.5C 510.167,356.5 509.833,356.5 509.5,356.5C 508.5,355.833 507.5,355.167 506.5,354.5C 494.674,353.669 482.674,353.169 470.5,353C 469.263,352.768 468.263,352.268 467.5,351.5 Z"/></g>
<g><path style="opacity:1" fill="#ef814d" d="M 456.5,348.5 C 457.22,351.06 458.887,352.893 461.5,354C 476.496,354.5 491.496,354.667 506.5,354.5C 507.5,355.167 508.5,355.833 509.5,356.5C 510.463,361.79 508.796,365.79 504.5,368.5C 497.247,369.588 492.58,366.588 490.5,359.5C 485.198,358.337 479.864,358.171 474.5,359C 472.512,362.501 470.178,365.668 467.5,368.5C 456.993,369.219 451.993,364.219 452.5,353.5C 452.319,350.447 452.152,347.447 452,344.5C 452.876,346.635 454.376,347.969 456.5,348.5 Z"/></g>
<g><path style="opacity:0.68" fill="#e2a080" d="M 509.5,356.5 C 509.833,356.5 510.167,356.5 510.5,356.5C 513.003,364.796 509.836,369.796 501,371.5C 499.272,371.101 497.772,370.434 496.5,369.5C 499.385,369.806 502.052,369.473 504.5,368.5C 508.796,365.79 510.463,361.79 509.5,356.5 Z"/></g>
<g><path style="opacity:0.091" fill="#dc8769" d="M 504.5,368.5 C 502.052,369.473 499.385,369.806 496.5,369.5C 492.635,368.294 490.635,365.627 490.5,361.5C 485.125,361.172 479.792,361.505 474.5,362.5C 473.533,365.129 471.867,367.129 469.5,368.5C 468.833,368.5 468.167,368.5 467.5,368.5C 470.178,365.668 472.512,362.501 474.5,359C 479.864,358.171 485.198,358.337 490.5,359.5C 492.58,366.588 497.247,369.588 504.5,368.5 Z"/></g>
<g><path style="opacity:0.504" fill="#e09375" d="M 449.5,342.5 C 450.393,346.191 451.393,349.858 452.5,353.5C 451.993,364.219 456.993,369.219 467.5,368.5C 468.167,368.5 468.833,368.5 469.5,368.5C 460.733,372.536 454.9,369.869 452,360.5C 450.686,356.246 449.853,351.913 449.5,347.5C 449.5,345.833 449.5,344.167 449.5,342.5 Z"/></g>
<g><path style="opacity:0.992" fill="#fcfcfc" d="M 458.5,376.5 C 463.844,376.334 469.177,376.501 474.5,377C 475.667,377.5 476.5,378.333 477,379.5C 477.667,403.167 477.667,426.833 477,450.5C 471.928,472.239 458.262,483.905 436,485.5C 410.463,483.13 396.963,469.13 395.5,443.5C 397.298,418.869 410.465,405.202 435,402.5C 441.812,402.994 448.312,404.661 454.5,407.5C 455.332,397.851 455.832,388.184 456,378.5C 456.995,377.934 457.828,377.267 458.5,376.5 Z M 430.5,425.5 C 450.114,424.287 457.614,433.287 453,452.5C 447.26,461.859 439.094,464.693 428.5,461C 423.6,459.098 420.433,455.598 419,450.5C 416.057,438.757 419.891,430.423 430.5,425.5 Z"/></g>
<g><path style="opacity:0.992" fill="#fcfcfc" d="M 489.5,377.5 C 494.844,377.334 500.177,377.501 505.5,378C 506,378.5 506.5,379 507,379.5C 507.333,384.5 507.667,389.5 508,394.5C 508.232,395.737 508.732,396.737 509.5,397.5C 509.363,401.114 509.363,404.447 509.5,407.5C 527.392,400.412 542.226,404.412 554,419.5C 556.219,423.271 557.885,427.271 559,431.5C 559.667,447.833 559.667,464.167 559,480.5C 558.626,481.416 558.126,482.25 557.5,483C 551.5,483.667 545.5,483.667 539.5,483C 538.667,482.167 537.833,481.333 537,480.5C 536.667,465.167 536.333,449.833 536,434.5C 530.577,426.352 523.411,424.519 514.5,429C 512.383,430.731 510.883,432.898 510,435.5C 509.667,450.5 509.333,465.5 509,480.5C 508.167,481.333 507.333,482.167 506.5,483C 500.5,483.667 494.5,483.667 488.5,483C 488,482.5 487.5,482 487,481.5C 486.333,447.5 486.333,413.5 487,379.5C 487.417,378.244 488.25,377.577 489.5,377.5 Z"/></g>
<g><path style="opacity:0.992" fill="#fcfcfc" d="M 208.5,438.5 C 208.508,447.833 206.508,456.833 202.5,465.5C 193.659,479.921 180.659,486.421 163.5,485C 143.894,482.06 132.06,470.893 128,451.5C 126.519,428.503 126.685,405.503 128.5,382.5C 137.788,379.554 144.621,382.554 149,391.5C 149.171,396.864 149.671,402.198 150.5,407.5C 172.318,398.16 190.151,403.16 204,422.5C 206.827,427.477 208.327,432.811 208.5,438.5 Z M 161.5,425.5 C 179.467,423.634 187.633,431.634 186,449.5C 181.694,460.061 173.86,464.228 162.5,462C 149.714,455.378 146.548,445.544 153,432.5C 155.441,429.546 158.275,427.213 161.5,425.5 Z"/></g>
<g><path style="opacity:0.856" fill="#f8efe0" d="M 268.5,385.5 C 261.269,388.814 253.935,389.148 246.5,386.5C 253.749,387.355 261.082,387.021 268.5,385.5 Z"/></g>
<g><path style="opacity:0.448" fill="#f4eee8" d="M 509.5,397.5 C 508.732,396.737 508.232,395.737 508,394.5C 507.667,389.5 507.333,384.5 507,379.5C 506.5,379 506,378.5 505.5,378C 500.177,377.501 494.844,377.334 489.5,377.5C 490.878,376.766 492.378,376.099 494,375.5C 498.08,376.3 502.247,376.8 506.5,377C 508.004,378.491 508.837,380.324 509,382.5C 509.499,387.489 509.666,392.489 509.5,397.5 Z"/></g>
<g><path style="opacity:0.622" fill="#eeb372" d="M 305.5,429.5 C 304.833,428.833 304.167,428.167 303.5,427.5C 302.5,426.167 301.5,424.833 300.5,423.5C 299.849,420.197 298.182,417.53 295.5,415.5C 289.811,406.98 281.811,401.98 271.5,400.5C 264.848,397.996 258.182,397.996 251.5,400.5C 249.035,400.767 246.701,401.434 244.5,402.5C 242.118,403.351 240.118,404.684 238.5,406.5C 236.938,406.733 235.605,407.4 234.5,408.5C 234.5,407.833 234.167,407.5 233.5,407.5C 236.039,404.81 239.039,402.643 242.5,401C 268.269,391.7 288.435,398.533 303,421.5C 304.136,424.096 304.969,426.763 305.5,429.5 Z"/></g>
<g><path style="opacity:1" fill="#f2a952" d="M 271.5,400.5 C 264.833,400.5 258.167,400.5 251.5,400.5C 258.182,397.996 264.848,397.996 271.5,400.5 Z"/></g>
<g><path style="opacity:1" fill="#f39e49" d="M 244.5,402.5 C 243.748,404.1 242.748,405.6 241.5,407C 242.858,407.934 244.192,408.768 245.5,409.5C 241.459,409.502 240.792,410.835 243.5,413.5C 245.833,414.833 248.167,414.833 250.5,413.5C 251.909,414.849 253.243,416.182 254.5,417.5C 252.021,416.377 249.688,416.377 247.5,417.5C 247.167,417.5 246.833,417.5 246.5,417.5C 245.081,416.549 243.415,416.216 241.5,416.5C 240.565,413.126 239.565,409.793 238.5,406.5C 240.118,404.684 242.118,403.351 244.5,402.5 Z"/></g>
<g><path style="opacity:0.988" fill="#fbfbfc" d="M 316.5,481.5 C 315.63,468.1 315.297,454.1 315.5,439.5C 317.241,417.288 329.241,405.288 351.5,403.5C 373.296,405.13 385.463,416.796 388,438.5C 388.667,452.5 388.667,466.5 388,480.5C 387.167,481.333 386.333,482.167 385.5,483C 379.251,483.809 373.084,483.642 367,482.5C 365.698,467.259 365.031,451.926 365,436.5C 360.304,426.218 352.804,423.718 342.5,429C 340.106,430.952 338.606,433.452 338,436.5C 337.818,451.545 337.318,466.545 336.5,481.5C 335.975,482.192 335.308,482.692 334.5,483C 328.833,483.667 323.167,483.667 317.5,483C 316.944,482.617 316.611,482.117 316.5,481.5 Z"/></g>
<g><path style="opacity:1" fill="#f7a545" d="M 251.5,400.5 C 258.167,400.5 264.833,400.5 271.5,400.5C 281.811,401.98 289.811,406.98 295.5,415.5C 295.678,416.695 296.011,417.862 296.5,419C 296.387,420.28 295.72,421.113 294.5,421.5C 293.719,420.271 293.219,418.938 293,417.5C 292.395,419.481 291.395,419.815 290,418.5C 288.663,419.765 287.163,420.265 285.5,420C 285.833,419.667 286.167,419.333 286.5,419C 282.246,413.005 276.913,410.838 270.5,412.5C 268.253,411.594 266.253,410.261 264.5,408.5C 263.707,408.931 262.873,409.265 262,409.5C 260.604,408.606 259.104,407.939 257.5,407.5C 253.754,409.253 249.754,409.92 245.5,409.5C 244.192,408.768 242.858,407.934 241.5,407C 242.748,405.6 243.748,404.1 244.5,402.5C 246.701,401.434 249.035,400.767 251.5,400.5 Z"/></g>
<g><path style="opacity:0.994" fill="#fcfcfc" d="M 570.5,404.5 C 575.844,404.334 581.177,404.501 586.5,405C 587.416,405.374 588.25,405.874 589,406.5C 590.286,421.766 590.953,437.099 591,452.5C 592.623,458.952 596.79,462.285 603.5,462.5C 610.153,462.007 614.653,458.674 617,452.5C 617.333,437.5 617.667,422.5 618,407.5C 618.833,406.667 619.667,405.833 620.5,405C 626.5,404.333 632.5,404.333 638.5,405C 639,405.5 639.5,406 640,406.5C 640.667,422.5 640.667,438.5 640,454.5C 634.269,475.775 620.435,485.942 598.5,485C 581.667,481.5 571.5,471.333 568,454.5C 567.333,438.833 567.333,423.167 568,407.5C 569.045,406.627 569.878,405.627 570.5,404.5 Z"/></g>
<g><path style="opacity:1" fill="#f59848" d="M 238.5,406.5 C 239.565,409.793 240.565,413.126 241.5,416.5C 239.738,416.643 238.071,416.309 236.5,415.5C 235.38,416.833 234.047,417.333 232.5,417C 231.395,414.88 231.395,412.713 232.5,410.5C 232.833,409.5 233.5,408.833 234.5,408.5C 235.605,407.4 236.938,406.733 238.5,406.5 Z"/></g>
<g><path style="opacity:1" fill="#f79f45" d="M 295.5,415.5 C 298.182,417.53 299.849,420.197 300.5,423.5C 300.719,424.675 300.386,425.675 299.5,426.5C 297.587,425.627 295.753,424.627 294,423.5C 293.333,426.167 292.667,426.167 292,423.5C 290.984,424.634 290.317,424.301 290,422.5C 288.289,423.581 286.789,423.248 285.5,421.5C 283.494,420.489 281.494,419.489 279.5,418.5C 278.287,418.747 277.62,419.414 277.5,420.5C 274.894,419.864 272.394,419.864 270,420.5C 267.506,417.824 265.34,418.158 263.5,421.5C 262.205,419.672 261.205,417.672 260.5,415.5C 259.16,416.867 257.827,418.2 256.5,419.5C 255.833,418.833 255.167,418.167 254.5,417.5C 253.243,416.182 251.909,414.849 250.5,413.5C 248.167,414.833 245.833,414.833 243.5,413.5C 240.792,410.835 241.459,409.502 245.5,409.5C 249.754,409.92 253.754,409.253 257.5,407.5C 259.104,407.939 260.604,408.606 262,409.5C 262.873,409.265 263.707,408.931 264.5,408.5C 266.253,410.261 268.253,411.594 270.5,412.5C 276.913,410.838 282.246,413.005 286.5,419C 286.167,419.333 285.833,419.667 285.5,420C 287.163,420.265 288.663,419.765 290,418.5C 291.395,419.815 292.395,419.481 293,417.5C 293.219,418.938 293.719,420.271 294.5,421.5C 295.72,421.113 296.387,420.28 296.5,419C 296.011,417.862 295.678,416.695 295.5,415.5 Z"/></g>
<g><path style="opacity:0.498" fill="#eba576" d="M 233.5,407.5 C 234.167,407.5 234.5,407.833 234.5,408.5C 233.5,408.833 232.833,409.5 232.5,410.5C 230.833,411.5 229.5,412.833 228.5,414.5C 227.728,415.694 226.728,416.694 225.5,417.5C 225.167,417.5 224.833,417.5 224.5,417.5C 226.124,412.911 229.124,409.577 233.5,407.5 Z"/></g>
<g><path style="opacity:1" fill="#f2924f" d="M 232.5,410.5 C 231.395,412.713 231.395,414.88 232.5,417C 234.047,417.333 235.38,416.833 236.5,415.5C 238.071,416.309 239.738,416.643 241.5,416.5C 239.196,419.141 236.862,421.808 234.5,424.5C 233.5,424.5 232.5,424.5 231.5,424.5C 231.663,422.143 231.497,419.81 231,417.5C 230.077,418.759 229.243,420.092 228.5,421.5C 228.167,420.833 227.833,420.167 227.5,419.5C 228.046,417.865 228.38,416.199 228.5,414.5C 229.5,412.833 230.833,411.5 232.5,410.5 Z"/></g>
<g><path style="opacity:0.441" fill="#ea9c60" d="M 247.5,417.5 C 249.688,416.377 252.021,416.377 254.5,417.5C 255.167,418.167 255.833,418.833 256.5,419.5C 258.086,421.67 259.42,424.004 260.5,426.5C 260.5,428.167 260.5,429.833 260.5,431.5C 260.167,431.5 259.833,431.5 259.5,431.5C 259.5,430.833 259.167,430.5 258.5,430.5C 258.108,423.439 254.442,419.105 247.5,417.5 Z"/></g>
<g><path style="opacity:1" fill="#f59949" d="M 277.5,420.5 C 276.167,422.5 274.5,424.167 272.5,425.5C 270.071,425.884 267.737,426.551 265.5,427.5C 265.884,425.335 265.217,423.668 263.5,422.5C 262.85,424.184 261.85,425.517 260.5,426.5C 259.42,424.004 258.086,421.67 256.5,419.5C 257.827,418.2 259.16,416.867 260.5,415.5C 261.205,417.672 262.205,419.672 263.5,421.5C 265.34,418.158 267.506,417.824 270,420.5C 272.394,419.864 274.894,419.864 277.5,420.5 Z"/></g>
<g><path style="opacity:0.278" fill="#e19766" d="M 241.5,416.5 C 243.415,416.216 245.081,416.549 246.5,417.5C 240.8,418.533 237.467,421.866 236.5,427.5C 235.167,427.5 234.5,426.833 234.5,425.5C 234.5,425.167 234.5,424.833 234.5,424.5C 236.862,421.808 239.196,419.141 241.5,416.5 Z"/></g>
<g><path style="opacity:1" fill="#f18e53" d="M 228.5,414.5 C 228.38,416.199 228.046,417.865 227.5,419.5C 227.833,420.167 228.167,420.833 228.5,421.5C 229.243,420.092 230.077,418.759 231,417.5C 231.497,419.81 231.663,422.143 231.5,424.5C 232.5,424.5 233.5,424.5 234.5,424.5C 234.5,424.833 234.5,425.167 234.5,425.5C 233.166,427.159 231.499,428.492 229.5,429.5C 229.06,428.302 228.727,427.135 228.5,426C 226.865,425.46 225.532,425.96 224.5,427.5C 223.481,425.54 223.481,423.54 224.5,421.5C 224.833,420.167 225.167,418.833 225.5,417.5C 226.728,416.694 227.728,415.694 228.5,414.5 Z"/></g>
<g><path style="opacity:0.441" fill="#e99e80" d="M 224.5,417.5 C 224.833,417.5 225.167,417.5 225.5,417.5C 225.167,418.833 224.833,420.167 224.5,421.5C 222.613,423.789 221.279,426.455 220.5,429.5C 219.715,431.374 219.048,433.374 218.5,435.5C 218.167,435.5 217.833,435.5 217.5,435.5C 217.89,428.651 220.223,422.651 224.5,417.5 Z"/></g>
<g><path style="opacity:1" fill="#e1926e" d="M 244.5,422.5 C 252.154,422.169 254.654,425.503 252,432.5C 246.815,437.078 242.982,436.078 240.5,429.5C 241.094,426.692 242.427,424.359 244.5,422.5 Z"/></g>
<g><path style="opacity:1" fill="#f2914e" d="M 272.5,425.5 C 272.167,426.167 271.833,426.833 271.5,427.5C 269.5,429.167 267.5,430.833 265.5,432.5C 263.856,432.286 262.356,432.62 261,433.5C 260.536,432.906 260.369,432.239 260.5,431.5C 260.5,429.833 260.5,428.167 260.5,426.5C 261.85,425.517 262.85,424.184 263.5,422.5C 265.217,423.668 265.884,425.335 265.5,427.5C 267.737,426.551 270.071,425.884 272.5,425.5 Z"/></g>
<g><path style="opacity:1" fill="#f4994e" d="M 285.5,421.5 C 286.789,423.248 288.289,423.581 290,422.5C 290.317,424.301 290.984,424.634 292,423.5C 292.667,426.167 293.333,426.167 294,423.5C 295.753,424.627 297.587,425.627 299.5,426.5C 300.386,425.675 300.719,424.675 300.5,423.5C 301.5,424.833 302.5,426.167 303.5,427.5C 303.993,429.806 304.326,432.139 304.5,434.5C 304.666,438.846 304.499,443.179 304,447.5C 303.787,440.206 302.787,439.872 301,446.5C 299.252,444.865 298.085,442.865 297.5,440.5C 295.258,438.461 292.758,436.795 290,435.5C 288.441,433.783 287.608,431.783 287.5,429.5C 285.833,429.5 284.167,429.5 282.5,429.5C 282.5,428.833 282.5,428.167 282.5,427.5C 283.985,428.935 285.318,428.768 286.5,427C 285.594,425.301 285.261,423.467 285.5,421.5 Z"/></g>
<g><path style="opacity:1" fill="#eb9a59" d="M 285.5,421.5 C 285.261,423.467 285.594,425.301 286.5,427C 285.318,428.768 283.985,428.935 282.5,427.5C 281.206,428.29 280.039,429.29 279,430.5C 278.601,430.272 278.435,429.938 278.5,429.5C 279.96,427.537 281.627,425.704 283.5,424C 282.328,421.945 280.661,421.278 278.5,422C 276.63,424.04 274.63,425.873 272.5,427.5C 272.167,427.5 271.833,427.5 271.5,427.5C 271.833,426.833 272.167,426.167 272.5,425.5C 274.5,424.167 276.167,422.5 277.5,420.5C 277.62,419.414 278.287,418.747 279.5,418.5C 281.494,419.489 283.494,420.489 285.5,421.5 Z"/></g>
<g><path style="opacity:1" fill="#f28556" d="M 243.5,425.5 C 245.833,425.5 248.167,425.5 250.5,425.5C 250.662,427.527 250.495,429.527 250,431.5C 247.321,434.172 244.988,433.838 243,430.5C 242.36,428.735 242.527,427.068 243.5,425.5 Z"/></g>
<g><path style="opacity:1" fill="#ee875b" d="M 224.5,421.5 C 223.481,423.54 223.481,425.54 224.5,427.5C 225.532,425.96 226.865,425.46 228.5,426C 228.727,427.135 229.06,428.302 229.5,429.5C 231.499,428.492 233.166,427.159 234.5,425.5C 234.5,426.833 235.167,427.5 236.5,427.5C 236.5,429.167 236.5,430.833 236.5,432.5C 235.732,431.737 235.232,430.737 235,429.5C 234.109,432.498 234.609,435.164 236.5,437.5C 234.61,437.297 233.11,437.963 232,439.5C 230.898,437.619 229.565,435.952 228,434.5C 226.715,434.95 225.548,435.617 224.5,436.5C 222.922,434.347 221.588,432.014 220.5,429.5C 221.279,426.455 222.613,423.789 224.5,421.5 Z"/></g>
<g><path style="opacity:0.399" fill="#e79468" d="M 271.5,427.5 C 271.833,427.5 272.167,427.5 272.5,427.5C 269.877,431.791 266.544,435.457 262.5,438.5C 262.5,438.167 262.5,437.833 262.5,437.5C 263.075,435.589 264.075,433.922 265.5,432.5C 267.5,430.833 269.5,429.167 271.5,427.5 Z"/></g>
<g><path style="opacity:0.46" fill="#e3886e" d="M 236.5,432.5 C 241.056,440.691 247.056,442.024 254.5,436.5C 256.316,434.71 257.649,432.71 258.5,430.5C 259.167,430.5 259.5,430.833 259.5,431.5C 258.957,434.038 257.957,436.372 256.5,438.5C 252.878,440.978 248.878,442.311 244.5,442.5C 243.391,442.443 242.391,442.11 241.5,441.5C 239.611,440.396 237.945,439.063 236.5,437.5C 234.609,435.164 234.109,432.498 235,429.5C 235.232,430.737 235.732,431.737 236.5,432.5 Z"/></g>
<g><path style="opacity:1" fill="#eb895b" d="M 259.5,431.5 C 259.833,431.5 260.167,431.5 260.5,431.5C 260.369,432.239 260.536,432.906 261,433.5C 262.356,432.62 263.856,432.286 265.5,432.5C 264.075,433.922 263.075,435.589 262.5,437.5C 261.833,437.833 261.167,438.167 260.5,438.5C 259.167,438.5 257.833,438.5 256.5,438.5C 257.957,436.372 258.957,434.038 259.5,431.5 Z"/></g>
<g><path style="opacity:1" fill="#f07f63" d="M 220.5,429.5 C 221.588,432.014 222.922,434.347 224.5,436.5C 225.548,435.617 226.715,434.95 228,434.5C 229.565,435.952 230.898,437.619 232,439.5C 233.11,437.963 234.61,437.297 236.5,437.5C 237.945,439.063 239.611,440.396 241.5,441.5C 241.5,443.167 241.5,444.833 241.5,446.5C 235.702,446.898 231.202,445.232 228,441.5C 227.055,441.905 226.388,442.572 226,443.5C 225.751,442.376 225.251,441.376 224.5,440.5C 222.184,444.266 220.184,444.266 218.5,440.5C 218.5,438.833 218.5,437.167 218.5,435.5C 219.048,433.374 219.715,431.374 220.5,429.5 Z"/></g>
<g><path style="opacity:1" fill="#f29154" d="M 282.5,429.5 C 284.167,429.5 285.833,429.5 287.5,429.5C 287.608,431.783 288.441,433.783 290,435.5C 292.758,436.795 295.258,438.461 297.5,440.5C 298.085,442.865 299.252,444.865 301,446.5C 302.787,439.872 303.787,440.206 304,447.5C 304.499,443.179 304.666,438.846 304.5,434.5C 305.489,439.975 305.822,445.642 305.5,451.5C 304.662,451.842 304.328,452.508 304.5,453.5C 302.974,454.105 301.974,455.271 301.5,457C 300.552,457.483 299.552,457.649 298.5,457.5C 298.817,453.828 297.151,452.162 293.5,452.5C 293.624,446.449 290.624,442.949 284.5,442C 285.15,440.391 284.65,438.891 283,437.5C 281.419,442.496 279.253,442.662 276.5,438C 277.305,436.887 277.972,435.721 278.5,434.5C 279.08,432.251 280.413,430.585 282.5,429.5 Z"/></g>
<g><path style="opacity:1" fill="#e3878c" d="M 217.5,435.5 C 217.833,435.5 218.167,435.5 218.5,435.5C 218.5,437.167 218.5,438.833 218.5,440.5C 218.5,442.5 218.5,444.5 218.5,446.5C 218.557,447.609 218.89,448.609 219.5,449.5C 219.5,451.167 219.5,452.833 219.5,454.5C 217.752,448.426 217.085,442.093 217.5,435.5 Z"/></g>
<g><path style="opacity:1" fill="#ed7e60" d="M 256.5,438.5 C 257.833,438.5 259.167,438.5 260.5,438.5C 258.5,441.167 256.167,443.5 253.5,445.5C 251.143,445.663 248.81,445.497 246.5,445C 245.619,444.292 244.953,443.458 244.5,442.5C 248.878,442.311 252.878,440.978 256.5,438.5 Z"/></g>
<g><path style="opacity:1" fill="#f08958" d="M 278.5,434.5 C 277.972,435.721 277.305,436.887 276.5,438C 279.253,442.662 281.419,442.496 283,437.5C 284.65,438.891 285.15,440.391 284.5,442C 290.624,442.949 293.624,446.449 293.5,452.5C 297.151,452.162 298.817,453.828 298.5,457.5C 299.552,457.649 300.552,457.483 301.5,457C 301.974,455.271 302.974,454.105 304.5,453.5C 303.696,456.579 302.696,459.579 301.5,462.5C 300.448,462.649 299.448,462.483 298.5,462C 296.569,458.9 293.902,456.733 290.5,455.5C 290.467,450.947 288.467,447.447 284.5,445C 280.05,443.116 275.383,441.95 270.5,441.5C 272.552,438.318 275.219,435.984 278.5,434.5 Z"/></g>
<g><path style="opacity:1" fill="#f17b68" d="M 218.5,440.5 C 220.184,444.266 222.184,444.266 224.5,440.5C 225.251,441.376 225.751,442.376 226,443.5C 226.388,442.572 227.055,441.905 228,441.5C 231.202,445.232 235.702,446.898 241.5,446.5C 241.5,444.833 241.5,443.167 241.5,441.5C 242.391,442.11 243.391,442.443 244.5,442.5C 244.953,443.458 245.619,444.292 246.5,445C 248.81,445.497 251.143,445.663 253.5,445.5C 251.833,447.833 249.833,449.833 247.5,451.5C 246.167,451.5 244.833,451.5 243.5,451.5C 241.824,450.817 241.157,449.483 241.5,447.5C 239.088,447.244 237.421,448.244 236.5,450.5C 234.892,447.409 232.559,446.743 229.5,448.5C 226.439,447.317 223.439,445.984 220.5,444.5C 219.818,445.243 219.151,445.909 218.5,446.5C 218.5,444.5 218.5,442.5 218.5,440.5 Z"/></g>
<g><path style="opacity:0.562" fill="#df8572" d="M 267.5,441.5 C 268.506,441.938 268.506,442.604 267.5,443.5C 266.194,445.473 264.527,447.139 262.5,448.5C 261.833,448.5 261.5,448.167 261.5,447.5C 263.167,445.167 265.167,443.167 267.5,441.5 Z"/></g>
<g><path style="opacity:1" fill="#f1796e" d="M 243.5,451.5 C 241.693,452.836 240.193,454.503 239,456.5C 237.601,455.773 236.101,455.273 234.5,455C 235.167,454.667 235.833,454.333 236.5,454C 234.765,453.349 233.098,453.515 231.5,454.5C 230.749,453.624 230.249,452.624 230,451.5C 226.891,456.876 225.724,456.543 226.5,450.5C 226.167,449.5 225.5,448.833 224.5,448.5C 222.415,455.43 220.748,455.764 219.5,449.5C 218.89,448.609 218.557,447.609 218.5,446.5C 219.151,445.909 219.818,445.243 220.5,444.5C 223.439,445.984 226.439,447.317 229.5,448.5C 232.559,446.743 234.892,447.409 236.5,450.5C 237.421,448.244 239.088,447.244 241.5,447.5C 241.157,449.483 241.824,450.817 243.5,451.5 Z"/></g>
<g><path style="opacity:0.369" fill="#e78b66" d="M 282.5,427.5 C 282.5,428.167 282.5,428.833 282.5,429.5C 280.413,430.585 279.08,432.251 278.5,434.5C 275.219,435.984 272.552,438.318 270.5,441.5C 275.383,441.95 280.05,443.116 284.5,445C 288.467,447.447 290.467,450.947 290.5,455.5C 290.5,457.167 290.5,458.833 290.5,460.5C 290.167,460.5 289.833,460.5 289.5,460.5C 289.167,460.5 288.833,460.5 288.5,460.5C 288.833,448.498 283.167,443.831 271.5,446.5C 272.347,445.034 273.68,444.2 275.5,444C 274.833,443.833 274.167,443.667 273.5,443.5C 271.577,444.092 269.911,445.092 268.5,446.5C 267.596,445.791 267.263,444.791 267.5,443.5C 268.506,442.604 268.506,441.938 267.5,441.5C 270.458,436.874 274.124,432.874 278.5,429.5C 278.435,429.938 278.601,430.272 279,430.5C 280.039,429.29 281.206,428.29 282.5,427.5 Z"/></g>
<g><path style="opacity:0.586" fill="#f0af85" d="M 303.5,427.5 C 304.167,428.167 304.833,428.833 305.5,429.5C 307.025,433.728 307.692,438.228 307.5,443C 307.692,447.772 307.025,452.272 305.5,456.5C 305.5,454.833 305.5,453.167 305.5,451.5C 305.822,445.642 305.489,439.975 304.5,434.5C 304.326,432.139 303.993,429.806 303.5,427.5 Z"/></g>
<g><path style="opacity:0.412" fill="#e4886d" d="M 281.5,461.5 C 281.5,461.167 281.5,460.833 281.5,460.5C 281.5,460.167 281.5,459.833 281.5,459.5C 282.622,457.712 282.789,455.712 282,453.5C 281.31,452.262 280.81,452.262 280.5,453.5C 277.784,451.914 275.45,452.247 273.5,454.5C 272.833,455.5 272.167,456.5 271.5,457.5C 271.386,450.698 274.719,448.532 281.5,451C 284.878,454.749 284.878,458.249 281.5,461.5 Z"/></g>
<g><path style="opacity:0.354" fill="#e37b76" d="M 261.5,447.5 C 261.5,448.167 261.833,448.5 262.5,448.5C 260.804,450.525 259.137,452.525 257.5,454.5C 257.565,454.062 257.399,453.728 257,453.5C 255.296,455.373 253.463,457.04 251.5,458.5C 254.101,454.229 257.434,450.563 261.5,447.5 Z"/></g>
<g><path style="opacity:1" fill="#f07773" d="M 243.5,451.5 C 244.833,451.5 246.167,451.5 247.5,451.5C 245.706,453.797 243.706,455.963 241.5,458C 242.094,458.464 242.761,458.631 243.5,458.5C 242.699,460.042 242.366,461.708 242.5,463.5C 240.534,462.745 240.2,461.579 241.5,460C 240.563,459.308 239.897,459.475 239.5,460.5C 235.718,460.066 232.385,458.732 229.5,456.5C 227.626,456.39 226.126,457.056 225,458.5C 224.092,456.561 222.592,455.561 220.5,455.5C 220.167,455.5 219.833,455.5 219.5,455.5C 219.5,455.167 219.5,454.833 219.5,454.5C 219.5,452.833 219.5,451.167 219.5,449.5C 220.748,455.764 222.415,455.43 224.5,448.5C 225.5,448.833 226.167,449.5 226.5,450.5C 225.724,456.543 226.891,456.876 230,451.5C 230.249,452.624 230.749,453.624 231.5,454.5C 233.098,453.515 234.765,453.349 236.5,454C 235.833,454.333 235.167,454.667 234.5,455C 236.101,455.273 237.601,455.773 239,456.5C 240.193,454.503 241.693,452.836 243.5,451.5 Z"/></g>
<g><path style="opacity:0.585" fill="#ed9f97" d="M 217.5,435.5 C 217.085,442.093 217.752,448.426 219.5,454.5C 219.5,454.833 219.5,455.167 219.5,455.5C 219.5,456.5 219.5,457.5 219.5,458.5C 218.113,456.123 217.279,453.457 217,450.5C 216.184,445.316 216.35,440.316 217.5,435.5 Z"/></g>
<g><path style="opacity:0.63" fill="#e5817a" d="M 262.5,437.5 C 262.5,437.833 262.5,438.167 262.5,438.5C 256.406,445.383 250.073,452.05 243.5,458.5C 242.761,458.631 242.094,458.464 241.5,458C 243.706,455.963 245.706,453.797 247.5,451.5C 249.833,449.833 251.833,447.833 253.5,445.5C 256.167,443.5 258.5,441.167 260.5,438.5C 261.167,438.167 261.833,437.833 262.5,437.5 Z"/></g>
<g><path style="opacity:1" fill="#f07379" d="M 220.5,455.5 C 222.592,455.561 224.092,456.561 225,458.5C 226.126,457.056 227.626,456.39 229.5,456.5C 232.385,458.732 235.718,460.066 239.5,460.5C 239.392,462.514 240.058,464.18 241.5,465.5C 238.169,466.168 234.503,466.168 230.5,465.5C 230.875,468.907 229.875,469.407 227.5,467C 228.863,464.871 228.529,464.371 226.5,465.5C 225.818,464.757 225.151,464.091 224.5,463.5C 222.583,461.305 221.249,458.638 220.5,455.5 Z"/></g>
<g><path style="opacity:1" fill="#e3857c" d="M 281.5,459.5 C 281.675,457.379 281.341,455.379 280.5,453.5C 280.81,452.262 281.31,452.262 282,453.5C 282.789,455.712 282.622,457.712 281.5,459.5 Z"/></g>
<g><path style="opacity:1" fill="#d97885" d="M 257.5,454.5 C 256.167,456.167 254.833,457.833 253.5,459.5C 251.983,459.511 250.816,460.177 250,461.5C 249.601,461.272 249.435,460.938 249.5,460.5C 249.833,459.5 250.5,458.833 251.5,458.5C 253.463,457.04 255.296,455.373 257,453.5C 257.399,453.728 257.565,454.062 257.5,454.5 Z"/></g>
<g><path style="opacity:0.515" fill="#e08278" d="M 273.5,454.5 C 273.1,460.778 275.767,462.778 281.5,460.5C 281.5,460.833 281.5,461.167 281.5,461.5C 278.246,464.166 275.079,463.833 272,460.5C 271.517,459.552 271.351,458.552 271.5,457.5C 272.167,456.5 272.833,455.5 273.5,454.5 Z"/></g>
<g><path style="opacity:1" fill="#eb7662" d="M 280.5,453.5 C 281.341,455.379 281.675,457.379 281.5,459.5C 281.5,459.833 281.5,460.167 281.5,460.5C 275.767,462.778 273.1,460.778 273.5,454.5C 275.45,452.247 277.784,451.914 280.5,453.5 Z"/></g>
<g><path style="opacity:0.518" fill="#f3e8eb" d="M 208.5,438.5 C 209.562,445.857 208.728,453.19 206,460.5C 205.303,462.584 204.136,464.251 202.5,465.5C 206.508,456.833 208.508,447.833 208.5,438.5 Z"/></g>
<g><path style="opacity:1" fill="#eb706a" d="M 267.5,443.5 C 267.263,444.791 267.596,445.791 268.5,446.5C 265.21,449.756 263.543,453.756 263.5,458.5C 262.603,459.598 261.77,459.598 261,458.5C 259.955,459.373 259.122,460.373 258.5,461.5C 256.738,461.357 255.071,461.691 253.5,462.5C 252.438,461.575 252.438,460.575 253.5,459.5C 254.833,457.833 256.167,456.167 257.5,454.5C 259.137,452.525 260.804,450.525 262.5,448.5C 264.527,447.139 266.194,445.473 267.5,443.5 Z"/></g>
<g><path style="opacity:0.047" fill="#f7e9e2" d="M 315.5,439.5 C 315.297,454.1 315.63,468.1 316.5,481.5C 315.883,481.389 315.383,481.056 315,480.5C 314.173,466.66 314.339,452.994 315.5,439.5 Z"/></g>
<g><path style="opacity:1" fill="#f06c79" d="M 253.5,459.5 C 252.438,460.575 252.438,461.575 253.5,462.5C 255.071,461.691 256.738,461.357 258.5,461.5C 259.376,461.369 260.043,461.702 260.5,462.5C 258.861,463.916 258.027,465.583 258,467.5C 260.128,467.073 262.295,467.573 264.5,469C 265.795,471.758 267.461,474.258 269.5,476.5C 271.135,477.681 272.802,477.681 274.5,476.5C 275.197,478.385 276.197,478.718 277.5,477.5C 278.452,479.045 278.785,480.712 278.5,482.5C 276.847,483.799 275.347,483.466 274,481.5C 272.475,484.087 270.308,484.92 267.5,484C 267.833,483.667 268.167,483.333 268.5,483C 266.321,482.558 265.655,481.558 266.5,480C 264.17,478.925 262.837,477.425 262.5,475.5C 259.432,477.457 256.099,477.957 252.5,477C 249.648,475.409 246.648,474.076 243.5,473C 240.589,470.846 240.256,468.68 242.5,466.5C 245.596,467.093 247.929,466.093 249.5,463.5C 249.03,462.537 248.363,462.537 247.5,463.5C 247.427,461.973 248.094,460.973 249.5,460.5C 249.435,460.938 249.601,461.272 250,461.5C 250.816,460.177 251.983,459.511 253.5,459.5 Z"/></g>
<g><path style="opacity:1" fill="#f2815f" d="M 290.5,455.5 C 293.902,456.733 296.569,458.9 298.5,462C 299.448,462.483 300.448,462.649 301.5,462.5C 300.308,464.113 299.308,465.78 298.5,467.5C 296.5,468.167 294.5,468.833 292.5,469.5C 291.539,466.574 290.873,463.574 290.5,460.5C 290.5,458.833 290.5,457.167 290.5,455.5 Z"/></g>
<g><path style="opacity:0.425" fill="#e68271" d="M 288.5,460.5 C 288.833,460.5 289.167,460.5 289.5,460.5C 289.385,462.947 288.385,464.947 286.5,466.5C 285.833,466.833 285.167,467.167 284.5,467.5C 283.508,467.672 282.842,467.338 282.5,466.5C 284.861,464.806 286.861,462.806 288.5,460.5 Z"/></g>
<g><path style="opacity:1" fill="#e57482" d="M 242.5,463.5 C 244.167,463.5 245.833,463.5 247.5,463.5C 248.363,462.537 249.03,462.537 249.5,463.5C 247.929,466.093 245.596,467.093 242.5,466.5C 242.5,465.833 242.167,465.5 241.5,465.5C 240.058,464.18 239.392,462.514 239.5,460.5C 239.897,459.475 240.563,459.308 241.5,460C 240.2,461.579 240.534,462.745 242.5,463.5 Z"/></g>
<g><path style="opacity:1" fill="#ef6c7f" d="M 224.5,463.5 C 225.151,464.091 225.818,464.757 226.5,465.5C 228.529,464.371 228.863,464.871 227.5,467C 229.875,469.407 230.875,468.907 230.5,465.5C 234.503,466.168 238.169,466.168 241.5,465.5C 242.167,465.5 242.5,465.833 242.5,466.5C 240.256,468.68 240.589,470.846 243.5,473C 246.648,474.076 249.648,475.409 252.5,477C 256.099,477.957 259.432,477.457 262.5,475.5C 262.837,477.425 264.17,478.925 266.5,480C 265.655,481.558 266.321,482.558 268.5,483C 268.167,483.333 267.833,483.667 267.5,484C 270.308,484.92 272.475,484.087 274,481.5C 275.347,483.466 276.847,483.799 278.5,482.5C 279.5,482.5 280.5,482.5 281.5,482.5C 280.71,483.401 279.71,484.068 278.5,484.5C 265,488.061 252,486.894 239.5,481C 237.254,479.743 235.921,477.91 235.5,475.5C 234.5,475.5 233.5,475.5 232.5,475.5C 228.327,472.483 225.66,468.483 224.5,463.5 Z"/></g>
<g><path style="opacity:0.477" fill="#ec9a89" d="M 305.5,451.5 C 305.5,453.167 305.5,454.833 305.5,456.5C 303.874,462.419 301.207,467.753 297.5,472.5C 297.672,471.508 297.338,470.842 296.5,470.5C 297.167,469.5 297.833,468.5 298.5,467.5C 299.308,465.78 300.308,464.113 301.5,462.5C 302.696,459.579 303.696,456.579 304.5,453.5C 304.328,452.508 304.662,451.842 305.5,451.5 Z"/></g>
<g><path style="opacity:0.53" fill="#e48290" d="M 219.5,455.5 C 219.833,455.5 220.167,455.5 220.5,455.5C 221.249,458.638 222.583,461.305 224.5,463.5C 225.66,468.483 228.327,472.483 232.5,475.5C 233.11,476.391 233.443,477.391 233.5,478.5C 226.358,473.544 221.691,466.878 219.5,458.5C 219.5,457.5 219.5,456.5 219.5,455.5 Z"/></g>
<g><path style="opacity:0.927" fill="#e47c79" d="M 271.5,446.5 C 266.363,451.164 265.197,456.831 268,463.5C 272.398,467.826 277.231,468.826 282.5,466.5C 282.842,467.338 283.508,467.672 284.5,467.5C 281.916,469.472 278.916,470.472 275.5,470.5C 269.134,468.801 265.134,464.801 263.5,458.5C 263.543,453.756 265.21,449.756 268.5,446.5C 269.911,445.092 271.577,444.092 273.5,443.5C 274.167,443.667 274.833,443.833 275.5,444C 273.68,444.2 272.347,445.034 271.5,446.5 Z"/></g>
<g><path style="opacity:1" fill="#f07a66" d="M 289.5,460.5 C 289.833,460.5 290.167,460.5 290.5,460.5C 290.873,463.574 291.539,466.574 292.5,469.5C 294.5,468.833 296.5,468.167 298.5,467.5C 297.833,468.5 297.167,469.5 296.5,470.5C 295.5,472.167 294.167,473.5 292.5,474.5C 291.178,474.33 290.011,474.663 289,475.5C 288.932,472.681 287.766,470.514 285.5,469C 286.252,468.329 286.586,467.496 286.5,466.5C 288.385,464.947 289.385,462.947 289.5,460.5 Z"/></g>
<g><path style="opacity:1" fill="#f06e73" d="M 263.5,458.5 C 265.134,464.801 269.134,468.801 275.5,470.5C 277.969,471.317 280.635,471.817 283.5,472C 283.167,473 282.833,474 282.5,475C 283.579,476.859 284.912,478.359 286.5,479.5C 285.101,480.89 283.434,481.89 281.5,482.5C 280.5,482.5 279.5,482.5 278.5,482.5C 278.785,480.712 278.452,479.045 277.5,477.5C 276.197,478.718 275.197,478.385 274.5,476.5C 272.802,477.681 271.135,477.681 269.5,476.5C 267.461,474.258 265.795,471.758 264.5,469C 262.295,467.573 260.128,467.073 258,467.5C 258.027,465.583 258.861,463.916 260.5,462.5C 260.043,461.702 259.376,461.369 258.5,461.5C 259.122,460.373 259.955,459.373 261,458.5C 261.77,459.598 262.603,459.598 263.5,458.5 Z"/></g>
<g><path style="opacity:1" fill="#ef736d" d="M 286.5,466.5 C 286.586,467.496 286.252,468.329 285.5,469C 287.766,470.514 288.932,472.681 289,475.5C 290.011,474.663 291.178,474.33 292.5,474.5C 291.109,476.89 289.109,478.557 286.5,479.5C 284.912,478.359 283.579,476.859 282.5,475C 282.833,474 283.167,473 283.5,472C 280.635,471.817 277.969,471.317 275.5,470.5C 278.916,470.472 281.916,469.472 284.5,467.5C 285.167,467.167 285.833,466.833 286.5,466.5 Z"/></g>
<g><path style="opacity:0.528" fill="#e8888d" d="M 296.5,470.5 C 297.338,470.842 297.672,471.508 297.5,472.5C 290.872,480.315 282.539,485.315 272.5,487.5C 274.5,486.5 276.5,485.5 278.5,484.5C 279.71,484.068 280.71,483.401 281.5,482.5C 283.434,481.89 285.101,480.89 286.5,479.5C 289.109,478.557 291.109,476.89 292.5,474.5C 294.167,473.5 295.5,472.167 296.5,470.5 Z"/></g>
<g><path style="opacity:0.476" fill="#e2768f" d="M 232.5,475.5 C 233.5,475.5 234.5,475.5 235.5,475.5C 235.921,477.91 237.254,479.743 239.5,481C 252,486.894 265,488.061 278.5,484.5C 276.5,485.5 274.5,486.5 272.5,487.5C 263.4,488.572 254.4,487.906 245.5,485.5C 240.611,484.652 236.611,482.319 233.5,478.5C 233.443,477.391 233.11,476.391 232.5,475.5 Z"/></g>
<g><path style="opacity:0.634" fill="#e67c89" d="M 245.5,485.5 C 254.4,487.906 263.4,488.572 272.5,487.5C 265.709,489.895 258.709,490.062 251.5,488C 249.148,487.76 247.148,486.927 245.5,485.5 Z"/></g>
</svg>
