<?xml version="1.0" encoding="UTF-8"?>
<!DOCTYPE svg PUBLIC "-//W3C//DTD SVG 1.1//EN" "http://www.w3.org/Graphics/SVG/1.1/DTD/svg11.dtd">
<svg xmlns="http://www.w3.org/2000/svg" version="1.1" width="512px" height="512px" style="shape-rendering:geometricPrecision; text-rendering:geometricPrecision; image-rendering:optimizeQuality; fill-rule:evenodd; clip-rule:evenodd" xmlns:xlink="http://www.w3.org/1999/xlink">
<g><path style="opacity:1" fill="#fefefe" d="M -0.5,-0.5 C 170.167,-0.5 340.833,-0.5 511.5,-0.5C 511.5,170.167 511.5,340.833 511.5,511.5C 340.833,511.5 170.167,511.5 -0.5,511.5C -0.5,340.833 -0.5,170.167 -0.5,-0.5 Z"/></g>
<g><path style="opacity:1" fill="#101010" d="M 412.5,183.5 C 413.833,183.5 415.167,183.5 416.5,183.5C 420.259,185.683 421.925,189.017 421.5,193.5C 421.5,193.833 421.5,194.167 421.5,194.5C 418.664,195.776 415.664,196.442 412.5,196.5C 407.288,192.126 407.288,187.793 412.5,183.5 Z"/></g>
<g><path style="opacity:1" fill="#131313" d="M 428.5,186.5 C 433.152,186.998 437.819,187.331 442.5,187.5C 442.825,190.524 441.492,192.191 438.5,192.5C 434.188,191.646 429.854,190.979 425.5,190.5C 424.766,189.292 424.433,187.959 424.5,186.5C 425.833,186.5 427.167,186.5 428.5,186.5 Z"/></g>
<g><path style="opacity:1" fill="#7d7d7d" d="M 416.5,183.5 C 420.747,183.923 424.747,184.923 428.5,186.5C 427.167,186.5 425.833,186.5 424.5,186.5C 424.433,187.959 424.766,189.292 425.5,190.5C 424.363,191.789 423.03,192.789 421.5,193.5C 421.925,189.017 420.259,185.683 416.5,183.5 Z"/></g>
<g><path style="opacity:1" fill="#0e0e0e" d="M 402.5,242.5 C 401.89,240.566 400.89,238.899 399.5,237.5C 396.569,233.983 395.069,229.983 395,225.5C 399.443,222.366 403.943,219.366 408.5,216.5C 411.132,215.528 413.465,214.195 415.5,212.5C 428.307,204.259 441.307,196.259 454.5,188.5C 456.187,188.76 457.687,189.427 459,190.5C 464.667,199.833 470.333,209.167 476,218.5C 476.667,220.167 476.667,221.833 476,223.5C 456.122,236.017 436.122,248.35 416,260.5C 414.488,259.743 413.154,258.743 412,257.5C 409.308,252.097 406.142,247.097 402.5,242.5 Z"/></g>
<g><path style="opacity:1" fill="#767676" d="M 421.5,194.5 C 418.753,200.215 416.087,206.048 413.5,212C 414.094,212.464 414.761,212.631 415.5,212.5C 413.465,214.195 411.132,215.528 408.5,216.5C 411.147,210.22 413.481,203.886 415.5,197.5C 414.209,197.737 413.209,197.404 412.5,196.5C 415.664,196.442 418.664,195.776 421.5,194.5 Z"/></g>
<g><path style="opacity:1" fill="#ededed" d="M 453.5,200.5 C 454.833,200.5 456.167,200.5 457.5,200.5C 457.673,204.17 456.007,206.67 452.5,208C 453.025,208.692 453.692,209.192 454.5,209.5C 458.328,207.543 460.162,208.543 460,212.5C 458.989,213.337 457.822,213.67 456.5,213.5C 456.5,214.5 456.5,215.5 456.5,216.5C 459.426,215.539 462.426,214.873 465.5,214.5C 464.566,218.929 461.733,221.595 457,222.5C 452.413,218.187 448.913,213.02 446.5,207C 448.425,204.375 450.758,202.208 453.5,200.5 Z"/></g>
<g><path style="opacity:1" fill="#ebebeb" d="M 435.5,211.5 C 436.822,211.33 437.989,211.663 439,212.5C 441.432,216.374 444.098,220.041 447,223.5C 448.766,222.767 450.599,222.433 452.5,222.5C 451.649,227.506 448.649,229.673 443.5,229C 440.792,224.416 437.958,219.916 435,215.5C 434.421,214.072 434.588,212.738 435.5,211.5 Z"/></g>
<g><path style="opacity:1" fill="#ededed" d="M 424.5,218.5 C 425.552,218.351 426.552,218.517 427.5,219C 431.217,222.385 435.217,225.385 439.5,228C 441.155,229.444 441.822,231.278 441.5,233.5C 435.256,231.032 431.756,233.032 431,239.5C 429.951,240.517 428.784,240.684 427.5,240C 425.884,233.943 424.551,227.776 423.5,221.5C 423.685,220.416 424.018,219.416 424.5,218.5 Z"/></g>
<g><path style="opacity:1" fill="#5e5e5e" d="M 429.5,227.5 C 431.337,227.639 431.67,228.306 430.5,229.5C 429.702,229.043 429.369,228.376 429.5,227.5 Z"/></g>
<g><path style="opacity:1" fill="#e6e6e6" d="M 411.5,226.5 C 413.857,226.337 416.19,226.503 418.5,227C 419.38,228.356 419.714,229.856 419.5,231.5C 417.167,231.5 414.833,231.5 412.5,231.5C 412.5,232.5 412.5,233.5 412.5,234.5C 416.839,233.846 420.673,234.846 424,237.5C 424.595,245.717 420.762,248.717 412.5,246.5C 412.5,244.833 412.5,243.167 412.5,241.5C 414.604,241.799 416.604,241.466 418.5,240.5C 415.938,239.359 413.272,238.526 410.5,238C 406.307,233.683 406.64,229.85 411.5,226.5 Z"/></g>
<g><path style="opacity:1" fill="#a7a7a7" d="M 412.5,183.5 C 407.288,187.793 407.288,192.126 412.5,196.5C 413.209,197.404 414.209,197.737 415.5,197.5C 413.481,203.886 411.147,210.22 408.5,216.5C 403.943,219.366 399.443,222.366 395,225.5C 395.069,229.983 396.569,233.983 399.5,237.5C 394.904,249.455 390.404,261.455 386,273.5C 384.412,278.464 384.245,283.464 385.5,288.5C 386.17,286.709 386.837,285.042 387.5,283.5C 386.9,287.748 388.233,288.915 391.5,287C 398.119,280.552 403.785,273.386 408.5,265.5C 409.667,265.167 410.833,264.833 412,264.5C 414.49,265.336 416.99,266.002 419.5,266.5C 419.737,267.791 419.404,268.791 418.5,269.5C 417.545,267.29 416.045,266.957 414,268.5C 409.087,278.489 402.587,287.322 394.5,295C 390.117,298.028 385.45,300.195 380.5,301.5C 378.628,300.489 376.628,299.655 374.5,299C 371.412,296.434 369.412,293.267 368.5,289.5C 368.66,287.801 368.494,286.134 368,284.5C 363.028,291.142 356.861,296.309 349.5,300C 350.793,300.49 352.127,300.657 353.5,300.5C 351.372,301.629 349.039,301.796 346.5,301C 342.127,299.448 338.461,296.948 335.5,293.5C 335.657,292.127 335.49,290.793 335,289.5C 332.645,292.522 329.978,295.189 327,297.5C 323.794,298.768 320.627,299.768 317.5,300.5C 315.862,299.841 314.195,299.174 312.5,298.5C 310.191,295.502 308.191,292.502 306.5,289.5C 306.657,288.127 306.49,286.793 306,285.5C 299.525,294.182 291.025,299.182 280.5,300.5C 277.087,299.306 273.92,297.64 271,295.5C 267.33,289.218 265.497,282.551 265.5,275.5C 267.129,269.608 269.129,263.941 271.5,258.5C 275.505,251.624 281.171,245.457 288.5,240C 297.249,238.071 304.916,239.904 311.5,245.5C 310.638,261.88 301.971,271.713 285.5,275C 286.793,275.49 288.127,275.657 289.5,275.5C 287.393,276.468 285.059,276.802 282.5,276.5C 282.353,281.214 282.686,285.881 283.5,290.5C 290.988,289.203 297.155,285.536 302,279.5C 308.98,270.892 314.98,261.559 320,251.5C 327.264,241.723 336.098,240.056 346.5,246.5C 348.507,244.992 350.174,243.158 351.5,241C 356.493,241.133 360.827,242.966 364.5,246.5C 356.762,257.659 351.428,269.992 348.5,283.5C 348.804,285.441 349.637,287.107 351,288.5C 351.186,285.964 351.686,283.631 352.5,281.5C 352.192,283.924 352.526,286.257 353.5,288.5C 354.167,288.167 354.833,287.833 355.5,287.5C 358.515,284.317 361.682,281.317 365,278.5C 367.426,273.311 370.592,268.644 374.5,264.5C 382.414,237.996 392.58,212.33 405,187.5C 406.691,184.641 409.191,183.308 412.5,183.5 Z"/></g>
<g><path style="opacity:1" fill="#111111" d="M 406.5,197.5 C 407.833,197.5 409.167,197.5 410.5,197.5C 409.6,204.04 407.433,210.04 404,215.5C 402.115,215.138 401.281,213.971 401.5,212C 403.071,207.119 404.738,202.286 406.5,197.5 Z"/></g>
<g><path style="opacity:1" fill="#f3f3f3" d="M 287.5,264.5 C 289.751,258.635 293.418,253.968 298.5,250.5C 299.15,250.196 299.817,249.863 300.5,249.5C 301.631,251.074 301.798,252.741 301,254.5C 298.305,260.029 294.138,264.029 288.5,266.5C 287.702,266.043 287.369,265.376 287.5,264.5 Z"/></g>
<g><path style="opacity:1" fill="#7a7a7a" d="M 298.5,250.5 C 293.418,253.968 289.751,258.635 287.5,264.5C 286.21,266.14 284.543,266.64 282.5,266C 285.391,259.211 289.725,253.544 295.5,249C 297.157,248.275 298.157,248.775 298.5,250.5 Z"/></g>
<g><path style="opacity:1" fill="#f8f8f8" d="M 340.5,252.5 C 341.5,252.5 342.5,252.5 343.5,252.5C 343.695,256.915 343.195,261.249 342,265.5C 339.633,269.853 337.3,274.187 335,278.5C 331.328,281.342 327.828,284.342 324.5,287.5C 323.548,285.955 323.215,284.288 323.5,282.5C 324.79,273.252 328.29,264.918 334,257.5C 335.777,255.21 337.944,253.543 340.5,252.5 Z"/></g>
<g><path style="opacity:1" fill="#787878" d="M 340.5,252.5 C 337.944,253.543 335.777,255.21 334,257.5C 328.29,264.918 324.79,273.252 323.5,282.5C 322.837,284.042 322.17,285.709 321.5,287.5C 319.958,273.305 324.625,261.471 335.5,252C 337.387,251.22 339.054,251.387 340.5,252.5 Z"/></g>
<g><path style="opacity:1" fill="#7c7c7c" d="M 311.5,245.5 C 314.279,249.019 315.112,253.019 314,257.5C 308.775,267.565 300.609,273.565 289.5,275.5C 288.127,275.657 286.793,275.49 285.5,275C 301.971,271.713 310.638,261.88 311.5,245.5 Z"/></g>
<g><path style="opacity:1" fill="#a8a8a8" d="M 270.5,215.5 C 275.582,265.739 254.582,301.905 207.5,324C 191.86,329.452 175.86,331.952 159.5,331.5C 138.465,329.141 120.631,320.474 106,305.5C 100.419,295.977 101.585,287.477 109.5,280C 129.093,269.397 150.093,265.231 172.5,267.5C 173.693,261.439 175.193,255.439 177,249.5C 181.824,237.183 186.491,224.849 191,212.5C 196.324,205.764 202.491,204.764 209.5,209.5C 208.504,209.414 207.671,209.748 207,210.5C 198.405,229.79 190.905,249.457 184.5,269.5C 185.5,269.5 186.5,269.5 187.5,269.5C 192.5,272.167 197.5,274.833 202.5,277.5C 195.167,277.5 187.833,277.5 180.5,277.5C 179.649,282.225 178.482,286.892 177,291.5C 176.005,292.066 175.172,292.733 174.5,293.5C 172.32,292.883 170.32,291.883 168.5,290.5C 167.574,286.906 167.241,283.24 167.5,279.5C 149.845,277.767 133.178,281.267 117.5,290C 112.168,295.417 112.502,300.251 118.5,304.5C 120.973,307.804 123.973,310.638 127.5,313C 172.889,327.949 211.056,317.449 242,281.5C 255.673,264.466 261.007,245.133 258,223.5C 253.622,206.971 242.789,198.304 225.5,197.5C 213.087,195.951 201.42,198.617 190.5,205.5C 183.823,211.01 177.657,217.01 172,223.5C 170.03,227.273 168.197,231.106 166.5,235C 168.084,239.421 169.417,239.254 170.5,234.5C 170.343,235.873 170.51,237.207 171,238.5C 176.185,234.521 176.685,235.188 172.5,240.5C 174.843,241.725 176.677,241.059 178,238.5C 178.167,238.833 178.333,239.167 178.5,239.5C 175.143,243.663 170.81,245.163 165.5,244C 157.265,239.693 154.431,232.859 157,223.5C 161.934,208.474 171.434,197.307 185.5,190C 195.993,184.097 207.326,181.597 219.5,182.5C 226.407,182.063 233.074,183.063 239.5,185.5C 254.428,190.761 264.761,200.761 270.5,215.5 Z"/></g>
<g><path style="opacity:1" fill="#7b7b7b" d="M 209.5,209.5 C 210.097,209.735 210.43,210.235 210.5,211C 202.536,230.394 194.869,249.894 187.5,269.5C 186.5,269.5 185.5,269.5 184.5,269.5C 190.905,249.457 198.405,229.79 207,210.5C 207.671,209.748 208.504,209.414 209.5,209.5 Z"/></g>
<g><path style="opacity:1" fill="#7c7c7c" d="M 225.5,197.5 C 199.948,199.044 181.615,211.377 170.5,234.5C 169.417,239.254 168.084,239.421 166.5,235C 168.197,231.106 170.03,227.273 172,223.5C 177.657,217.01 183.823,211.01 190.5,205.5C 201.42,198.617 213.087,195.951 225.5,197.5 Z"/></g>
<g><path style="opacity:1" fill="#797979" d="M 399.5,237.5 C 400.89,238.899 401.89,240.566 402.5,242.5C 395.758,255.381 390.758,269.047 387.5,283.5C 386.837,285.042 386.17,286.709 385.5,288.5C 384.245,283.464 384.412,278.464 386,273.5C 390.404,261.455 394.904,249.455 399.5,237.5 Z"/></g>
<g><path style="opacity:1" fill="#7b7b7b" d="M 202.5,277.5 C 196.69,278.49 190.69,278.823 184.5,278.5C 183.313,283.242 181.813,287.909 180,292.5C 178.301,293.406 176.467,293.739 174.5,293.5C 175.172,292.733 176.005,292.066 177,291.5C 178.482,286.892 179.649,282.225 180.5,277.5C 187.833,277.5 195.167,277.5 202.5,277.5 Z"/></g>
<g><path style="opacity:1" fill="#787878" d="M 364.5,246.5 C 366.099,247.799 366.599,249.465 366,251.5C 359.565,260.697 355.065,270.697 352.5,281.5C 351.686,283.631 351.186,285.964 351,288.5C 349.637,287.107 348.804,285.441 348.5,283.5C 351.428,269.992 356.762,257.659 364.5,246.5 Z"/></g>
<g><path style="opacity:1" fill="#7b7b7b" d="M 167.5,279.5 C 152,279.426 137.334,282.593 123.5,289C 116.895,292.646 115.229,297.813 118.5,304.5C 112.502,300.251 112.168,295.417 117.5,290C 133.178,281.267 149.845,277.767 167.5,279.5 Z"/></g>
<g><path style="opacity:1" fill="#797979" d="M 418.5,269.5 C 414.53,274.989 410.696,280.656 407,286.5C 401.958,292.888 395.791,297.721 388.5,301C 385.854,301.497 383.187,301.664 380.5,301.5C 385.45,300.195 390.117,298.028 394.5,295C 402.587,287.322 409.087,278.489 414,268.5C 416.045,266.957 417.545,267.29 418.5,269.5 Z"/></g>
<g><path style="opacity:1" fill="#767676" d="M 368.5,289.5 C 364.342,294.326 359.342,297.992 353.5,300.5C 352.127,300.657 350.793,300.49 349.5,300C 356.861,296.309 363.028,291.142 368,284.5C 368.494,286.134 368.66,287.801 368.5,289.5 Z"/></g>
<g><path style="opacity:1" fill="#7b7b7b" d="M 306.5,289.5 C 299.718,297.556 291.051,301.223 280.5,300.5C 291.025,299.182 299.525,294.182 306,285.5C 306.49,286.793 306.657,288.127 306.5,289.5 Z"/></g>
<g><path style="opacity:1" fill="#7a7a7a" d="M 335.5,293.5 C 331.112,299.685 325.112,302.019 317.5,300.5C 320.627,299.768 323.794,298.768 327,297.5C 329.978,295.189 332.645,292.522 335,289.5C 335.49,290.793 335.657,292.127 335.5,293.5 Z"/></g>
<g><path style="opacity:1" fill="#7c7b7b" d="M 270.5,215.5 C 275.284,229.714 275.617,244.047 271.5,258.5C 269.129,263.941 267.129,269.608 265.5,275.5C 247.617,307.859 220.283,326.692 183.5,332C 175.465,332.736 167.465,332.569 159.5,331.5C 175.86,331.952 191.86,329.452 207.5,324C 254.582,301.905 275.582,265.739 270.5,215.5 Z"/></g>
<g><path style="opacity:1" fill="#f7f5dc" d="M 397.5,307.5 C 385.372,306.63 380.039,312.297 381.5,324.5C 378.012,324.705 374.679,325.539 371.5,327C 368.629,329.703 365.962,332.536 363.5,335.5C 363.652,331.357 365.319,328.024 368.5,325.5C 367.998,324.284 367.665,323.117 367.5,322C 369.061,321.812 369.728,322.645 369.5,324.5C 373.306,324.98 376.639,323.98 379.5,321.5C 380.257,317.102 381.257,312.769 382.5,308.5C 387.562,306.597 392.562,306.263 397.5,307.5 Z"/></g>
<g><path style="opacity:1" fill="#fdfdf7" d="M 278.5,315.5 C 282.887,324.311 280.554,330.811 271.5,335C 278.422,337.337 282.089,342.171 282.5,349.5C 282.444,352.394 281.61,355.061 280,357.5C 279.667,357.167 279.333,356.833 279,356.5C 278.304,359.478 277.804,362.478 277.5,365.5C 272.363,366.961 267.03,367.628 261.5,367.5C 261.608,365.217 262.441,363.217 264,361.5C 264.5,344.837 264.667,328.17 264.5,311.5C 269.859,310.74 274.526,312.074 278.5,315.5 Z"/></g>
<g><path style="opacity:1" fill="#fcfce5" d="M 398.5,307.5 C 399.5,307.5 400.5,307.5 401.5,307.5C 398.039,309.475 395.873,312.475 395,316.5C 394.5,329.829 394.333,343.163 394.5,356.5C 397.375,355.795 399.542,354.129 401,351.5C 401.499,347.179 401.666,342.846 401.5,338.5C 403.471,336.192 405.471,333.858 407.5,331.5C 409.099,331.232 410.432,331.566 411.5,332.5C 411.2,340.223 411.533,347.89 412.5,355.5C 414.421,356.641 416.421,356.808 418.5,356C 419.471,354.519 420.804,353.685 422.5,353.5C 422.799,355.604 422.466,357.604 421.5,359.5C 418.667,359.418 415.667,359.252 412.5,359C 412,358.5 411.5,358 411,357.5C 410.5,349.841 410.334,342.174 410.5,334.5C 407.722,334.022 405.722,335.022 404.5,337.5C 403.67,343.472 403.17,349.472 403,355.5C 401,356.167 399.667,357.5 399,359.5C 395.421,357.119 391.921,357.119 388.5,359.5C 386.865,358.954 385.199,358.62 383.5,358.5C 383.5,357.5 383.5,356.5 383.5,355.5C 387.285,357.082 390.285,356.082 392.5,352.5C 391.443,352.094 390.109,352.094 388.5,352.5C 388.167,339.15 388.501,325.817 389.5,312.5C 393.469,312.397 396.469,310.73 398.5,307.5 Z"/></g>
<g><path style="opacity:1" fill="#827d41" d="M 247.5,309.5 C 244.345,310.442 241.345,311.776 238.5,313.5C 232.25,317.018 230.084,322.351 232,329.5C 234.364,336.19 238.531,341.357 244.5,345C 233.244,344.588 227.577,338.588 227.5,327C 228.08,318.077 232.747,312.411 241.5,310C 243.473,309.505 245.473,309.338 247.5,309.5 Z"/></g>
<g><path style="opacity:1" fill="#807a33" d="M 287.5,341.5 C 294.541,350.135 293.874,358.135 285.5,365.5C 283.786,366.738 281.786,367.405 279.5,367.5C 278.508,367.672 277.842,367.338 277.5,366.5C 283.245,361.995 284.912,356.328 282.5,349.5C 282.089,342.171 278.422,337.337 271.5,335C 280.554,330.811 282.887,324.311 278.5,315.5C 278.489,313.983 277.823,312.816 276.5,312C 272.246,310.735 267.912,309.902 263.5,309.5C 263.667,326.17 263.5,342.837 263,359.5C 262.768,360.737 262.268,361.737 261.5,362.5C 262.762,345.177 262.762,327.844 261.5,310.5C 260.859,311.993 259.859,312.993 258.5,313.5C 258.539,312.417 258.873,311.417 259.5,310.5C 255.555,309.509 251.555,309.176 247.5,309.5C 248.263,308.732 249.263,308.232 250.5,308C 260.882,306.466 270.882,307.633 280.5,311.5C 281.859,313.692 283.692,315.359 286,316.5C 289.421,324.825 287.254,330.991 279.5,335C 282.355,337.031 285.022,339.197 287.5,341.5 Z"/></g>
<g><path style="opacity:1" fill="#f7f6d6" d="M 278.5,315.5 C 274.526,312.074 269.859,310.74 264.5,311.5C 264.667,328.17 264.5,344.837 264,361.5C 262.441,363.217 261.608,365.217 261.5,367.5C 267.03,367.628 272.363,366.961 277.5,365.5C 277.804,362.478 278.304,359.478 279,356.5C 279.333,356.833 279.667,357.167 280,357.5C 281.61,355.061 282.444,352.394 282.5,349.5C 284.912,356.328 283.245,361.995 277.5,366.5C 270.71,369.042 263.71,369.875 256.5,369C 257.056,368.617 257.389,368.117 257.5,367.5C 258.803,365.858 260.136,364.191 261.5,362.5C 262.268,361.737 262.768,360.737 263,359.5C 263.5,342.837 263.667,326.17 263.5,309.5C 267.912,309.902 272.246,310.735 276.5,312C 277.823,312.816 278.489,313.983 278.5,315.5 Z"/></g>
<g><path style="opacity:1" fill="#807b39" d="M 397.5,307.5 C 397.833,307.5 398.167,307.5 398.5,307.5C 396.469,310.73 393.469,312.397 389.5,312.5C 388.501,325.817 388.167,339.15 388.5,352.5C 390.109,352.094 391.443,352.094 392.5,352.5C 390.285,356.082 387.285,357.082 383.5,355.5C 383.167,354.167 382.833,352.833 382.5,351.5C 383.822,351.33 384.989,351.663 386,352.5C 386.917,340.109 386.584,327.776 385,315.5C 384.027,317.392 383.36,319.392 383,321.5C 382.829,329.011 382.329,336.345 381.5,343.5C 381.5,337.833 381.5,332.167 381.5,326.5C 375.5,326.661 371.667,329.661 370,335.5C 369.191,339.695 369.691,343.695 371.5,347.5C 370.503,347.53 369.836,347.03 369.5,346C 368.815,343.205 368.315,340.372 368,337.5C 366.989,336.663 365.822,336.33 364.5,336.5C 363.671,341.453 363.337,346.453 363.5,351.5C 362.243,346.297 362.243,340.964 363.5,335.5C 365.962,332.536 368.629,329.703 371.5,327C 374.679,325.539 378.012,324.705 381.5,324.5C 380.039,312.297 385.372,306.63 397.5,307.5 Z"/></g>
<g><path style="opacity:1" fill="#95916a" d="M 406.5,330.5 C 406.5,331.167 406.833,331.5 407.5,331.5C 405.471,333.858 403.471,336.192 401.5,338.5C 401.5,337.5 401.5,336.5 401.5,335.5C 402.806,333.527 404.473,331.861 406.5,330.5 Z"/></g>
<g><path style="opacity:1" fill="#7e7621" d="M 261.5,362.5 C 260.136,364.191 258.803,365.858 257.5,367.5C 257.217,366.711 256.717,366.044 256,365.5C 255.828,358.654 255.328,351.987 254.5,345.5C 254.334,337.826 254.5,330.159 255,322.5C 255.725,319.21 256.892,316.21 258.5,313.5C 259.859,312.993 260.859,311.993 261.5,310.5C 262.762,327.844 262.762,345.177 261.5,362.5 Z"/></g>
<g><path style="opacity:1" fill="#7e7830" d="M 319.5,352.5 C 309.711,359.173 302.211,357.173 297,346.5C 296.223,341.665 296.723,336.998 298.5,332.5C 300.833,330.167 303.167,327.833 305.5,325.5C 319.817,322.983 326.317,328.983 325,343.5C 323.671,346.829 321.837,349.829 319.5,352.5 Z"/></g>
<g><path style="opacity:1" fill="#fbfaf0" d="M 307.5,327.5 C 314.684,326.854 318.184,330.188 318,337.5C 319.226,342.475 318.393,346.975 315.5,351C 308.385,353.918 304.552,351.418 304,343.5C 303.333,339.5 303.333,335.5 304,331.5C 305.032,329.973 306.199,328.64 307.5,327.5 Z"/></g>
<g><path style="opacity:1" fill="#fbfbea" d="M 363.5,335.5 C 362.243,340.964 362.243,346.297 363.5,351.5C 364.839,353.506 366.506,355.173 368.5,356.5C 373.04,354.303 377.04,351.303 380.5,347.5C 381.172,348.949 381.839,350.282 382.5,351.5C 382.833,352.833 383.167,354.167 383.5,355.5C 381.743,354.708 380.409,353.375 379.5,351.5C 376.74,355.748 372.906,358.748 368,360.5C 366.437,358.079 364.271,355.746 361.5,353.5C 358.049,358.391 353.382,360.225 347.5,359C 346.155,356.278 344.155,354.278 341.5,353C 345.029,347.729 345.362,342.229 342.5,336.5C 341.808,337.025 341.308,337.692 341,338.5C 341.065,344.713 340.232,350.713 338.5,356.5C 335.732,358.746 332.732,359.412 329.5,358.5C 329.331,359.397 328.998,360.397 328.5,361.5C 327.5,360.5 326.5,359.5 325.5,358.5C 327.327,355.55 327.994,352.55 327.5,349.5C 325.972,350.861 324.305,352.028 322.5,353C 323.648,357.595 322.314,358.429 318.5,355.5C 318.557,354.391 318.89,353.391 319.5,352.5C 321.837,349.829 323.671,346.829 325,343.5C 326.317,328.983 319.817,322.983 305.5,325.5C 305.611,324.883 305.944,324.383 306.5,324C 311.942,322.128 317.275,322.294 322.5,324.5C 323.083,326.002 323.916,327.335 325,328.5C 326.617,327.464 326.784,326.297 325.5,325C 327.397,323.89 329.23,323.724 331,324.5C 333.032,322.227 335.532,320.56 338.5,319.5C 341.753,321.72 342.087,324.22 339.5,327C 339.833,327.5 340.167,328 340.5,328.5C 342.063,327.055 343.396,325.389 344.5,323.5C 347.926,323.025 351.092,322.025 354,320.5C 354.96,324.298 356.294,327.965 358,331.5C 359.257,333.746 361.09,335.079 363.5,335.5 Z"/></g>
<g><path style="opacity:1" fill="#7f772c" d="M 332.5,324.5 C 333.822,324.33 334.989,324.663 336,325.5C 337.153,328.711 337.82,332.044 338,335.5C 340.5,332.333 343,329.167 345.5,326C 348.338,323.88 351.004,324.047 353.5,326.5C 354.154,335.697 354.821,344.864 355.5,354C 353.15,357.051 350.65,357.217 348,354.5C 347.5,346.841 347.334,339.174 347.5,331.5C 343.124,332.024 339.957,334.357 338,338.5C 337.667,342.833 337.333,347.167 337,351.5C 336.119,354.885 333.952,356.552 330.5,356.5C 330.5,347.833 330.5,339.167 330.5,330.5C 329.325,330.719 328.325,330.386 327.5,329.5C 329.394,328.055 331.06,326.388 332.5,324.5 Z"/></g>
<g><path style="opacity:1" fill="#fbfae7" d="M 422.5,352.5 C 421.687,351.347 420.687,351.347 419.5,352.5C 418.668,344.187 418.168,335.853 418,327.5C 416.826,325.329 414.993,324.329 412.5,324.5C 415.655,323.035 418.489,323.701 421,326.5C 422.011,325.663 423.178,325.33 424.5,325.5C 424.421,324.07 424.754,322.736 425.5,321.5C 424.833,321.167 424.167,320.833 423.5,320.5C 425.936,319.668 428.103,320.335 430,322.5C 432,321.167 434,321.167 436,322.5C 437.131,324.725 437.964,327.058 438.5,329.5C 437.781,335.062 437.447,340.562 437.5,346C 439.134,346.494 440.801,346.66 442.5,346.5C 444.132,339.324 444.465,332.157 443.5,325C 446.872,323.799 449.872,321.966 452.5,319.5C 453.949,321.611 454.949,323.944 455.5,326.5C 454.536,333.442 454.203,340.442 454.5,347.5C 456.167,347.5 457.833,347.5 459.5,347.5C 457.466,357.071 451.633,360.071 442,356.5C 439.154,357.644 436.154,358.311 433,358.5C 431.5,358.167 430,357.833 428.5,357.5C 428.023,356.069 427.357,354.736 426.5,353.5C 425.631,347.476 424.631,341.476 423.5,335.5C 422.589,340.239 421.922,344.739 421.5,349C 424.954,349.628 425.287,350.795 422.5,352.5 Z"/></g>
<g><path style="opacity:1" fill="#7d772a" d="M 429.5,351.5 C 429.5,343.167 429.5,334.833 429.5,326.5C 431.911,326.137 433.411,327.137 434,329.5C 434.172,335.681 434.672,341.681 435.5,347.5C 435.5,348.5 435.5,349.5 435.5,350.5C 439.273,351.178 442.106,349.844 444,346.5C 445.204,340.247 445.871,333.914 446,327.5C 447.509,325.081 449.675,324.081 452.5,324.5C 452.5,333.5 452.5,342.5 452.5,351.5C 456.876,350.888 457.543,352.054 454.5,355C 447.92,358.105 444.753,355.938 445,348.5C 441.633,353.851 436.966,356.184 431,355.5C 430.209,354.255 429.709,352.922 429.5,351.5 Z"/></g>
<g><path style="opacity:1" fill="#7e773e" d="M 435.5,347.5 C 434.672,341.681 434.172,335.681 434,329.5C 433.411,327.137 431.911,326.137 429.5,326.5C 429.5,334.833 429.5,343.167 429.5,351.5C 429.108,343.15 428.108,334.817 426.5,326.5C 426.709,325.914 427.043,325.414 427.5,325C 430.834,323.788 433.334,324.621 435,327.5C 435.5,334.158 435.666,340.825 435.5,347.5 Z"/></g>
<g><path style="opacity:1" fill="#80751f" d="M 409.5,326.5 C 411.833,326.5 414.167,326.5 416.5,326.5C 417.501,335.509 417.501,344.509 416.5,353.5C 414.675,354.571 413.508,353.904 413,351.5C 412.828,344.987 412.328,338.653 411.5,332.5C 410.432,331.566 409.099,331.232 407.5,331.5C 406.833,331.5 406.5,331.167 406.5,330.5C 407.147,328.859 408.147,327.526 409.5,326.5 Z"/></g>
<g><path style="opacity:1" fill="#7f7724" d="M 382.5,351.5 C 381.839,350.282 381.172,348.949 380.5,347.5C 377.04,351.303 373.04,354.303 368.5,356.5C 366.506,355.173 364.839,353.506 363.5,351.5C 363.337,346.453 363.671,341.453 364.5,336.5C 365.822,336.33 366.989,336.663 368,337.5C 368.315,340.372 368.815,343.205 369.5,346C 369.836,347.03 370.503,347.53 371.5,347.5C 373.527,347.662 375.527,347.495 377.5,347C 378.705,345.624 380.038,344.458 381.5,343.5C 382.329,336.345 382.829,329.011 383,321.5C 383.36,319.392 384.027,317.392 385,315.5C 386.584,327.776 386.917,340.109 386,352.5C 384.989,351.663 383.822,351.33 382.5,351.5 Z"/></g>
<g><path style="opacity:1" fill="#fafaea" d="M 381.5,343.5 C 380.038,344.458 378.705,345.624 377.5,347C 375.527,347.495 373.527,347.662 371.5,347.5C 369.691,343.695 369.191,339.695 370,335.5C 371.667,329.661 375.5,326.661 381.5,326.5C 381.5,332.167 381.5,337.833 381.5,343.5 Z"/></g>
<g><path style="opacity:1" fill="#7d752a" d="M 401.5,307.5 C 404.572,307.183 407.572,307.516 410.5,308.5C 408.08,311.077 405.08,312.077 401.5,311.5C 401.5,319.5 401.5,327.5 401.5,335.5C 401.5,336.5 401.5,337.5 401.5,338.5C 401.666,342.846 401.499,347.179 401,351.5C 399.542,354.129 397.375,355.795 394.5,356.5C 394.333,343.163 394.5,329.829 395,316.5C 395.873,312.475 398.039,309.475 401.5,307.5 Z"/></g>
<g><path style="opacity:1" fill="#817c43" d="M 412.5,324.5 C 414.993,324.329 416.826,325.329 418,327.5C 418.168,335.853 418.668,344.187 419.5,352.5C 420.687,351.347 421.687,351.347 422.5,352.5C 422.5,352.833 422.5,353.167 422.5,353.5C 420.804,353.685 419.471,354.519 418.5,356C 416.421,356.808 414.421,356.641 412.5,355.5C 411.533,347.89 411.2,340.223 411.5,332.5C 412.328,338.653 412.828,344.987 413,351.5C 413.508,353.904 414.675,354.571 416.5,353.5C 417.501,344.509 417.501,335.509 416.5,326.5C 414.167,326.5 411.833,326.5 409.5,326.5C 410.29,325.599 411.29,324.932 412.5,324.5 Z"/></g>
<g><path style="opacity:1" fill="#f5f4da" d="M 298.5,332.5 C 296.723,336.998 296.223,341.665 297,346.5C 302.211,357.173 309.711,359.173 319.5,352.5C 318.89,353.391 318.557,354.391 318.5,355.5C 316.296,357.362 313.629,358.362 310.5,358.5C 304.995,357.128 299.662,355.462 294.5,353.5C 293.781,359.218 290.781,363.218 285.5,365.5C 293.874,358.135 294.541,350.135 287.5,341.5C 289.17,341.751 290.67,342.418 292,343.5C 292.92,346.101 293.587,348.768 294,351.5C 294.414,351.957 294.914,352.291 295.5,352.5C 295.626,346.907 295.792,341.241 296,335.5C 296.236,333.881 297.069,332.881 298.5,332.5 Z"/></g>
<g><path style="opacity:1" fill="#797845" d="M 254.5,345.5 C 255.328,351.987 255.828,358.654 256,365.5C 256.717,366.044 257.217,366.711 257.5,367.5C 257.389,368.117 257.056,368.617 256.5,369C 263.71,369.875 270.71,369.042 277.5,366.5C 277.842,367.338 278.508,367.672 279.5,367.5C 278.833,368.167 278.167,368.833 277.5,369.5C 268.845,371.576 260.178,371.743 251.5,370C 252.448,369.517 253.448,369.351 254.5,369.5C 254.5,361.5 254.5,353.5 254.5,345.5 Z"/></g>
<g><path style="opacity:1" fill="#f8f7e3" d="M 247.5,309.5 C 251.555,309.176 255.555,309.509 259.5,310.5C 258.873,311.417 258.539,312.417 258.5,313.5C 256.892,316.21 255.725,319.21 255,322.5C 254.5,330.159 254.334,337.826 254.5,345.5C 254.5,353.5 254.5,361.5 254.5,369.5C 253.448,369.351 252.448,369.517 251.5,370C 260.178,371.743 268.845,371.576 277.5,369.5C 276.319,371.067 274.653,371.901 272.5,372C 266.556,372.147 260.723,372.981 255,374.5C 253.086,373.921 251.419,372.921 250,371.5C 248.765,372.615 247.598,372.615 246.5,371.5C 244.789,369.76 243.956,367.76 244,365.5C 246.565,367.179 249.398,367.846 252.5,367.5C 252.773,355.285 252.773,343.119 252.5,331C 252.928,325.793 253.595,320.626 254.5,315.5C 251.315,315.98 248.481,315.314 246,313.5C 245.333,314.167 244.667,314.833 244,315.5C 242.599,313.808 240.766,313.141 238.5,313.5C 241.345,311.776 244.345,310.442 247.5,309.5 Z"/></g>
</svg>
