<?xml version="1.0" encoding="UTF-8"?>
<!DOCTYPE svg PUBLIC "-//W3C//DTD SVG 1.1//EN" "http://www.w3.org/Graphics/SVG/1.1/DTD/svg11.dtd">
<svg xmlns="http://www.w3.org/2000/svg" version="1.1" width="1024px" height="1024px" style="shape-rendering:geometricPrecision; text-rendering:geometricPrecision; image-rendering:optimizeQuality; fill-rule:evenodd; clip-rule:evenodd" xmlns:xlink="http://www.w3.org/1999/xlink">
<g><path style="opacity:1" fill="#e8ebef" d="M -0.5,-0.5 C 340.833,-0.5 682.167,-0.5 1023.5,-0.5C 1023.5,340.833 1023.5,682.167 1023.5,1023.5C 682.167,1023.5 340.833,1023.5 -0.5,1023.5C -0.5,682.167 -0.5,340.833 -0.5,-0.5 Z"/></g>
<g><path style="opacity:1" fill="#1b3372" d="M 319.5,510.5 C 311.629,512.325 303.629,512.825 295.5,512C 292.576,511.012 289.576,510.346 286.5,510C 286.957,509.586 287.291,509.086 287.5,508.5C 283.766,507.654 280.432,506.154 277.5,504C 276.978,503.439 276.645,502.772 276.5,502C 277.615,500.607 278.115,499.107 278,497.5C 277.259,498.641 276.425,498.641 275.5,497.5C 274.717,499.288 273.384,500.288 271.5,500.5C 270.599,499.71 269.932,498.71 269.5,497.5C 267.193,492.003 264.86,486.503 262.5,481C 263.01,479.174 263.844,479.007 265,480.5C 267.313,483.497 268.98,486.831 270,490.5C 270.87,489.892 271.37,489.059 271.5,488C 269.938,485.208 269.605,482.375 270.5,479.5C 273.042,481.917 274.542,484.917 275,488.5C 277.833,490 280,492.167 281.5,495C 280.692,495.308 280.025,495.808 279.5,496.5C 280.991,497.244 282.491,497.91 284,498.5C 284.684,499.784 284.517,500.951 283.5,502C 284.793,502.49 286.127,502.657 287.5,502.5C 287.307,499.692 286.64,497.025 285.5,494.5C 286.552,494.649 287.552,494.483 288.5,494C 282.76,490.758 279.094,485.924 277.5,479.5C 276.167,479.5 274.833,479.5 273.5,479.5C 273.99,472.607 273.323,465.94 271.5,459.5C 265.954,458.34 264.287,455.007 266.5,449.5C 267,449.167 267.5,448.833 268,448.5C 269.136,449.783 270.469,450.783 272,451.5C 273.731,449.683 275.565,447.849 277.5,446C 279.579,445.192 281.579,445.359 283.5,446.5C 282.675,447.386 281.675,447.719 280.5,447.5C 280.33,448.822 280.663,449.989 281.5,451C 284.133,450.747 286.8,450.747 289.5,451C 287.963,452.11 287.297,453.61 287.5,455.5C 285.286,455.291 283.619,456.124 282.5,458C 279.021,468.849 280.354,478.849 286.5,488C 290.696,490.512 295.196,492.346 300,493.5C 304.469,492.491 308.969,492.491 313.5,493.5C 315.167,493.167 316.833,492.833 318.5,492.5C 320.602,488.772 322.602,485.106 324.5,481.5C 324.796,479.597 325.463,477.93 326.5,476.5C 329.552,466.767 327.219,458.267 319.5,451C 310.643,445.677 301.476,445.177 292,449.5C 290.077,447.119 287.577,445.619 284.5,445C 283.773,443.601 283.273,442.101 283,440.5C 281.542,441.747 280.042,441.747 278.5,440.5C 276.134,443.177 273.467,445.511 270.5,447.5C 270.167,447.167 269.833,446.833 269.5,446.5C 270.782,444.821 271.782,442.987 272.5,441C 277.424,436.861 282.757,433.194 288.5,430C 295.702,428.072 303.036,427.405 310.5,428C 315.291,428.209 318.291,430.543 319.5,435C 324.766,436.817 329.766,436.151 334.5,433C 332.941,431.004 332.274,428.671 332.5,426C 333.808,417.138 333.808,408.472 332.5,400C 335.958,398.585 339.625,398.085 343.5,398.5C 343.649,435.296 343.982,471.963 344.5,508.5C 343.68,510.111 342.346,510.778 340.5,510.5C 341.196,478.977 341.196,447.477 340.5,416C 340.333,410.833 340.167,405.667 340,400.5C 339.586,400.043 339.086,399.709 338.5,399.5C 337.656,436.496 337.656,473.496 338.5,510.5C 337.5,510.5 336.5,510.5 335.5,510.5C 335.5,508.833 335.5,507.167 335.5,505.5C 334.5,505.5 333.5,505.5 332.5,505.5C 332.286,507.144 332.62,508.644 333.5,510C 332.207,510.49 330.873,510.657 329.5,510.5C 329.327,507.821 328.327,505.487 326.5,503.5C 328.833,500.58 331.667,498.247 335,496.5C 335.781,495.056 335.614,493.723 334.5,492.5C 333.614,493.325 333.281,494.325 333.5,495.5C 330.459,495.551 327.792,496.551 325.5,498.5C 323.759,497.751 322.092,497.417 320.5,497.5C 319.571,498.689 319.238,500.022 319.5,501.5C 321.359,501.461 322.692,502.294 323.5,504C 322.62,505.356 322.286,506.856 322.5,508.5C 321.127,508.343 319.793,508.51 318.5,509C 319.056,509.383 319.389,509.883 319.5,510.5 Z"/></g>
<g><path style="opacity:1" fill="#1d3572" d="M 564.5,399.5 C 563.542,436.159 563.208,473.159 563.5,510.5C 564.5,510.5 565.5,510.5 566.5,510.5C 566.389,511.117 566.056,511.617 565.5,512C 559.5,512.667 553.5,512.667 547.5,512C 546.934,511.005 546.267,510.172 545.5,509.5C 545.168,472.663 545.502,435.996 546.5,399.5C 546.504,420.792 547.171,420.792 548.5,399.5C 553.963,398.194 559.296,398.194 564.5,399.5 Z"/></g>
<g><path style="opacity:1" fill="#c3cdef" d="M 326.5,400.5 C 326.832,411.52 326.499,422.52 325.5,433.5C 324.893,433.376 324.56,433.043 324.5,432.5C 325.167,421.833 325.833,411.167 326.5,400.5 Z"/></g>
<g><path style="opacity:1" fill="#1b3373" d="M 605.5,460.5 C 604.596,459.791 604.263,458.791 604.5,457.5C 608.781,458.517 611.114,456.85 611.5,452.5C 610.868,448.886 610.535,445.219 610.5,441.5C 610.287,436.812 610.954,432.312 612.5,428C 610.323,426.814 609.323,424.981 609.5,422.5C 611.861,422.674 614.194,423.007 616.5,423.5C 616.5,424.5 616.5,425.5 616.5,426.5C 617.5,426.5 618.5,426.5 619.5,426.5C 619.67,425.178 619.337,424.011 618.5,423C 620.886,422.716 621.552,421.716 620.5,420C 621.872,419.598 623.205,419.098 624.5,418.5C 624.244,421.435 624.578,424.435 625.5,427.5C 632.208,428.466 634.541,425.799 632.5,419.5C 634.697,417.694 637.03,417.361 639.5,418.5C 638.065,419.929 637.065,421.595 636.5,423.5C 637.891,426.792 639.724,427.125 642,424.5C 642.333,424.833 642.667,425.167 643,425.5C 643.146,430.32 642.979,435.154 642.5,440C 642.568,442.95 643.234,445.617 644.5,448C 643.095,449.269 641.429,449.769 639.5,449.5C 639.5,450.833 639.5,452.167 639.5,453.5C 631.6,453.034 623.934,453.867 616.5,456C 616.833,456.333 617.167,456.667 617.5,457C 616.692,457.308 616.025,457.808 615.5,458.5C 618.107,459.318 620.774,459.818 623.5,460C 617.509,460.499 611.509,460.666 605.5,460.5 Z"/></g>
<g><path style="opacity:1" fill="#1e3571" d="M 483.5,514.5 C 464.875,509.875 453.208,498.208 448.5,479.5C 446.31,452.406 457.976,434.74 483.5,426.5C 493.764,425.132 503.43,427.132 512.5,432.5C 513.228,430.807 514.228,429.307 515.5,428C 521.833,427.333 528.167,427.333 534.5,428C 535.126,428.75 535.626,429.584 536,430.5C 536.667,456.833 536.667,483.167 536,509.5C 535.167,510.333 534.333,511.167 533.5,512C 527.5,512.667 521.5,512.667 515.5,512C 514.44,510.702 513.274,509.535 512,508.5C 503.102,513.234 493.602,515.234 483.5,514.5 Z"/></g>
<g><path style="opacity:1" fill="#e76154" d="M 674.5,459.5 C 674.443,460.609 674.11,461.609 673.5,462.5C 672.833,462.5 672.167,462.5 671.5,462.5C 664.687,461.509 657.687,461.175 650.5,461.5C 650.18,450.585 650.513,439.752 651.5,429C 662.077,428.181 672.577,428.348 683,429.5C 683.667,431.167 683.667,432.833 683,434.5C 678.284,442.147 675.451,450.48 674.5,459.5 Z"/></g>
<g><path style="opacity:1" fill="#1e346d" d="M 438.5,450.5 C 442.295,458.921 443.128,467.588 441,476.5C 440.184,477.823 439.017,478.489 437.5,478.5C 418.155,478.167 398.822,478.5 379.5,479.5C 379.624,480.107 379.957,480.44 380.5,480.5C 384.323,488.297 390.656,492.63 399.5,493.5C 397.372,494.629 395.039,494.796 392.5,494C 389.994,492.701 387.327,491.701 384.5,491C 384.207,487.906 382.541,486.406 379.5,486.5C 379.806,482.503 378.806,479.67 376.5,478C 377.34,476.829 378.173,475.662 379,474.5C 395.243,474.783 412.91,475.45 432,476.5C 432.692,475.975 433.192,475.308 433.5,474.5C 432.52,473.019 431.353,471.685 430,470.5C 425.667,470.833 421.333,471.167 417,471.5C 416,470.5 415,469.5 414,468.5C 409.667,468.833 405.333,469.167 401,469.5C 400.5,469 400,468.5 399.5,468C 404.864,467.829 410.198,467.329 415.5,466.5C 416.833,465.5 416.833,464.5 415.5,463.5C 403.674,462.833 392.007,462.167 380.5,461.5C 393.517,461.832 406.517,461.499 419.5,460.5C 419.376,459.893 419.043,459.56 418.5,459.5C 414.864,451.088 408.364,447.088 399,447.5C 390.056,447.38 383.889,451.38 380.5,459.5C 379.833,459.5 379.5,459.833 379.5,460.5C 378.522,460.189 377.855,459.522 377.5,458.5C 380.29,455.57 380.623,452.57 378.5,449.5C 377.205,450.098 375.872,450.598 374.5,451C 373.164,453.2 371.498,455.033 369.5,456.5C 368.558,456.392 367.725,456.059 367,455.5C 365.655,453.17 365.488,450.837 366.5,448.5C 367.386,449.325 367.719,450.325 367.5,451.5C 370.5,451.833 371.833,450.5 371.5,447.5C 376.081,446.638 380.581,447.305 385,449.5C 391.131,446.932 397.298,444.598 403.5,442.5C 400.123,441.09 396.956,440.09 394,439.5C 393.333,443.5 392.667,443.5 392,439.5C 389.777,442.514 386.944,444.347 383.5,445C 384.26,443.559 384.926,442.059 385.5,440.5C 383.205,439.864 381.539,438.531 380.5,436.5C 378.579,435.359 376.579,435.192 374.5,436C 369.593,440.011 365.26,444.511 361.5,449.5C 361.5,449.167 361.5,448.833 361.5,448.5C 376.289,426.385 395.955,420.551 420.5,431C 428.488,435.815 434.488,442.315 438.5,450.5 Z"/></g>
<g><path style="opacity:1" fill="#eb9548" d="M 597.5,427.5 C 600.287,428.477 603.287,428.81 606.5,428.5C 606.884,438.222 606.551,445.222 605.5,449.5C 604.5,449.5 603.5,449.5 602.5,449.5C 603.057,451.949 603.057,454.282 602.5,456.5C 601.158,454.995 599.492,454.328 597.5,454.5C 597.719,455.675 597.386,456.675 596.5,457.5C 595.662,454.467 595.996,451.467 597.5,448.5C 595.955,447.548 594.288,447.215 592.5,447.5C 592.932,444.123 592.265,441.123 590.5,438.5C 590.073,435.99 589.407,433.657 588.5,431.5C 588.672,430.508 588.338,429.842 587.5,429.5C 587.693,425.993 587.027,422.66 585.5,419.5C 582.232,418.513 578.898,418.18 575.5,418.5C 575.007,416.194 574.674,413.861 574.5,411.5C 590.028,406.008 597.695,411.341 597.5,427.5 Z"/></g>
<g><path style="opacity:1" fill="#27356d" d="M 649.5,426.5 C 649.5,438.5 649.5,450.5 649.5,462.5C 637.833,462.5 626.167,462.5 614.5,462.5C 611.5,461.833 608.5,461.167 605.5,460.5C 611.509,460.666 617.509,460.499 623.5,460C 620.774,459.818 618.107,459.318 615.5,458.5C 616.025,457.808 616.692,457.308 617.5,457C 617.167,456.667 616.833,456.333 616.5,456C 623.934,453.867 631.6,453.034 639.5,453.5C 639.5,452.167 639.5,450.833 639.5,449.5C 641.429,449.769 643.095,449.269 644.5,448C 643.234,445.617 642.568,442.95 642.5,440C 642.979,435.154 643.146,430.32 643,425.5C 642.667,425.167 642.333,424.833 642,424.5C 639.724,427.125 637.891,426.792 636.5,423.5C 637.065,421.595 638.065,419.929 639.5,418.5C 637.03,417.361 634.697,417.694 632.5,419.5C 634.541,425.799 632.208,428.466 625.5,427.5C 624.578,424.435 624.244,421.435 624.5,418.5C 623.205,419.098 621.872,419.598 620.5,420C 621.552,421.716 620.886,422.716 618.5,423C 619.337,424.011 619.67,425.178 619.5,426.5C 618.5,426.5 617.5,426.5 616.5,426.5C 616.5,425.5 616.5,424.5 616.5,423.5C 614.194,423.007 611.861,422.674 609.5,422.5C 609.323,424.981 610.323,426.814 612.5,428C 610.954,432.312 610.287,436.812 610.5,441.5C 610.535,445.219 610.868,448.886 611.5,452.5C 611.114,456.85 608.781,458.517 604.5,457.5C 605.789,456.363 606.789,455.03 607.5,453.5C 608.331,441.674 608.831,429.674 609,417.5C 611.228,415.887 613.728,415.22 616.5,415.5C 617.319,404.844 622.986,400.344 633.5,402C 639.165,405.162 641.832,409.995 641.5,416.5C 643.792,416.244 645.959,416.577 648,417.5C 648.181,420.695 648.681,423.695 649.5,426.5 Z"/></g>
<g><path style="opacity:1" fill="#d9e5f7" d="M 626.5,420.5 C 631.159,420.015 632.492,421.848 630.5,426C 629.216,426.684 628.049,426.517 627,425.5C 626.506,423.866 626.34,422.199 626.5,420.5 Z"/></g>
<g><path style="opacity:1" fill="#e2e7ed" d="M 626.5,403.5 C 634.316,403.65 637.982,407.65 637.5,415.5C 631.833,415.5 626.167,415.5 620.5,415.5C 620.337,413.143 620.503,410.81 621,408.5C 622.73,406.598 624.563,404.931 626.5,403.5 Z"/></g>
<g><path style="opacity:1" fill="#2b3966" d="M 547.5,397.5 C 553.842,397.334 560.175,397.5 566.5,398C 567,398.5 567.5,399 568,399.5C 568.667,436.167 568.667,472.833 568,509.5C 567.617,510.056 567.117,510.389 566.5,510.5C 567.16,473.152 566.494,436.152 564.5,399.5C 559.296,398.194 553.963,398.194 548.5,399.5C 547.171,420.792 546.504,420.792 546.5,399.5C 546.833,398.833 547.167,398.167 547.5,397.5 Z"/></g>
<g><path style="opacity:1" fill="#2d3b61" d="M 744.5,450.5 C 743.833,450.5 743.5,450.833 743.5,451.5C 742.5,451.167 741.833,450.5 741.5,449.5C 744.48,441.302 741.48,438.136 732.5,440C 731.177,440.816 730.511,441.983 730.5,443.5C 729.348,444.625 728.348,444.625 727.5,443.5C 730.42,436.465 735.42,434.632 742.5,438C 746.866,441.65 747.532,445.817 744.5,450.5 Z"/></g>
<g><path style="opacity:1" fill="#1f3670" d="M 349.5,400.5 C 349.667,437.168 349.5,473.835 349,510.5C 348.25,511.126 347.416,511.626 346.5,512C 340.509,512.499 334.509,512.666 328.5,512.5C 327.569,510.978 326.402,509.645 325,508.5C 323.2,509.32 321.366,509.986 319.5,510.5C 319.389,509.883 319.056,509.383 318.5,509C 319.793,508.51 321.127,508.343 322.5,508.5C 322.286,506.856 322.62,505.356 323.5,504C 322.692,502.294 321.359,501.461 319.5,501.5C 319.238,500.022 319.571,498.689 320.5,497.5C 322.092,497.417 323.759,497.751 325.5,498.5C 327.792,496.551 330.459,495.551 333.5,495.5C 333.281,494.325 333.614,493.325 334.5,492.5C 335.614,493.723 335.781,495.056 335,496.5C 331.667,498.247 328.833,500.58 326.5,503.5C 328.327,505.487 329.327,507.821 329.5,510.5C 330.873,510.657 332.207,510.49 333.5,510C 332.62,508.644 332.286,507.144 332.5,505.5C 333.5,505.5 334.5,505.5 335.5,505.5C 335.5,507.167 335.5,508.833 335.5,510.5C 336.5,510.5 337.5,510.5 338.5,510.5C 337.656,473.496 337.656,436.496 338.5,399.5C 339.086,399.709 339.586,400.043 340,400.5C 340.167,405.667 340.333,410.833 340.5,416C 341.196,447.477 341.196,478.977 340.5,510.5C 342.346,510.778 343.68,510.111 344.5,508.5C 343.982,471.963 343.649,435.296 343.5,398.5C 339.625,398.085 335.958,398.585 332.5,400C 333.808,408.472 333.808,417.138 332.5,426C 332.274,428.671 332.941,431.004 334.5,433C 329.766,436.151 324.766,436.817 319.5,435C 318.291,430.543 315.291,428.209 310.5,428C 303.036,427.405 295.702,428.072 288.5,430C 282.757,433.194 277.424,436.861 272.5,441C 271.782,442.987 270.782,444.821 269.5,446.5C 269.833,446.833 270.167,447.167 270.5,447.5C 273.467,445.511 276.134,443.177 278.5,440.5C 280.042,441.747 281.542,441.747 283,440.5C 283.273,442.101 283.773,443.601 284.5,445C 287.577,445.619 290.077,447.119 292,449.5C 301.476,445.177 310.643,445.677 319.5,451C 327.219,458.267 329.552,466.767 326.5,476.5C 327.395,456.229 317.728,447.062 297.5,449C 293.968,450.928 290.634,453.095 287.5,455.5C 287.297,453.61 287.963,452.11 289.5,451C 286.8,450.747 284.133,450.747 281.5,451C 280.663,449.989 280.33,448.822 280.5,447.5C 281.675,447.719 282.675,447.386 283.5,446.5C 281.579,445.359 279.579,445.192 277.5,446C 275.565,447.849 273.731,449.683 272,451.5C 270.469,450.783 269.136,449.783 268,448.5C 267.5,448.833 267,449.167 266.5,449.5C 264.287,455.007 265.954,458.34 271.5,459.5C 273.323,465.94 273.99,472.607 273.5,479.5C 274.833,479.5 276.167,479.5 277.5,479.5C 279.094,485.924 282.76,490.758 288.5,494C 287.552,494.483 286.552,494.649 285.5,494.5C 286.64,497.025 287.307,499.692 287.5,502.5C 286.127,502.657 284.793,502.49 283.5,502C 284.517,500.951 284.684,499.784 284,498.5C 282.491,497.91 280.991,497.244 279.5,496.5C 280.025,495.808 280.692,495.308 281.5,495C 280,492.167 277.833,490 275,488.5C 274.542,484.917 273.042,481.917 270.5,479.5C 269.605,482.375 269.938,485.208 271.5,488C 271.37,489.059 270.87,489.892 270,490.5C 268.98,486.831 267.313,483.497 265,480.5C 263.844,479.007 263.01,479.174 262.5,481C 264.86,486.503 267.193,492.003 269.5,497.5C 260.288,485.246 257.621,471.58 261.5,456.5C 269.786,435.716 285.119,425.549 307.5,426C 313.674,427.097 319.34,429.263 324.5,432.5C 324.56,433.043 324.893,433.376 325.5,433.5C 326.499,422.52 326.832,411.52 326.5,400.5C 327.343,398.827 328.676,397.66 330.5,397C 335.5,396.333 340.5,396.333 345.5,397C 347.324,397.66 348.657,398.827 349.5,400.5 Z"/></g>
<g><path style="opacity:1" fill="#dee9ed" d="M 741.5,449.5 C 740.883,449.611 740.383,449.944 740,450.5C 737.246,448.873 734.412,447.373 731.5,446C 730.748,445.329 730.414,444.496 730.5,443.5C 730.511,441.983 731.177,440.816 732.5,440C 741.48,438.136 744.48,441.302 741.5,449.5 Z"/></g>
<g><path style="opacity:1" fill="#f8d9c5" d="M 588.5,431.5 C 589.407,433.657 590.073,435.99 590.5,438.5C 590.982,442.873 591.648,447.206 592.5,451.5C 592.5,452.167 592.5,452.833 592.5,453.5C 591.073,451.852 590.24,449.852 590,447.5C 589.17,442.192 588.67,436.859 588.5,431.5 Z"/></g>
<g><path style="opacity:1" fill="#d5726c" d="M 649.5,426.5 C 660.505,426.333 671.505,426.5 682.5,427C 685.087,428.525 685.92,430.692 685,433.5C 681.367,442.26 677.867,450.927 674.5,459.5C 675.451,450.48 678.284,442.147 683,434.5C 683.667,432.833 683.667,431.167 683,429.5C 672.577,428.348 662.077,428.181 651.5,429C 650.513,439.752 650.18,450.585 650.5,461.5C 657.687,461.175 664.687,461.509 671.5,462.5C 664.167,462.5 656.833,462.5 649.5,462.5C 649.5,450.5 649.5,438.5 649.5,426.5 Z"/></g>
<g><path style="opacity:1" fill="#e5e9ef" d="M 418.5,459.5 C 405.833,460.833 393.167,460.833 380.5,459.5C 383.889,451.38 390.056,447.38 399,447.5C 408.364,447.088 414.864,451.088 418.5,459.5 Z"/></g>
<g><path style="opacity:1" fill="#263665" d="M 483.5,426.5 C 457.976,434.74 446.31,452.406 448.5,479.5C 445.711,467.06 447.711,455.394 454.5,444.5C 461.802,434.683 471.469,428.683 483.5,426.5 Z"/></g>
<g><path style="opacity:1" fill="#e09257" d="M 597.5,427.5 C 600.833,427.5 604.167,427.5 607.5,427.5C 607.5,436.167 607.5,444.833 607.5,453.5C 606.789,455.03 605.789,456.363 604.5,457.5C 601.894,458.85 601.894,460.35 604.5,462C 607.482,462.498 610.482,462.665 613.5,462.5C 613.5,462.833 613.5,463.167 613.5,463.5C 612.539,465.265 612.205,467.265 612.5,469.5C 610.821,469.715 609.821,469.048 609.5,467.5C 611.048,467.179 611.715,466.179 611.5,464.5C 607.207,463.97 603.373,464.97 600,467.5C 600.74,464.251 601.073,460.918 601,457.5C 599.915,458.293 598.748,458.96 597.5,459.5C 596.513,462.768 596.18,466.102 596.5,469.5C 595.566,468.432 595.232,467.099 595.5,465.5C 595.23,460.55 594.23,455.883 592.5,451.5C 591.648,447.206 590.982,442.873 590.5,438.5C 592.265,441.123 592.932,444.123 592.5,447.5C 594.288,447.215 595.955,447.548 597.5,448.5C 595.996,451.467 595.662,454.467 596.5,457.5C 597.386,456.675 597.719,455.675 597.5,454.5C 599.492,454.328 601.158,454.995 602.5,456.5C 603.057,454.282 603.057,451.949 602.5,449.5C 603.5,449.5 604.5,449.5 605.5,449.5C 606.551,445.222 606.884,438.222 606.5,428.5C 603.287,428.81 600.287,428.477 597.5,427.5 Z"/></g>
<g><path style="opacity:1" fill="#1b3479" d="M 564.5,399.5 C 566.494,436.152 567.16,473.152 566.5,510.5C 565.5,510.5 564.5,510.5 563.5,510.5C 563.208,473.159 563.542,436.159 564.5,399.5 Z"/></g>
<g><path style="opacity:1" fill="#8c9bbb" d="M 380.5,459.5 C 393.167,460.833 405.833,460.833 418.5,459.5C 419.043,459.56 419.376,459.893 419.5,460.5C 406.517,461.499 393.517,461.832 380.5,461.5C 379.833,461.5 379.5,461.167 379.5,460.5C 379.5,459.833 379.833,459.5 380.5,459.5 Z"/></g>
<g><path style="opacity:1" fill="#44303c" d="M 604.5,457.5 C 604.263,458.791 604.596,459.791 605.5,460.5C 608.5,461.167 611.5,461.833 614.5,462.5C 614.167,462.5 613.833,462.5 613.5,462.5C 610.482,462.665 607.482,462.498 604.5,462C 601.894,460.35 601.894,458.85 604.5,457.5 Z"/></g>
<g><path style="opacity:1" fill="#e7e9ee" d="M 326.5,476.5 C 325.463,477.93 324.796,479.597 324.5,481.5C 317.363,490.544 308.03,493.711 296.5,491C 285.238,485.309 280.738,476.142 283,463.5C 284.328,460.688 285.828,458.022 287.5,455.5C 290.634,453.095 293.968,450.928 297.5,449C 317.728,447.062 327.395,456.229 326.5,476.5 Z"/></g>
<g><path style="opacity:1" fill="#fbdcdd" d="M 649.5,462.5 C 656.833,462.5 664.167,462.5 671.5,462.5C 672.167,462.5 672.833,462.5 673.5,462.5C 669.893,463.824 665.893,464.491 661.5,464.5C 657.107,464.491 653.107,463.824 649.5,462.5 Z"/></g>
<g><path style="opacity:1" fill="#d4f2e6" d="M 744.5,450.5 C 746.999,457.182 749.833,463.848 753,470.5C 756.379,473.785 757.379,477.785 756,482.5C 755.502,484.544 754.335,485.878 752.5,486.5C 753.394,483.989 754.394,481.489 755.5,479C 752.961,472.513 749.961,466.347 746.5,460.5C 745.698,457.426 744.698,454.426 743.5,451.5C 743.5,450.833 743.833,450.5 744.5,450.5 Z"/></g>
<g><path style="opacity:1" fill="#ddb187" d="M 592.5,451.5 C 594.23,455.883 595.23,460.55 595.5,465.5C 593.855,461.79 592.855,457.79 592.5,453.5C 592.5,452.833 592.5,452.167 592.5,451.5 Z"/></g>
<g><path style="opacity:1" fill="#213468" d="M 287.5,455.5 C 285.828,458.022 284.328,460.688 283,463.5C 280.738,476.142 285.238,485.309 296.5,491C 308.03,493.711 317.363,490.544 324.5,481.5C 322.602,485.106 320.602,488.772 318.5,492.5C 316.833,492.833 315.167,493.167 313.5,493.5C 308.969,492.491 304.469,492.491 300,493.5C 295.196,492.346 290.696,490.512 286.5,488C 280.354,478.849 279.021,468.849 282.5,458C 283.619,456.124 285.286,455.291 287.5,455.5 Z"/></g>
<g><path style="opacity:1" fill="#fcd9d3" d="M 613.5,463.5 C 614.451,464.919 614.784,466.585 614.5,468.5C 633.341,468.17 652.007,468.503 670.5,469.5C 651.5,469.5 632.5,469.5 613.5,469.5C 613.167,469.5 612.833,469.5 612.5,469.5C 612.205,467.265 612.539,465.265 613.5,463.5 Z"/></g>
<g><path style="opacity:1" fill="#f08c47" d="M 609.5,467.5 C 608.167,467.5 606.833,467.5 605.5,467.5C 605.823,471.226 605.489,474.893 604.5,478.5C 603.757,477.092 602.923,475.759 602,474.5C 601.667,475.167 601.333,475.833 601,476.5C 598.978,475.198 597.478,473.532 596.5,471.5C 596.5,470.833 596.5,470.167 596.5,469.5C 596.18,466.102 596.513,462.768 597.5,459.5C 598.748,458.96 599.915,458.293 601,457.5C 601.073,460.918 600.74,464.251 600,467.5C 603.373,464.97 607.207,463.97 611.5,464.5C 611.715,466.179 611.048,467.179 609.5,467.5 Z"/></g>
<g><path style="opacity:1" fill="#e47151" d="M 613.5,469.5 C 632.5,469.5 651.5,469.5 670.5,469.5C 670.5,469.833 670.5,470.167 670.5,470.5C 663.159,470.334 655.826,470.5 648.5,471C 647.328,471.419 646.328,472.085 645.5,473C 647.5,473.333 649.5,473.667 651.5,474C 650.24,475.113 649.073,475.28 648,474.5C 644.805,475.149 641.639,475.982 638.5,477C 639.737,477.232 640.737,477.732 641.5,478.5C 635.5,478.5 629.5,478.5 623.5,478.5C 621.804,476.732 620.47,474.565 619.5,472C 620.167,471.667 620.833,471.333 621.5,471C 618.635,470.817 615.969,470.317 613.5,469.5 Z"/></g>
<g><path style="opacity:1" fill="#e7864d" d="M 609.5,467.5 C 609.821,469.048 610.821,469.715 612.5,469.5C 612.833,469.5 613.167,469.5 613.5,469.5C 615.969,470.317 618.635,470.817 621.5,471C 620.833,471.333 620.167,471.667 619.5,472C 620.47,474.565 621.804,476.732 623.5,478.5C 623.5,478.833 623.5,479.167 623.5,479.5C 615.16,479.666 606.827,479.5 598.5,479C 597.133,476.699 596.466,474.199 596.5,471.5C 597.478,473.532 598.978,475.198 601,476.5C 601.333,475.833 601.667,475.167 602,474.5C 602.923,475.759 603.757,477.092 604.5,478.5C 605.489,474.893 605.823,471.226 605.5,467.5C 606.833,467.5 608.167,467.5 609.5,467.5 Z"/></g>
<g><path style="opacity:1" fill="#ea6651" d="M 670.5,470.5 C 670.5,472.167 670.5,473.833 670.5,475.5C 669.5,475.5 668.5,475.5 667.5,475.5C 667.5,476.5 667.5,477.5 667.5,478.5C 658.833,478.5 650.167,478.5 641.5,478.5C 640.737,477.732 639.737,477.232 638.5,477C 641.639,475.982 644.805,475.149 648,474.5C 649.073,475.28 650.24,475.113 651.5,474C 649.5,473.667 647.5,473.333 645.5,473C 646.328,472.085 647.328,471.419 648.5,471C 655.826,470.5 663.159,470.334 670.5,470.5 Z"/></g>
<g><path style="opacity:1" fill="#afbfe1" d="M 437.5,478.5 C 418.5,479.167 399.5,479.833 380.5,480.5C 379.957,480.44 379.624,480.107 379.5,479.5C 398.822,478.5 418.155,478.167 437.5,478.5 Z"/></g>
<g><path style="opacity:1" fill="#cf6b58" d="M 670.5,470.5 C 672.147,473.752 671.48,476.586 668.5,479C 653.504,479.5 638.504,479.667 623.5,479.5C 623.5,479.167 623.5,478.833 623.5,478.5C 629.5,478.5 635.5,478.5 641.5,478.5C 650.167,478.5 658.833,478.5 667.5,478.5C 667.5,477.5 667.5,476.5 667.5,475.5C 668.5,475.5 669.5,475.5 670.5,475.5C 670.5,473.833 670.5,472.167 670.5,470.5 Z"/></g>
<g><path style="opacity:1" fill="#33a06e" d="M 727.5,443.5 C 728.348,444.625 729.348,444.625 730.5,443.5C 730.414,444.496 730.748,445.329 731.5,446C 734.412,447.373 737.246,448.873 740,450.5C 740.383,449.944 740.883,449.611 741.5,449.5C 741.833,450.5 742.5,451.167 743.5,451.5C 744.698,454.426 745.698,457.426 746.5,460.5C 749.961,466.347 752.961,472.513 755.5,479C 754.394,481.489 753.394,483.989 752.5,486.5C 752.5,486.833 752.5,487.167 752.5,487.5C 750.284,493.052 747.617,498.385 744.5,503.5C 745.454,500.582 746.121,497.582 746.5,494.5C 746.167,493.167 745.833,491.833 745.5,490.5C 744.281,489.737 743.281,488.737 742.5,487.5C 741.702,489.078 741.202,490.744 741,492.5C 740.333,493.833 739.667,493.833 739,492.5C 738.189,497.177 736.522,501.511 734,505.5C 733.505,507.473 733.338,509.473 733.5,511.5C 725.625,511.814 717.959,512.98 710.5,515C 711.191,516.067 711.691,517.234 712,518.5C 714.124,519.227 716.291,519.894 718.5,520.5C 719.298,520.957 719.631,521.624 719.5,522.5C 705.307,517.75 691.307,512.583 677.5,507C 676.934,506.005 676.267,505.172 675.5,504.5C 681.931,489.301 688.097,473.968 694,458.5C 697.635,454.937 701.801,452.27 706.5,450.5C 713.78,448.932 720.78,446.599 727.5,443.5 Z"/></g>
<g><path style="opacity:1" fill="#d0e5dc" d="M 703.5,470.5 C 712.087,470.249 715.921,474.249 715,482.5C 712.486,486.016 709.152,488.35 705,489.5C 697.741,486.645 695.741,481.645 699,474.5C 700.397,472.93 701.897,471.596 703.5,470.5 Z"/></g>
<g><path style="opacity:1" fill="#3dac73" d="M 704.5,476.5 C 706.167,476.5 707.833,476.5 709.5,476.5C 710.21,479.885 709.044,482.219 706,483.5C 702.065,481.867 701.565,479.534 704.5,476.5 Z"/></g>
<g><path style="opacity:1" fill="#2fa36a" d="M 746.5,460.5 C 745.423,463.526 745.423,466.526 746.5,469.5C 745.41,471.003 744.243,471.336 743,470.5C 742.585,472.291 741.585,473.624 740,474.5C 739.933,477.311 738.766,479.477 736.5,481C 737.33,482.465 737.496,483.965 737,485.5C 734.256,483.251 731.756,480.917 729.5,478.5C 729.158,477.662 728.492,477.328 727.5,477.5C 726.737,476.732 725.737,476.232 724.5,476C 725.337,474.989 725.67,473.822 725.5,472.5C 724.5,472.5 723.5,472.5 722.5,472.5C 722.66,474.199 722.494,475.866 722,477.5C 721.601,473.679 720.268,473.012 718,475.5C 715.454,474.548 713.954,472.715 713.5,470C 714.167,469.667 714.833,469.333 715.5,469C 711.452,466.032 711.786,464.032 716.5,463C 712.782,461.104 709.116,461.271 705.5,463.5C 704.833,463.167 704.167,462.833 703.5,462.5C 706.252,461.266 709.085,460.266 712,459.5C 713.658,459.675 714.991,460.342 716,461.5C 717.399,461.499 718.899,461.165 720.5,460.5C 721.158,462.437 721.491,464.27 721.5,466C 720.692,466.308 720.025,466.808 719.5,467.5C 721.402,469.151 723.402,469.484 725.5,468.5C 725.291,467.914 724.957,467.414 724.5,467C 726.134,466.506 727.801,466.34 729.5,466.5C 729.5,467.5 729.5,468.5 729.5,469.5C 730.5,469.5 731.5,469.5 732.5,469.5C 732.5,467.833 732.5,466.167 732.5,464.5C 734.199,464.66 735.866,464.494 737.5,464C 736.552,463.517 735.552,463.351 734.5,463.5C 734.795,461.265 734.461,459.265 733.5,457.5C 732.5,457.167 731.833,456.5 731.5,455.5C 727.607,453.761 724.107,454.427 721,457.5C 719.127,455.291 716.96,453.458 714.5,452C 718.695,451.668 722.695,450.835 726.5,449.5C 726.5,448.5 726.5,447.5 726.5,446.5C 727.978,446.238 729.311,446.571 730.5,447.5C 729.397,447.998 728.397,448.331 727.5,448.5C 729.357,451.777 731.524,452.11 734,449.5C 737.18,450.014 739.014,451.847 739.5,455C 738.376,455.249 737.376,455.749 736.5,456.5C 736.938,457.506 737.604,457.506 738.5,456.5C 740.203,458.573 741.37,460.906 742,463.5C 741.945,458.869 743.445,457.869 746.5,460.5 Z"/></g>
<g><path style="opacity:1" fill="#d1e9de" d="M 731.5,455.5 C 731.833,456.5 732.5,457.167 733.5,457.5C 733.843,463.178 731.176,465.344 725.5,464C 722.735,461.034 723.068,458.367 726.5,456C 728.134,455.506 729.801,455.34 731.5,455.5 Z"/></g>
<g><path style="opacity:1" fill="#1c3371" d="M 379.5,460.5 C 379.5,461.167 379.833,461.5 380.5,461.5C 392.007,462.167 403.674,462.833 415.5,463.5C 416.833,464.5 416.833,465.5 415.5,466.5C 410.198,467.329 404.864,467.829 399.5,468C 400,468.5 400.5,469 401,469.5C 405.333,469.167 409.667,468.833 414,468.5C 415,469.5 416,470.5 417,471.5C 421.333,471.167 425.667,470.833 430,470.5C 431.353,471.685 432.52,473.019 433.5,474.5C 433.192,475.308 432.692,475.975 432,476.5C 412.91,475.45 395.243,474.783 379,474.5C 378.173,475.662 377.34,476.829 376.5,478C 378.806,479.67 379.806,482.503 379.5,486.5C 382.541,486.406 384.207,487.906 384.5,491C 387.327,491.701 389.994,492.701 392.5,494C 395.039,494.796 397.372,494.629 399.5,493.5C 404.671,493.124 409.671,491.958 414.5,490C 417.205,487.649 420.205,485.816 423.5,484.5C 429.244,487.408 433.911,491.575 437.5,497C 431.245,504.805 423.245,510.138 413.5,513C 409.821,513.787 406.154,514.621 402.5,515.5C 401.479,516.901 400.479,518.235 399.5,519.5C 398.504,519.414 397.671,519.748 397,520.5C 396.946,523.861 395.946,526.861 394,529.5C 393.211,533.091 393.378,536.591 394.5,540C 391.221,545.002 386.554,546.669 380.5,545C 378.462,540.556 379.962,537.39 385,535.5C 385.497,538.146 385.664,540.813 385.5,543.5C 387.167,543.5 388.833,543.5 390.5,543.5C 389.393,540.769 388.393,537.936 387.5,535C 387.741,533.016 388.408,531.183 389.5,529.5C 387.262,527.742 386.262,525.408 386.5,522.5C 387.639,519.575 388.139,516.575 388,513.5C 383.059,510.948 378.226,508.281 373.5,505.5C 359.146,492.653 353.979,476.653 358,457.5C 358.942,454.626 360.109,451.96 361.5,449.5C 365.26,444.511 369.593,440.011 374.5,436C 376.579,435.192 378.579,435.359 380.5,436.5C 381.539,438.531 383.205,439.864 385.5,440.5C 384.926,442.059 384.26,443.559 383.5,445C 386.944,444.347 389.777,442.514 392,439.5C 392.667,443.5 393.333,443.5 394,439.5C 396.956,440.09 400.123,441.09 403.5,442.5C 397.298,444.598 391.131,446.932 385,449.5C 380.581,447.305 376.081,446.638 371.5,447.5C 371.833,450.5 370.5,451.833 367.5,451.5C 367.719,450.325 367.386,449.325 366.5,448.5C 365.488,450.837 365.655,453.17 367,455.5C 367.725,456.059 368.558,456.392 369.5,456.5C 371.498,455.033 373.164,453.2 374.5,451C 375.872,450.598 377.205,450.098 378.5,449.5C 380.623,452.57 380.29,455.57 377.5,458.5C 377.855,459.522 378.522,460.189 379.5,460.5 Z"/></g>
<g><path style="opacity:1" fill="#dde3f1" d="M 349.5,400.5 C 350.167,417.338 350.833,434.338 351.5,451.5C 352.971,450.583 354.471,449.583 356,448.5C 356.29,450.044 356.956,451.377 358,452.5C 358.74,450.681 359.907,449.348 361.5,448.5C 361.5,448.833 361.5,449.167 361.5,449.5C 360.109,451.96 358.942,454.626 358,457.5C 353.979,476.653 359.146,492.653 373.5,505.5C 372.064,505.755 370.564,506.088 369,506.5C 367.731,505.095 367.231,503.429 367.5,501.5C 365.533,501.261 363.699,501.594 362,502.5C 361.667,499.5 361.333,496.5 361,493.5C 359.984,492.366 359.317,492.699 359,494.5C 357.826,490.954 357.16,487.287 357,483.5C 353.549,476.616 353.049,469.282 355.5,461.5C 355.167,460.833 354.833,460.167 354.5,459.5C 353.194,460.912 352.36,462.579 352,464.5C 351.667,464.167 351.333,463.833 351,463.5C 350.833,479.844 350.333,496.177 349.5,512.5C 342.371,513.813 335.371,513.813 328.5,512.5C 334.509,512.666 340.509,512.499 346.5,512C 347.416,511.626 348.25,511.126 349,510.5C 349.5,473.835 349.667,437.168 349.5,400.5 Z"/></g>
<g><path style="opacity:1" fill="#dbede8" d="M 706.5,450.5 C 701.801,452.27 697.635,454.937 694,458.5C 688.097,473.968 681.931,489.301 675.5,504.5C 673.092,509.486 671.092,514.653 669.5,520C 669.493,521.812 670.16,523.312 671.5,524.5C 692.329,525.828 712.996,525.828 733.5,524.5C 734.833,524.167 736.167,523.833 737.5,523.5C 737.047,524.458 736.381,525.292 735.5,526C 713.826,526.833 692.159,526.666 670.5,525.5C 668.74,522.788 668.073,519.788 668.5,516.5C 668.786,514.723 669.453,513.056 670.5,511.5C 669.183,509.482 669.183,507.482 670.5,505.5C 671.163,503.958 671.83,502.291 672.5,500.5C 672.998,501.603 673.331,502.603 673.5,503.5C 673.833,502.333 674.167,501.167 674.5,500C 673.294,497.1 672.628,494.266 672.5,491.5C 674.715,491.733 676.715,490.733 678.5,488.5C 679.086,488.709 679.586,489.043 680,489.5C 681.589,483.415 683.923,477.748 687,472.5C 688.324,468.554 688.991,464.554 689,460.5C 687.989,461.337 686.822,461.67 685.5,461.5C 683.905,453.759 685.739,452.759 691,458.5C 692.52,457.303 693.687,455.803 694.5,454C 698.263,452.136 702.263,450.969 706.5,450.5 Z"/></g>
<g><path style="opacity:1" fill="#d4eadb" d="M 727.5,477.5 C 728.492,477.328 729.158,477.662 729.5,478.5C 729.649,479.552 729.483,480.552 729,481.5C 721.803,489.031 714.303,496.198 706.5,503C 705.167,503.667 703.833,503.667 702.5,503C 701.549,502.282 701.383,501.449 702,500.5C 710.066,492.263 718.566,484.596 727.5,477.5 Z"/></g>
<g><path style="opacity:1" fill="#253664" d="M 615.5,502.5 C 617.586,498.483 618.586,494.15 618.5,489.5C 614.585,489.753 610.919,489.087 607.5,487.5C 607.201,489.973 606.201,492.14 604.5,494C 604.766,499.767 607.766,502.6 613.5,502.5C 607.219,503.93 603.553,501.264 602.5,494.5C 602.611,492.286 603.278,490.286 604.5,488.5C 609.264,484.535 614.097,484.535 619,488.5C 621.736,494.233 620.569,498.9 615.5,502.5 Z"/></g>
<g><path style="opacity:1" fill="#1a3476" d="M 615.5,502.5 C 614.833,502.5 614.167,502.5 613.5,502.5C 607.766,502.6 604.766,499.767 604.5,494C 606.201,492.14 607.201,489.973 607.5,487.5C 610.919,489.087 614.585,489.753 618.5,489.5C 618.586,494.15 617.586,498.483 615.5,502.5 Z"/></g>
<g><path style="opacity:1" fill="#e5e9ef" d="M 574.5,411.5 C 574.674,413.861 575.007,416.194 575.5,418.5C 578.898,418.18 582.232,418.513 585.5,419.5C 587.027,422.66 587.693,425.993 587.5,429.5C 585.853,434.334 584.52,439.334 583.5,444.5C 583.709,445.994 584.376,447.161 585.5,448C 582.862,452.739 581.529,457.906 581.5,463.5C 583.167,463.5 584.833,463.5 586.5,463.5C 586.5,468.833 586.5,474.167 586.5,479.5C 587.5,479.5 588.5,479.5 589.5,479.5C 589.5,482.167 589.5,484.833 589.5,487.5C 588.5,487.5 587.5,487.5 586.5,487.5C 586.335,490.518 586.502,493.518 587,496.5C 588.356,497.38 589.856,497.714 591.5,497.5C 591.5,498.833 591.5,500.167 591.5,501.5C 592.822,501.67 593.989,501.337 595,500.5C 594.743,496.213 595.243,491.88 596.5,487.5C 598.596,492.711 600.763,492.711 603,487.5C 603.383,488.056 603.883,488.389 604.5,488.5C 603.278,490.286 602.611,492.286 602.5,494.5C 603.553,501.264 607.219,503.93 613.5,502.5C 614.167,502.5 614.833,502.5 615.5,502.5C 615.611,503.117 615.944,503.617 616.5,504C 614.999,505.252 613.332,506.252 611.5,507C 611.833,507.333 612.167,507.667 612.5,508C 607.358,510.877 607.358,512.877 612.5,514C 613.66,535.002 613.66,556.169 612.5,577.5C 613.103,588.989 613.77,600.322 614.5,611.5C 614.5,613.167 614.5,614.833 614.5,616.5C 613.685,617.429 612.852,618.429 612,619.5C 610.601,616.637 609.601,613.637 609,610.5C 608.044,613.647 606.877,616.647 605.5,619.5C 605.5,584.167 605.5,548.833 605.5,513.5C 605.063,511.926 604.063,510.759 602.5,510C 596.833,509.333 591.167,509.333 585.5,510C 584.619,510.708 583.953,511.542 583.5,512.5C 582.833,522.5 582.167,532.5 581.5,542.5C 558.36,530.159 538.86,534.492 523,555.5C 515.693,569.284 514.526,583.617 519.5,598.5C 517.989,597.498 516.322,596.831 514.5,596.5C 514.666,591.156 514.499,585.823 514,580.5C 511.335,592.803 509.835,605.136 509.5,617.5C 509.667,600.83 509.5,584.163 509,567.5C 503.315,544.901 488.815,534.401 465.5,536C 460.946,537.276 456.613,539.109 452.5,541.5C 451.618,540.24 450.618,539.074 449.5,538C 443.5,537.333 437.5,537.333 431.5,538C 430.667,538.833 429.833,539.667 429,540.5C 428.333,567.167 428.333,593.833 429,620.5C 429.717,621.044 430.217,621.711 430.5,622.5C 429.603,623.598 428.77,623.598 428,622.5C 427.667,614.833 427.333,607.167 427,599.5C 425.584,594.793 424.251,590.126 423,585.5C 421.514,589.776 420.181,594.109 419,598.5C 417.693,600.192 416.193,601.525 414.5,602.5C 421.089,589.784 422.089,576.784 417.5,563.5C 416.695,558.55 414.362,554.55 410.5,551.5C 409.772,549.265 408.439,547.432 406.5,546C 402.503,543.755 399.003,540.922 396,537.5C 395.333,535.5 395.333,533.5 396,531.5C 397.477,527.57 398.644,523.57 399.5,519.5C 400.479,518.235 401.479,516.901 402.5,515.5C 406.154,514.621 409.821,513.787 413.5,513C 423.245,510.138 431.245,504.805 437.5,497C 433.911,491.575 429.244,487.408 423.5,484.5C 420.205,485.816 417.205,487.649 414.5,490C 409.671,491.958 404.671,493.124 399.5,493.5C 390.656,492.63 384.323,488.297 380.5,480.5C 399.5,479.833 418.5,479.167 437.5,478.5C 439.017,478.489 440.184,477.823 441,476.5C 443.128,467.588 442.295,458.921 438.5,450.5C 439.496,450.414 440.329,450.748 441,451.5C 441.333,450.167 441.667,448.833 442,447.5C 443.016,448.634 443.683,448.301 444,446.5C 444.925,447.047 445.758,447.713 446.5,448.5C 445.243,451.691 443.909,454.858 442.5,458C 442.673,460.021 443.34,461.854 444.5,463.5C 445.086,463.291 445.586,462.957 446,462.5C 446.053,456.342 447.72,450.675 451,445.5C 452.011,444.663 453.178,444.33 454.5,444.5C 447.711,455.394 445.711,467.06 448.5,479.5C 453.208,498.208 464.875,509.875 483.5,514.5C 480.5,514.167 479.167,515.5 479.5,518.5C 480.822,518.33 481.989,518.663 483,519.5C 484.194,518.57 485.527,517.903 487,517.5C 491.841,517.874 496.341,519.208 500.5,521.5C 492.995,521.133 486.995,521.466 482.5,522.5C 482.36,524.124 483.027,525.29 484.5,526C 487.916,526.893 491.083,526.393 494,524.5C 495.911,527.303 498.411,527.97 501.5,526.5C 500.271,525.719 498.938,525.219 497.5,525C 498.5,524.833 499.5,524.667 500.5,524.5C 509.125,524.562 518.125,524.895 527.5,525.5C 527.338,527.527 527.505,529.527 528,531.5C 528.561,532.022 529.228,532.355 530,532.5C 533.225,531.592 536.225,530.259 539,528.5C 540.356,529.38 541.856,529.714 543.5,529.5C 543.231,531.429 543.731,533.095 545,534.5C 550.775,533.278 556.609,533.278 562.5,534.5C 563.5,534.167 564.5,533.833 565.5,533.5C 563.604,532.534 561.604,532.201 559.5,532.5C 559.36,530.876 560.027,529.71 561.5,529C 566.866,528.677 572.199,528.177 577.5,527.5C 576.946,521.605 577.612,515.938 579.5,510.5C 577.892,509.682 576.225,509.015 574.5,508.5C 574.522,509.995 574.189,511.662 573.5,513.5C 571.249,514.695 568.915,515.695 566.5,516.5C 563.398,515.718 560.232,515.718 557,516.5C 554.127,516.554 551.46,515.888 549,514.5C 546.782,515.188 545.282,514.188 544.5,511.5C 544.863,510.817 545.196,510.15 545.5,509.5C 546.267,510.172 546.934,511.005 547.5,512C 553.5,512.667 559.5,512.667 565.5,512C 566.056,511.617 566.389,511.117 566.5,510.5C 567.117,510.389 567.617,510.056 568,509.5C 568.667,472.833 568.667,436.167 568,399.5C 567.5,399 567,398.5 566.5,398C 560.175,397.5 553.842,397.334 547.5,397.5C 549.048,396.206 551.048,395.539 553.5,395.5C 558.166,394.832 562.833,394.665 567.5,395C 568,395.5 568.5,396 569,396.5C 569.179,399.553 569.679,402.553 570.5,405.5C 571.187,403.726 572.02,402.059 573,400.5C 574.378,402.854 575.878,402.854 577.5,400.5C 578.167,400.667 578.833,400.833 579.5,401C 578.529,402.204 577.529,402.704 576.5,402.5C 581.456,403.494 586.456,403.827 591.5,403.5C 591.5,402.167 591.5,400.833 591.5,399.5C 592.5,399.5 593.5,399.5 594.5,399.5C 594.617,401.484 593.95,403.15 592.5,404.5C 595.145,405.192 597.645,406.192 600,407.5C 600.495,409.473 600.662,411.473 600.5,413.5C 597.86,413.046 595.527,411.879 593.5,410C 590.333,409.833 587.167,409.667 584,409.5C 580.424,409.515 577.258,410.182 574.5,411.5 Z"/></g>
<g><path style="opacity:1" fill="#e6e9ef" d="M 508.5,455.5 C 516.409,468.073 514.743,479.24 503.5,489C 487.152,496.075 475.985,491.242 470,474.5C 469.294,470.113 469.46,465.78 470.5,461.5C 476.408,450.882 485.408,446.715 497.5,449C 501.822,450.157 505.489,452.324 508.5,455.5 Z"/></g>
<g><path style="opacity:1" fill="#253665" d="M 508.5,455.5 C 505.489,452.324 501.822,450.157 497.5,449C 485.408,446.715 476.408,450.882 470.5,461.5C 471.172,457.812 472.005,454.145 473,450.5C 473.333,450.833 473.667,451.167 474,451.5C 484.811,444.958 495.644,444.958 506.5,451.5C 507.63,452.622 508.297,453.956 508.5,455.5 Z"/></g>
<g><path style="opacity:1" fill="#d4ebe1" d="M 721.5,492.5 C 730.93,492.406 734.43,496.739 732,505.5C 726.593,510.765 721.26,510.765 716,505.5C 715.333,502.833 715.333,500.167 716,497.5C 717.73,495.598 719.563,493.931 721.5,492.5 Z"/></g>
<g><path style="opacity:1" fill="#39a36e" d="M 721.5,498.5 C 726.386,497.405 728.052,499.072 726.5,503.5C 721.134,505.468 719.467,503.801 721.5,498.5 Z"/></g>
<g><path style="opacity:1" fill="#d4efe5" d="M 752.5,487.5 C 751.521,495.947 748.687,503.614 744,510.5C 744.103,515.206 742.269,518.873 738.5,521.5C 740.702,515.562 742.702,509.562 744.5,503.5C 747.617,498.385 750.284,493.052 752.5,487.5 Z"/></g>
<g><path style="opacity:1" fill="#e3e7ef" d="M 666.5,488.5 C 661.364,484.565 656.197,484.565 651,488.5C 647.854,494.891 649.354,499.558 655.5,502.5C 665.089,503.562 668.756,499.229 666.5,489.5C 667.397,488.402 668.23,488.402 669,489.5C 671.208,500.617 666.708,506.45 655.5,507C 655.043,507.414 654.709,507.914 654.5,508.5C 657.475,509.288 660.308,509.621 663,509.5C 665.64,508.344 668.14,507.011 670.5,505.5C 669.183,507.482 669.183,509.482 670.5,511.5C 669.453,513.056 668.786,514.723 668.5,516.5C 666.374,528.592 664.874,528.259 664,515.5C 663,514.167 662,514.167 661,515.5C 660.333,518.167 660.333,520.833 661,523.5C 663.5,524.667 665.333,526.5 666.5,529C 672.913,529.255 673.08,530.422 667,532.5C 666.517,533.448 666.351,534.448 666.5,535.5C 673.516,535.517 679.849,537.517 685.5,541.5C 686.452,543.045 686.785,544.712 686.5,546.5C 687.833,546.5 689.167,546.5 690.5,546.5C 690.5,545.167 690.5,543.833 690.5,542.5C 691.873,542.343 693.207,542.51 694.5,543C 695.119,544.757 696.286,545.924 698,546.5C 699.482,544.888 701.315,543.888 703.5,543.5C 702.916,540.715 703.916,539.048 706.5,538.5C 705.514,556.09 705.181,573.757 705.5,591.5C 704.669,576.005 704.169,560.339 704,544.5C 701.748,545.907 700.582,547.907 700.5,550.5C 702.049,553.024 703.049,555.857 703.5,559C 702.851,561.919 702.851,564.752 703.5,567.5C 702.499,570.172 701.499,572.839 700.5,575.5C 699.682,573.892 699.015,572.225 698.5,570.5C 699.359,566.095 699.526,561.429 699,556.5C 698.586,556.043 698.086,555.709 697.5,555.5C 696.516,558.428 696.183,561.428 696.5,564.5C 695.833,563.5 695.167,562.5 694.5,561.5C 694.672,560.508 694.338,559.842 693.5,559.5C 689.345,549.18 682.012,542.013 671.5,538C 660.361,535.175 649.694,536.341 639.5,541.5C 638.668,531.851 638.168,522.184 638,512.5C 636.955,511.627 636.122,510.627 635.5,509.5C 637.103,509.688 638.437,509.188 639.5,508C 633.295,505.564 626.962,505.064 620.5,506.5C 620.5,504.833 620.5,503.167 620.5,501.5C 626.218,502.263 632.051,502.263 638,501.5C 638.5,501.167 639,500.833 639.5,500.5C 634.533,499.671 629.533,499.171 624.5,499C 626.75,498.389 628.417,497.056 629.5,495C 632.022,494.501 634.522,494.668 637,495.5C 640.694,495.292 643.861,493.959 646.5,491.5C 647.555,488.822 648.888,486.322 650.5,484C 654.84,482.732 659.174,482.565 663.5,483.5C 665.297,484.695 666.297,486.362 666.5,488.5 Z"/></g>
<g><path style="opacity:1" fill="#1f3362" d="M 666.5,488.5 C 666.5,488.833 666.5,489.167 666.5,489.5C 668.756,499.229 665.089,503.562 655.5,502.5C 649.354,499.558 647.854,494.891 651,488.5C 656.197,484.565 661.364,484.565 666.5,488.5 Z"/></g>
<g><path style="opacity:1" fill="#193372" d="M 655.5,502.5 C 651.912,499.262 650.745,495.262 652,490.5C 656.614,487.445 660.614,488.112 664,492.5C 665.69,499.447 662.856,502.78 655.5,502.5 Z"/></g>
<g><path style="opacity:1" fill="#1e3573" d="M 256.5,509.5 C 257.5,510.167 258.5,510.833 259.5,511.5C 259.168,521.855 259.501,532.188 260.5,542.5C 261.107,542.376 261.44,542.043 261.5,541.5C 263.5,540.5 265.5,539.5 267.5,538.5C 286.715,532.429 303.215,536.762 317,551.5C 319.721,555.608 321.887,559.941 323.5,564.5C 324.633,573.168 324.633,581.835 323.5,590.5C 321.616,585.177 320.616,579.844 320.5,574.5C 319.914,574.709 319.414,575.043 319,575.5C 318.692,581.247 317.859,586.914 316.5,592.5C 316.556,593.737 317.056,594.737 318,595.5C 318.583,593.998 319.416,592.665 320.5,591.5C 322.202,595.76 321.369,599.427 318,602.5C 315.232,599.583 313.732,600.25 313.5,604.5C 313.756,605.689 314.089,606.856 314.5,608C 312.189,609.645 310.189,611.645 308.5,614C 306.414,614.557 305.081,613.724 304.5,611.5C 306.275,610.043 308.275,608.876 310.5,608C 308.253,606.626 306.087,605.126 304,603.5C 302.941,603.63 302.108,604.13 301.5,605C 303.037,606.11 303.703,607.61 303.5,609.5C 301.459,609.146 299.626,609.146 298,609.5C 295.948,608.277 293.781,607.277 291.5,606.5C 291.069,605.707 290.735,604.873 290.5,604C 295.081,600.763 299.247,596.929 303,592.5C 303.494,590.866 303.66,589.199 303.5,587.5C 306.079,576.903 303.079,568.237 294.5,561.5C 294.5,560.5 294.5,559.5 294.5,558.5C 288.616,556.768 282.616,556.268 276.5,557C 271.7,558.989 267.033,561.156 262.5,563.5C 262.5,565.167 262.5,566.833 262.5,568.5C 257.608,579.019 258.941,588.686 266.5,597.5C 266.414,598.496 266.748,599.329 267.5,600C 270.494,602.164 273.827,603.83 277.5,605C 275.167,605.333 272.833,605.667 270.5,606C 274.138,607.382 277.972,608.216 282,608.5C 283.716,608.252 285.216,607.585 286.5,606.5C 287.386,607.325 287.719,608.325 287.5,609.5C 290.908,608.828 293.575,609.828 295.5,612.5C 297.444,613.189 299.444,613.689 301.5,614C 302.38,615.356 302.714,616.856 302.5,618.5C 298.104,617.879 293.77,616.879 289.5,615.5C 288.09,615.868 287.09,616.701 286.5,618C 288.833,618.205 290.833,619.538 292.5,622C 290.236,622.236 288.069,622.736 286,623.5C 281.263,622.531 276.43,622.197 271.5,622.5C 271.5,621.5 271.5,620.5 271.5,619.5C 268.085,619.739 264.919,619.072 262,617.5C 260.93,617.528 260.097,617.861 259.5,618.5C 259.863,620.911 258.863,622.411 256.5,623C 250.833,623.667 245.167,623.667 239.5,623C 238.667,622.167 237.833,621.333 237,620.5C 236.169,584.331 236.336,548.331 237.5,512.5C 237.667,652.498 238.167,652.498 239,512.5C 239.5,512 240,511.5 240.5,511C 246.016,510.827 251.349,510.327 256.5,509.5 Z"/></g>
<g><path style="opacity:1" fill="#1d3573" d="M 693.5,559.5 C 694.338,559.842 694.672,560.508 694.5,561.5C 694.95,580.888 694.45,600.221 693,619.5C 690.997,621.922 688.497,622.755 685.5,622C 685.833,621.667 686.167,621.333 686.5,621C 683.64,604.96 682.973,588.793 684.5,572.5C 683.033,567.52 681.7,567.853 680.5,573.5C 681.623,584.473 681.789,595.473 681,606.5C 678.908,609.373 677.908,612.707 678,616.5C 676.414,617.605 675.248,618.939 674.5,620.5C 674.167,620.5 673.833,620.5 673.5,620.5C 673.667,603.83 673.5,587.163 673,570.5C 668.564,560.679 661.064,557.179 650.5,560C 647.062,561.611 644.062,563.777 641.5,566.5C 640.5,566.5 639.5,566.5 638.5,566.5C 638.769,568.429 638.269,570.095 637,571.5C 636.667,570.5 636.333,569.5 636,568.5C 635.43,586.174 635.597,603.841 636.5,621.5C 636.5,622.167 636.167,622.5 635.5,622.5C 632.167,622.5 628.833,622.5 625.5,622.5C 625.836,618.833 625.003,615.5 623,612.5C 622.578,616.05 620.578,618.05 617,618.5C 616.167,583.162 616.333,547.829 617.5,512.5C 620.393,510.929 623.559,510.263 627,510.5C 629.5,510.667 632,510.833 634.5,511C 635,511.5 635.5,512 636,512.5C 636.61,519.181 636.444,525.848 635.5,532.5C 635.596,536.144 636.262,539.644 637.5,543C 644.954,540.441 652.788,538.941 661,538.5C 666.056,538.27 670.556,539.603 674.5,542.5C 673.5,543.333 672.5,544.167 671.5,545C 673.68,545.419 675.846,545.252 678,544.5C 679.627,544.625 681.127,545.125 682.5,546C 686.763,550.032 690.429,554.532 693.5,559.5 Z"/></g>
<g><path style="opacity:1" fill="#e7e9ef" d="M 261.5,456.5 C 257.621,471.58 260.288,485.246 269.5,497.5C 269.932,498.71 270.599,499.71 271.5,500.5C 285.275,514.611 301.275,517.944 319.5,510.5C 321.366,509.986 323.2,509.32 325,508.5C 326.402,509.645 327.569,510.978 328.5,512.5C 335.371,513.813 342.371,513.813 349.5,512.5C 350.333,496.177 350.833,479.844 351,463.5C 351.333,463.833 351.667,464.167 352,464.5C 352.36,462.579 353.194,460.912 354.5,459.5C 354.833,460.167 355.167,460.833 355.5,461.5C 353.049,469.282 353.549,476.616 357,483.5C 357.16,487.287 357.826,490.954 359,494.5C 359.317,492.699 359.984,492.366 361,493.5C 361.333,496.5 361.667,499.5 362,502.5C 363.699,501.594 365.533,501.261 367.5,501.5C 367.231,503.429 367.731,505.095 369,506.5C 370.564,506.088 372.064,505.755 373.5,505.5C 378.226,508.281 383.059,510.948 388,513.5C 388.139,516.575 387.639,519.575 386.5,522.5C 384.951,526.291 383.284,530.124 381.5,534C 349.058,535.939 333.058,553.106 333.5,585.5C 332.677,582.023 332.177,578.356 332,574.5C 331.754,579.372 331.254,584.205 330.5,589C 326.605,592.614 324.105,597.114 323,602.5C 322.329,603.252 321.496,603.586 320.5,603.5C 325.461,593.401 327.294,582.735 326,571.5C 325.61,568.896 324.776,566.562 323.5,564.5C 321.887,559.941 319.721,555.608 317,551.5C 303.215,536.762 286.715,532.429 267.5,538.5C 267.5,537.167 267.5,535.833 267.5,534.5C 278.172,534.333 288.839,534.5 299.5,535C 301.394,536.404 303.394,537.57 305.5,538.5C 306.737,538.444 307.737,537.944 308.5,537C 305.333,534.5 302.167,532 299,529.5C 295.944,528.981 292.944,529.647 290,531.5C 282.844,531.542 275.344,531.208 267.5,530.5C 267.336,525.466 267.669,520.466 268.5,515.5C 268.333,514.5 268.167,513.5 268,512.5C 267.333,511.167 266.667,511.167 266,512.5C 265.5,519.826 265.334,527.159 265.5,534.5C 263.052,534.915 261.719,533.915 261.5,531.5C 263.707,523.735 264.04,515.902 262.5,508C 263.727,505.73 265.394,503.897 267.5,502.5C 266.649,499.388 265.483,499.054 264,501.5C 263.464,499.433 263.964,497.599 265.5,496C 263.277,495.348 262.11,493.848 262,491.5C 261.51,492.793 261.343,494.127 261.5,495.5C 260.167,495.5 258.833,495.5 257.5,495.5C 257.778,492.71 257.111,490.21 255.5,488C 255.833,487.5 256.167,487 256.5,486.5C 257.845,487.347 258.845,488.513 259.5,490C 260.483,490.591 261.15,490.257 261.5,489C 258.629,478.692 257.796,468.192 259,457.5C 259.671,456.748 260.504,456.414 261.5,456.5 Z"/></g>
<g><path style="opacity:1" fill="#263667" d="M 319.5,510.5 C 301.275,517.944 285.275,514.611 271.5,500.5C 273.384,500.288 274.717,499.288 275.5,497.5C 276.425,498.641 277.259,498.641 278,497.5C 278.115,499.107 277.615,500.607 276.5,502C 276.645,502.772 276.978,503.439 277.5,504C 280.432,506.154 283.766,507.654 287.5,508.5C 287.291,509.086 286.957,509.586 286.5,510C 289.576,510.346 292.576,511.012 295.5,512C 303.629,512.825 311.629,512.325 319.5,510.5 Z"/></g>
<g><path style="opacity:1" fill="#2da56e" d="M 744.5,503.5 C 742.702,509.562 740.702,515.562 738.5,521.5C 737.662,521.842 737.328,522.508 737.5,523.5C 736.167,523.833 734.833,524.167 733.5,524.5C 729.818,524.665 726.152,524.499 722.5,524C 721.263,523.768 720.263,523.268 719.5,522.5C 719.631,521.624 719.298,520.957 718.5,520.5C 716.291,519.894 714.124,519.227 712,518.5C 711.691,517.234 711.191,516.067 710.5,515C 717.959,512.98 725.625,511.814 733.5,511.5C 733.338,509.473 733.505,507.473 734,505.5C 736.522,501.511 738.189,497.177 739,492.5C 739.667,493.833 740.333,493.833 741,492.5C 741.202,490.744 741.702,489.078 742.5,487.5C 743.281,488.737 744.281,489.737 745.5,490.5C 745.833,491.833 746.167,493.167 746.5,494.5C 746.121,497.582 745.454,500.582 744.5,503.5 Z"/></g>
<g><path style="opacity:1" fill="#1d7c59" d="M 675.5,504.5 C 676.267,505.172 676.934,506.005 677.5,507C 691.307,512.583 705.307,517.75 719.5,522.5C 720.263,523.268 721.263,523.768 722.5,524C 726.152,524.499 729.818,524.665 733.5,524.5C 712.996,525.828 692.329,525.828 671.5,524.5C 670.16,523.312 669.493,521.812 669.5,520C 671.092,514.653 673.092,509.486 675.5,504.5 Z"/></g>
<g><path style="opacity:1" fill="#546281" d="M 583.5,512.5 C 583.832,522.855 583.499,533.188 582.5,543.5C 581.893,543.376 581.56,543.043 581.5,542.5C 582.167,532.5 582.833,522.5 583.5,512.5 Z"/></g>
<g><path style="opacity:1" fill="#14265e" d="M 256.5,509.5 C 251.349,510.327 246.016,510.827 240.5,511C 240,511.5 239.5,512 239,512.5C 238.167,652.498 237.667,652.498 237.5,512.5C 237.953,511.542 238.619,510.708 239.5,510C 245.157,509.501 250.824,509.334 256.5,509.5 Z"/></g>
<g><path style="opacity:1" fill="#8b97b2" d="M 259.5,511.5 C 260.167,521.5 260.833,531.5 261.5,541.5C 261.44,542.043 261.107,542.376 260.5,542.5C 259.501,532.188 259.168,521.855 259.5,511.5 Z"/></g>
<g><path style="opacity:1" fill="#1e3571" d="M 509.5,617.5 C 509.607,619.903 508.607,621.736 506.5,623C 500.833,623.667 495.167,623.667 489.5,623C 488.667,622.167 487.833,621.333 487,620.5C 486.667,603.833 486.333,587.167 486,570.5C 479.969,559.246 471.136,556.413 459.5,562C 455.896,564.708 453.396,568.208 452,572.5C 451.667,588.5 451.333,604.5 451,620.5C 450.167,621.333 449.333,622.167 448.5,623C 442.418,623.788 436.418,623.621 430.5,622.5C 430.217,621.711 429.717,621.044 429,620.5C 428.333,593.833 428.333,567.167 429,540.5C 429.833,539.667 430.667,538.833 431.5,538C 437.5,537.333 443.5,537.333 449.5,538C 450.618,539.074 451.618,540.24 452.5,541.5C 456.613,539.109 460.946,537.276 465.5,536C 488.815,534.401 503.315,544.901 509,567.5C 509.5,584.163 509.667,600.83 509.5,617.5 Z"/></g>
<g><path style="opacity:1" fill="#27386a" d="M 728.5,585.5 C 728.177,593.019 731.51,598.186 738.5,601C 749.457,603.438 757.29,599.605 762,589.5C 762.333,573.167 762.667,556.833 763,540.5C 763.5,539.333 764.333,538.5 765.5,538C 771.157,537.501 776.824,537.334 782.5,537.5C 783.458,537.953 784.292,538.619 785,539.5C 785.667,566.5 785.667,593.5 785,620.5C 784.167,621.333 783.333,622.167 782.5,623C 776.833,623.667 771.167,623.667 765.5,623C 764.275,621.437 762.775,620.27 761,619.5C 751.697,624.15 741.864,625.65 731.5,624C 728.16,622.997 725.16,621.497 722.5,619.5C 725.829,619.264 728.829,620.097 731.5,622C 742.037,623.451 752.037,621.951 761.5,617.5C 766.081,620.594 771.081,621.261 776.5,619.5C 776.833,620.167 777.167,620.833 777.5,621.5C 779.5,620.833 781.5,620.167 783.5,619.5C 784.5,593.509 784.833,567.509 784.5,541.5C 777.702,541.367 771.036,541.367 764.5,541.5C 763.764,557.507 763.43,573.507 763.5,589.5C 764.833,590.833 766.167,592.167 767.5,593.5C 766.349,594.731 765.183,594.731 764,593.5C 762.188,596.28 760.021,598.78 757.5,601C 756.207,601.49 754.873,601.657 753.5,601.5C 753.719,602.675 753.386,603.675 752.5,604.5C 743.12,605.272 734.953,602.605 728,596.5C 726.722,578.886 726.055,561.219 726,543.5C 725.289,540.121 723.122,538.621 719.5,539C 715.833,538.333 712.167,538.333 708.5,539C 707.773,540.399 707.273,541.899 707,543.5C 706.5,560.497 706.333,577.497 706.5,594.5C 705.596,593.791 705.263,592.791 705.5,591.5C 705.181,573.757 705.514,556.09 706.5,538.5C 707.289,538.217 707.956,537.717 708.5,537C 713.833,536.333 719.167,536.333 724.5,537C 726.333,537.5 727.5,538.667 728,540.5C 728.5,555.496 728.667,570.496 728.5,585.5 Z"/></g>
<g><path style="opacity:1" fill="#1c3574" d="M 722.5,619.5 C 712.886,613.947 707.553,605.613 706.5,594.5C 706.333,577.497 706.5,560.497 707,543.5C 707.273,541.899 707.773,540.399 708.5,539C 712.167,538.333 715.833,538.333 719.5,539C 723.122,538.621 725.289,540.121 726,543.5C 726.055,561.219 726.722,578.886 728,596.5C 734.953,602.605 743.12,605.272 752.5,604.5C 753.386,603.675 753.719,602.675 753.5,601.5C 754.873,601.657 756.207,601.49 757.5,601C 760.021,598.78 762.188,596.28 764,593.5C 765.183,594.731 766.349,594.731 767.5,593.5C 766.167,592.167 764.833,590.833 763.5,589.5C 763.43,573.507 763.764,557.507 764.5,541.5C 771.036,541.367 777.702,541.367 784.5,541.5C 784.833,567.509 784.5,593.509 783.5,619.5C 781.5,620.167 779.5,620.833 777.5,621.5C 777.167,620.833 776.833,620.167 776.5,619.5C 771.081,621.261 766.081,620.594 761.5,617.5C 752.037,621.951 742.037,623.451 731.5,622C 728.829,620.097 725.829,619.264 722.5,619.5 Z"/></g>
<g><path style="opacity:1" fill="#e4e6ed" d="M 403.5,558.5 C 403.5,558.833 403.5,559.167 403.5,559.5C 413.299,576.78 410.965,592.28 396.5,606C 377.747,617.178 361.914,614.012 349,596.5C 339.285,575.008 344.785,558.841 365.5,548C 380.418,543.64 393.085,547.14 403.5,558.5 Z"/></g>
<g><path style="opacity:1" fill="#243463" d="M 294.5,561.5 C 281.81,555.556 271.144,557.89 262.5,568.5C 262.5,566.833 262.5,565.167 262.5,563.5C 267.033,561.156 271.7,558.989 276.5,557C 282.616,556.268 288.616,556.768 294.5,558.5C 294.5,559.5 294.5,560.5 294.5,561.5 Z"/></g>
<g><path style="opacity:1" fill="#d5e1f2" d="M 634.5,509.5 C 628.824,509.334 623.157,509.501 617.5,510C 617,510.5 616.5,511 616,511.5C 615.5,547.165 615.333,582.832 615.5,618.5C 614.662,618.158 614.328,617.492 614.5,616.5C 614.5,614.833 614.5,613.167 614.5,611.5C 614.333,577.832 614.5,544.165 615,510.5C 618.064,509.217 621.397,508.55 625,508.5C 628.352,508.502 631.518,508.835 634.5,509.5 Z"/></g>
<g><path style="opacity:1" fill="#1d3676" d="M 410.5,551.5 C 414.362,554.55 416.695,558.55 417.5,563.5C 420.228,573.574 419.894,583.574 416.5,593.5C 416.167,593 415.833,592.5 415.5,592C 416.539,587.393 417.206,582.726 417.5,578C 417.596,575.625 417.096,573.459 416,571.5C 413.332,573.692 412.832,576.359 414.5,579.5C 413.893,583.489 413.227,587.489 412.5,591.5C 411.186,592.313 410.019,593.313 409,594.5C 410.559,586.742 410.892,578.742 410,570.5C 409.226,566.951 407.893,563.618 406,560.5C 405.329,559.748 404.496,559.414 403.5,559.5C 403.5,559.167 403.5,558.833 403.5,558.5C 405.27,556.887 406.436,554.887 407,552.5C 408.011,551.663 409.178,551.33 410.5,551.5 Z"/></g>
<g><path style="opacity:1" fill="#e5e9ee" d="M 294.5,561.5 C 303.079,568.237 306.079,576.903 303.5,587.5C 294.727,603.418 282.394,606.752 266.5,597.5C 258.941,588.686 257.608,579.019 262.5,568.5C 271.144,557.89 281.81,555.556 294.5,561.5 Z"/></g>
<g><path style="opacity:1" fill="#1d3472" d="M 605.5,513.5 C 604.833,548.336 604.167,583.336 603.5,618.5C 602.914,618.291 602.414,617.957 602,617.5C 601.833,587.494 601.333,557.494 600.5,527.5C 600.167,532.833 599.833,538.167 599.5,543.5C 599.793,569.965 599.793,596.299 599.5,622.5C 598.178,622.67 597.011,622.337 596,621.5C 595.833,590.495 595.333,559.495 594.5,528.5C 593.657,534.815 592.99,541.148 592.5,547.5C 593.477,570.859 593.811,594.026 593.5,617C 591.284,617.041 589.118,617.208 587,617.5C 584.017,615.334 581.184,612.334 578.5,608.5C 581.852,607.095 582.018,605.761 579,604.5C 574.633,605.135 570.466,606.468 566.5,608.5C 565.614,609.325 565.281,610.325 565.5,611.5C 568.181,611.538 570.681,610.871 573,609.5C 575.043,611.209 576.877,613.209 578.5,615.5C 577.566,618.965 576.066,619.298 574,616.5C 570.802,617.23 569.302,619.23 569.5,622.5C 566.813,622.664 564.146,622.497 561.5,622C 561.003,619.405 561.67,616.905 563.5,614.5C 563,614.167 562.5,613.833 562,613.5C 560.51,614.317 559.01,615.15 557.5,616C 558.308,616.308 558.975,616.808 559.5,617.5C 556.615,618.488 556.948,619.988 560.5,622C 556.514,622.499 552.514,622.666 548.5,622.5C 548.33,621.178 548.663,620.011 549.5,619C 548.833,618.667 548.167,618.333 547.5,618C 544.967,618.611 542.3,619.111 539.5,619.5C 530.075,615.076 523.408,608.076 519.5,598.5C 514.526,583.617 515.693,569.284 523,555.5C 538.86,534.492 558.36,530.159 581.5,542.5C 581.56,543.043 581.893,543.376 582.5,543.5C 583.499,533.188 583.832,522.855 583.5,512.5C 583.953,511.542 584.619,510.708 585.5,510C 591.167,509.333 596.833,509.333 602.5,510C 604.063,510.759 605.063,511.926 605.5,513.5 Z"/></g>
<g><path style="opacity:1" fill="#e8eaee" d="M 581.5,572.5 C 582.268,573.263 582.768,574.263 583,575.5C 583.498,578.817 583.665,582.15 583.5,585.5C 578.563,597.475 569.563,603.142 556.5,602.5C 550.943,601.225 546.609,598.225 543.5,593.5C 543.611,592.883 543.944,592.383 544.5,592C 542.996,590.509 542.163,588.676 542,586.5C 540.669,579.715 541.669,573.382 545,567.5C 548.464,565.691 551.631,563.524 554.5,561C 559.167,560.333 563.833,560.333 568.5,561C 570.787,563.962 573.62,566.129 577,567.5C 577.833,569.5 578.667,571.5 579.5,573.5C 580.183,573.137 580.85,572.804 581.5,572.5 Z"/></g>
<g><path style="opacity:1" fill="#d9e2f2" d="M 581.5,572.5 C 580.85,572.804 580.183,573.137 579.5,573.5C 578.667,571.5 577.833,569.5 577,567.5C 573.62,566.129 570.787,563.962 568.5,561C 563.833,560.333 559.167,560.333 554.5,561C 551.631,563.524 548.464,565.691 545,567.5C 541.669,573.382 540.669,579.715 542,586.5C 542.163,588.676 542.996,590.509 544.5,592C 543.944,592.383 543.611,592.883 543.5,593.5C 535.118,579.794 537.785,568.627 551.5,560C 565.145,555.661 575.145,559.828 581.5,572.5 Z"/></g>
<g><path style="opacity:1" fill="#1f3569" d="M 641.5,566.5 C 640.406,568.359 639.573,570.359 639,572.5C 638.667,588.5 638.333,604.5 638,620.5C 637.617,621.056 637.117,621.389 636.5,621.5C 635.597,603.841 635.43,586.174 636,568.5C 636.333,569.5 636.667,570.5 637,571.5C 638.269,570.095 638.769,568.429 638.5,566.5C 639.5,566.5 640.5,566.5 641.5,566.5 Z"/></g>
<g><path style="opacity:1" fill="#dae3f4" d="M 782.5,537.5 C 776.824,537.334 771.157,537.501 765.5,538C 764.333,538.5 763.5,539.333 763,540.5C 762.667,556.833 762.333,573.167 762,589.5C 757.29,599.605 749.457,603.438 738.5,601C 731.51,598.186 728.177,593.019 728.5,585.5C 729.117,585.389 729.617,585.056 730,584.5C 730.206,587.623 730.873,590.623 732,593.5C 741.682,603.311 750.682,602.645 759,591.5C 761.575,573.57 762.075,555.57 760.5,537.5C 759.268,536.855 757.935,536.689 756.5,537C 755.217,534.205 755.217,531.372 756.5,528.5C 757.736,529.246 759.07,529.579 760.5,529.5C 760.421,530.93 760.754,532.264 761.5,533.5C 768.487,535.624 775.487,536.957 782.5,537.5 Z"/></g>
<g><path style="opacity:1" fill="#233362" d="M 583.5,585.5 C 583.14,591.119 580.807,595.619 576.5,599C 573.497,600.166 570.83,601.833 568.5,604C 565.964,604.339 563.464,604.839 561,605.5C 559.019,605.101 557.519,604.101 556.5,602.5C 569.563,603.142 578.563,597.475 583.5,585.5 Z"/></g>
<g><path style="opacity:1" fill="#1e346c" d="M 399.5,519.5 C 398.644,523.57 397.477,527.57 396,531.5C 395.333,533.5 395.333,535.5 396,537.5C 399.003,540.922 402.503,543.755 406.5,546C 408.439,547.432 409.772,549.265 410.5,551.5C 409.178,551.33 408.011,551.663 407,552.5C 406.436,554.887 405.27,556.887 403.5,558.5C 393.085,547.14 380.418,543.64 365.5,548C 344.785,558.841 339.285,575.008 349,596.5C 361.914,614.012 377.747,617.178 396.5,606C 410.965,592.28 413.299,576.78 403.5,559.5C 404.496,559.414 405.329,559.748 406,560.5C 407.893,563.618 409.226,566.951 410,570.5C 410.892,578.742 410.559,586.742 409,594.5C 410.019,593.313 411.186,592.313 412.5,591.5C 413.227,587.489 413.893,583.489 414.5,579.5C 412.832,576.359 413.332,573.692 416,571.5C 417.096,573.459 417.596,575.625 417.5,578C 417.206,582.726 416.539,587.393 415.5,592C 415.833,592.5 416.167,593 416.5,593.5C 419.894,583.574 420.228,573.574 417.5,563.5C 422.089,576.784 421.089,589.784 414.5,602.5C 398.738,623.693 378.738,628.86 354.5,618C 342.602,610.381 335.602,599.547 333.5,585.5C 333.058,553.106 349.058,535.939 381.5,534C 383.284,530.124 384.951,526.291 386.5,522.5C 386.262,525.408 387.262,527.742 389.5,529.5C 388.408,531.183 387.741,533.016 387.5,535C 388.393,537.936 389.393,540.769 390.5,543.5C 388.833,543.5 387.167,543.5 385.5,543.5C 385.664,540.813 385.497,538.146 385,535.5C 379.962,537.39 378.462,540.556 380.5,545C 386.554,546.669 391.221,545.002 394.5,540C 393.378,536.591 393.211,533.091 394,529.5C 395.946,526.861 396.946,523.861 397,520.5C 397.671,519.748 398.504,519.414 399.5,519.5 Z"/></g>
<g><path style="opacity:1" fill="#253a6a" d="M 384.5,578.5 C 394.212,577.709 398.045,582.042 396,591.5C 390.667,598.167 385.333,598.167 380,591.5C 379.333,588.833 379.333,586.167 380,583.5C 381.707,581.963 383.207,580.296 384.5,578.5 Z"/></g>
<g><path style="opacity:1" fill="#d3d9e9" d="M 385.5,583.5 C 391.488,583.664 392.821,586.164 389.5,591C 387.888,591.72 386.388,591.554 385,590.5C 384.297,588.071 384.463,585.738 385.5,583.5 Z"/></g>
<g><path style="opacity:1" fill="#24386c" d="M 383.5,563.5 C 384.833,563.5 386.167,563.5 387.5,563.5C 387.657,564.873 387.49,566.207 387,567.5C 381.245,575.336 376.245,583.669 372,592.5C 368.61,596.796 366.61,596.463 366,591.5C 372.595,582.643 378.428,573.31 383.5,563.5 Z"/></g>
<g><path style="opacity:1" fill="#223767" d="M 362.5,563.5 C 371.657,562.489 375.49,566.489 374,575.5C 368.204,582.434 362.871,582.1 358,574.5C 356.776,569.626 358.276,565.959 362.5,563.5 Z"/></g>
<g><path style="opacity:1" fill="#d6e1f1" d="M 364.5,567.5 C 368.976,567.8 370.31,569.967 368.5,574C 362.339,574.878 361.006,572.711 364.5,567.5 Z"/></g>
<g><path style="opacity:1" fill="#1d346c" d="M 323.5,564.5 C 324.776,566.562 325.61,568.896 326,571.5C 327.294,582.735 325.461,593.401 320.5,603.5C 314.118,613.037 305.452,619.703 294.5,623.5C 288.536,624.307 282.536,624.64 276.5,624.5C 270.369,623.679 264.702,621.679 259.5,618.5C 260.097,617.861 260.93,617.528 262,617.5C 264.919,619.072 268.085,619.739 271.5,619.5C 271.5,620.5 271.5,621.5 271.5,622.5C 276.43,622.197 281.263,622.531 286,623.5C 288.069,622.736 290.236,622.236 292.5,622C 290.833,619.538 288.833,618.205 286.5,618C 287.09,616.701 288.09,615.868 289.5,615.5C 293.77,616.879 298.104,617.879 302.5,618.5C 302.714,616.856 302.38,615.356 301.5,614C 299.444,613.689 297.444,613.189 295.5,612.5C 293.575,609.828 290.908,608.828 287.5,609.5C 287.719,608.325 287.386,607.325 286.5,606.5C 285.216,607.585 283.716,608.252 282,608.5C 277.972,608.216 274.138,607.382 270.5,606C 272.833,605.667 275.167,605.333 277.5,605C 273.827,603.83 270.494,602.164 267.5,600C 266.748,599.329 266.414,598.496 266.5,597.5C 282.394,606.752 294.727,603.418 303.5,587.5C 303.66,589.199 303.494,590.866 303,592.5C 299.247,596.929 295.081,600.763 290.5,604C 290.735,604.873 291.069,605.707 291.5,606.5C 293.781,607.277 295.948,608.277 298,609.5C 299.626,609.146 301.459,609.146 303.5,609.5C 303.703,607.61 303.037,606.11 301.5,605C 302.108,604.13 302.941,603.63 304,603.5C 306.087,605.126 308.253,606.626 310.5,608C 308.275,608.876 306.275,610.043 304.5,611.5C 305.081,613.724 306.414,614.557 308.5,614C 310.189,611.645 312.189,609.645 314.5,608C 314.089,606.856 313.756,605.689 313.5,604.5C 313.732,600.25 315.232,599.583 318,602.5C 321.369,599.427 322.202,595.76 320.5,591.5C 319.416,592.665 318.583,593.998 318,595.5C 317.056,594.737 316.556,593.737 316.5,592.5C 317.859,586.914 318.692,581.247 319,575.5C 319.414,575.043 319.914,574.709 320.5,574.5C 320.616,579.844 321.616,585.177 323.5,590.5C 324.633,581.835 324.633,573.168 323.5,564.5 Z"/></g>
<g><path style="opacity:1" fill="#1e356e" d="M 694.5,561.5 C 695.167,562.5 695.833,563.5 696.5,564.5C 696.5,568.167 696.5,571.833 696.5,575.5C 696.667,590.504 696.5,605.504 696,620.5C 695.167,621.333 694.333,622.167 693.5,623C 687.833,623.667 682.167,623.667 676.5,623C 675.619,622.292 674.953,621.458 674.5,620.5C 675.248,618.939 676.414,617.605 678,616.5C 677.908,612.707 678.908,609.373 681,606.5C 681.789,595.473 681.623,584.473 680.5,573.5C 681.7,567.853 683.033,567.52 684.5,572.5C 682.973,588.793 683.64,604.96 686.5,621C 686.167,621.333 685.833,621.667 685.5,622C 688.497,622.755 690.997,621.922 693,619.5C 694.45,600.221 694.95,580.888 694.5,561.5 Z"/></g>
<g><path style="opacity:1" fill="#1e356d" d="M 605.5,513.5 C 605.5,548.833 605.5,584.167 605.5,619.5C 605.426,621.411 604.426,622.578 602.5,623C 596.833,623.667 591.167,623.667 585.5,623C 583.981,621.649 582.648,620.149 581.5,618.5C 574.805,622.675 567.472,624.675 559.5,624.5C 552.159,624.954 545.493,623.287 539.5,619.5C 542.3,619.111 544.967,618.611 547.5,618C 548.167,618.333 548.833,618.667 549.5,619C 548.663,620.011 548.33,621.178 548.5,622.5C 552.514,622.666 556.514,622.499 560.5,622C 556.948,619.988 556.615,618.488 559.5,617.5C 558.975,616.808 558.308,616.308 557.5,616C 559.01,615.15 560.51,614.317 562,613.5C 562.5,613.833 563,614.167 563.5,614.5C 561.67,616.905 561.003,619.405 561.5,622C 564.146,622.497 566.813,622.664 569.5,622.5C 569.302,619.23 570.802,617.23 574,616.5C 576.066,619.298 577.566,618.965 578.5,615.5C 576.877,613.209 575.043,611.209 573,609.5C 570.681,610.871 568.181,611.538 565.5,611.5C 565.281,610.325 565.614,609.325 566.5,608.5C 570.466,606.468 574.633,605.135 579,604.5C 582.018,605.761 581.852,607.095 578.5,608.5C 581.184,612.334 584.017,615.334 587,617.5C 589.118,617.208 591.284,617.041 593.5,617C 593.811,594.026 593.477,570.859 592.5,547.5C 592.99,541.148 593.657,534.815 594.5,528.5C 595.333,559.495 595.833,590.495 596,621.5C 597.011,622.337 598.178,622.67 599.5,622.5C 599.793,596.299 599.793,569.965 599.5,543.5C 599.833,538.167 600.167,532.833 600.5,527.5C 601.333,557.494 601.833,587.494 602,617.5C 602.414,617.957 602.914,618.291 603.5,618.5C 604.167,583.336 604.833,548.336 605.5,513.5 Z"/></g>
<g><path style="opacity:1" fill="#26396e" d="M 634.5,509.5 C 634.833,509.5 635.167,509.5 635.5,509.5C 636.122,510.627 636.955,511.627 638,512.5C 638.168,522.184 638.668,531.851 639.5,541.5C 649.694,536.341 660.361,535.175 671.5,538C 682.012,542.013 689.345,549.18 693.5,559.5C 690.429,554.532 686.763,550.032 682.5,546C 681.127,545.125 679.627,544.625 678,544.5C 675.846,545.252 673.68,545.419 671.5,545C 672.5,544.167 673.5,543.333 674.5,542.5C 670.556,539.603 666.056,538.27 661,538.5C 652.788,538.941 644.954,540.441 637.5,543C 636.262,539.644 635.596,536.144 635.5,532.5C 636.444,525.848 636.61,519.181 636,512.5C 635.5,512 635,511.5 634.5,511C 632,510.833 629.5,510.667 627,510.5C 623.559,510.263 620.393,510.929 617.5,512.5C 616.333,547.829 616.167,583.162 617,618.5C 620.578,618.05 622.578,616.05 623,612.5C 625.003,615.5 625.836,618.833 625.5,622.5C 628.833,622.5 632.167,622.5 635.5,622.5C 630.015,623.652 624.349,623.818 618.5,623C 616.859,621.871 615.859,620.371 615.5,618.5C 615.333,582.832 615.5,547.165 616,511.5C 616.5,511 617,510.5 617.5,510C 623.157,509.501 628.824,509.334 634.5,509.5 Z"/></g>
<g><path style="opacity:1" fill="#d9e3f8" d="M 696.5,575.5 C 697.661,590.995 697.828,606.661 697,622.5C 696.5,623 696,623.5 695.5,624C 688.5,624.667 681.5,624.667 674.5,624C 673.663,622.989 673.33,621.822 673.5,620.5C 673.833,620.5 674.167,620.5 674.5,620.5C 674.953,621.458 675.619,622.292 676.5,623C 682.167,623.667 687.833,623.667 693.5,623C 694.333,622.167 695.167,621.333 696,620.5C 696.5,605.504 696.667,590.504 696.5,575.5 Z"/></g>
<g><path style="opacity:1" fill="#abb7d1" d="M 294.5,623.5 C 291.305,625.03 287.805,625.696 284,625.5C 281.31,625.497 278.81,625.164 276.5,624.5C 282.536,624.64 288.536,624.307 294.5,623.5 Z"/></g>
</svg>
